<?xml version="1.0" encoding="UTF-8" standalone="no"?><svg xmlns="http://www.w3.org/2000/svg" xmlns:xlink="http://www.w3.org/1999/xlink" contentScriptType="application/ecmascript" contentStyleType="text/css" height="622px" preserveAspectRatio="none" style="width:1206px;height:622px;" version="1.1" viewBox="0 0 1206 622" width="1206px" zoomAndPan="magnify"><defs><filter height="300%" id="f1avbu1zrf5e8h" width="300%" x="-1" y="-1"><feGaussianBlur result="blurOut" stdDeviation="2.0"/><feColorMatrix in="blurOut" result="blurOut2" type="matrix" values="0 0 0 0 0 0 0 0 0 0 0 0 0 0 0 0 0 0 .4 0"/><feOffset dx="4.0" dy="4.0" in="blurOut2" result="blurOut3"/><feBlend in="SourceGraphic" in2="blurOut3" mode="normal"/></filter></defs><g><text fill="#000000" font-family="sans-serif" font-size="14" font-weight="bold" lengthAdjust="spacingAndGlyphs" textLength="347" x="430.25" y="22.9951">"Use Case - Running a Simulation - Execute"</text><rect fill="#FFFFFF" filter="url(#f1avbu1zrf5e8h)" height="327.1953" style="stroke: #A80036; stroke-width: 1.0;" width="10" x="151" y="99.7266"/><rect fill="#FFFFFF" filter="url(#f1avbu1zrf5e8h)" height="94.1328" style="stroke: #A80036; stroke-width: 1.0;" width="10" x="151" y="463.1875"/><rect fill="#FFFFFF" filter="url(#f1avbu1zrf5e8h)" height="29.1328" style="stroke: #A80036; stroke-width: 1.0;" width="10" x="289" y="128.8594"/><rect fill="#FFFFFF" filter="url(#f1avbu1zrf5e8h)" height="239.7969" style="stroke: #A80036; stroke-width: 1.0;" width="10" x="685" y="187.125"/><rect fill="#FFFFFF" filter="url(#f1avbu1zrf5e8h)" height="28" style="stroke: #A80036; stroke-width: 1.0;" width="10" x="690" y="398.9219"/><rect fill="#FFFFFF" filter="url(#f1avbu1zrf5e8h)" height="65" style="stroke: #A80036; stroke-width: 1.0;" width="10" x="685" y="492.3203"/><rect fill="#FFFFFF" filter="url(#f1avbu1zrf5e8h)" height="28" style="stroke: #A80036; stroke-width: 1.0;" width="10" x="690" y="529.3203"/><rect fill="#FFFFFF" filter="url(#f1avbu1zrf5e8h)" height="29.1328" style="stroke: #A80036; stroke-width: 1.0;" width="10" x="866" y="216.2578"/><rect fill="#FFFFFF" filter="url(#f1avbu1zrf5e8h)" height="29.1328" style="stroke: #A80036; stroke-width: 1.0;" width="10" x="1148" y="274.5234"/><rect fill="#FFFFFF" filter="url(#f1avbu1zrf5e8h)" height="29.1328" style="stroke: #A80036; stroke-width: 1.0;" width="10" x="1148" y="332.7891"/><line style="stroke: #A80036; stroke-width: 1.0; stroke-dasharray: 5.0,5.0;" x1="156" x2="156" y1="68.5938" y2="582.4531"/><line style="stroke: #A80036; stroke-width: 1.0; stroke-dasharray: 5.0,5.0;" x1="293.5" x2="293.5" y1="68.5938" y2="582.4531"/><line style="stroke: #A80036; stroke-width: 1.0; stroke-dasharray: 5.0,5.0;" x1="690" x2="690" y1="68.5938" y2="582.4531"/><line style="stroke: #A80036; stroke-width: 1.0; stroke-dasharray: 5.0,5.0;" x1="870.5" x2="870.5" y1="68.5938" y2="582.4531"/><line style="stroke: #A80036; stroke-width: 1.0; stroke-dasharray: 5.0,5.0;" x1="1152.5" x2="1152.5" y1="68.5938" y2="582.4531"/><rect fill="#FEFECE" filter="url(#f1avbu1zrf5e8h)" height="30.2969" style="stroke: #A80036; stroke-width: 1.5;" width="86" x="111" y="33.2969"/><text fill="#000000" font-family="sans-serif" font-size="14" lengthAdjust="spacingAndGlyphs" textLength="72" x="118" y="53.292">:Controller</text><rect fill="#FEFECE" filter="url(#f1avbu1zrf5e8h)" height="30.2969" style="stroke: #A80036; stroke-width: 1.5;" width="86" x="111" y="581.4531"/><text fill="#000000" font-family="sans-serif" font-size="14" lengthAdjust="spacingAndGlyphs" textLength="72" x="118" y="601.4482">:Controller</text><rect fill="#FEFECE" filter="url(#f1avbu1zrf5e8h)" height="30.2969" style="stroke: #A80036; stroke-width: 1.5;" width="111" x="236.5" y="33.2969"/><text fill="#000000" font-family="sans-serif" font-size="14" lengthAdjust="spacingAndGlyphs" textLength="97" x="243.5" y="53.292">:UserManager</text><rect fill="#FEFECE" filter="url(#f1avbu1zrf5e8h)" height="30.2969" style="stroke: #A80036; stroke-width: 1.5;" width="111" x="236.5" y="581.4531"/><text fill="#000000" font-family="sans-serif" font-size="14" lengthAdjust="spacingAndGlyphs" textLength="97" x="243.5" y="601.4482">:UserManager</text><rect fill="#FEFECE" filter="url(#f1avbu1zrf5e8h)" height="30.2969" style="stroke: #A80036; stroke-width: 1.5;" width="150" x="613" y="33.2969"/><text fill="#000000" font-family="sans-serif" font-size="14" lengthAdjust="spacingAndGlyphs" textLength="136" x="620" y="53.292">:SimulationManager</text><rect fill="#FEFECE" filter="url(#f1avbu1zrf5e8h)" height="30.2969" style="stroke: #A80036; stroke-width: 1.5;" width="150" x="613" y="581.4531"/><text fill="#000000" font-family="sans-serif" font-size="14" lengthAdjust="spacingAndGlyphs" textLength="136" x="620" y="601.4482">:SimulationManager</text><rect fill="#FEFECE" filter="url(#f1avbu1zrf5e8h)" height="30.2969" style="stroke: #A80036; stroke-width: 1.5;" width="51" x="843.5" y="33.2969"/><text fill="#000000" font-family="sans-serif" font-size="14" lengthAdjust="spacingAndGlyphs" textLength="37" x="850.5" y="53.292">:User</text><rect fill="#FEFECE" filter="url(#f1avbu1zrf5e8h)" height="30.2969" style="stroke: #A80036; stroke-width: 1.5;" width="51" x="843.5" y="581.4531"/><text fill="#000000" font-family="sans-serif" font-size="14" lengthAdjust="spacingAndGlyphs" textLength="37" x="850.5" y="601.4482">:User</text><rect fill="#FEFECE" filter="url(#f1avbu1zrf5e8h)" height="30.2969" style="stroke: #A80036; stroke-width: 1.5;" width="89" x="1106.5" y="33.2969"/><text fill="#000000" font-family="sans-serif" font-size="14" lengthAdjust="spacingAndGlyphs" textLength="75" x="1113.5" y="53.292">:XmlObject</text><rect fill="#FEFECE" filter="url(#f1avbu1zrf5e8h)" height="30.2969" style="stroke: #A80036; stroke-width: 1.5;" width="89" x="1106.5" y="581.4531"/><text fill="#000000" font-family="sans-serif" font-size="14" lengthAdjust="spacingAndGlyphs" textLength="75" x="1113.5" y="601.4482">:XmlObject</text><rect fill="#FFFFFF" filter="url(#f1avbu1zrf5e8h)" height="327.1953" style="stroke: #A80036; stroke-width: 1.0;" width="10" x="151" y="99.7266"/><rect fill="#FFFFFF" filter="url(#f1avbu1zrf5e8h)" height="94.1328" style="stroke: #A80036; stroke-width: 1.0;" width="10" x="151" y="463.1875"/><rect fill="#FFFFFF" filter="url(#f1avbu1zrf5e8h)" height="29.1328" style="stroke: #A80036; stroke-width: 1.0;" width="10" x="289" y="128.8594"/><rect fill="#FFFFFF" filter="url(#f1avbu1zrf5e8h)" height="239.7969" style="stroke: #A80036; stroke-width: 1.0;" width="10" x="685" y="187.125"/><rect fill="#FFFFFF" filter="url(#f1avbu1zrf5e8h)" height="28" style="stroke: #A80036; stroke-width: 1.0;" width="10" x="690" y="398.9219"/><rect fill="#FFFFFF" filter="url(#f1avbu1zrf5e8h)" height="65" style="stroke: #A80036; stroke-width: 1.0;" width="10" x="685" y="492.3203"/><rect fill="#FFFFFF" filter="url(#f1avbu1zrf5e8h)" height="28" style="stroke: #A80036; stroke-width: 1.0;" width="10" x="690" y="529.3203"/><rect fill="#FFFFFF" filter="url(#f1avbu1zrf5e8h)" height="29.1328" style="stroke: #A80036; stroke-width: 1.0;" width="10" x="866" y="216.2578"/><rect fill="#FFFFFF" filter="url(#f1avbu1zrf5e8h)" height="29.1328" style="stroke: #A80036; stroke-width: 1.0;" width="10" x="1148" y="274.5234"/><rect fill="#FFFFFF" filter="url(#f1avbu1zrf5e8h)" height="29.1328" style="stroke: #A80036; stroke-width: 1.0;" width="10" x="1148" y="332.7891"/><polygon fill="#A80036" points="139,95.7266,149,99.7266,139,103.7266,143,99.7266" style="stroke: #A80036; stroke-width: 1.0;"/><line style="stroke: #A80036; stroke-width: 1.0;" x1="3" x2="145" y1="99.7266" y2="99.7266"/><text fill="#000000" font-family="sans-serif" font-size="13" lengthAdjust="spacingAndGlyphs" textLength="108" x="10" y="94.6606">startSimulation()</text><polygon fill="#A80036" points="277,124.8594,287,128.8594,277,132.8594,281,128.8594" style="stroke: #A80036; stroke-width: 1.0;"/><line style="stroke: #A80036; stroke-width: 1.0;" x1="161" x2="283" y1="128.8594" y2="128.8594"/><text fill="#000000" font-family="sans-serif" font-size="13" lengthAdjust="spacingAndGlyphs" textLength="109" x="168" y="123.7935">getCurrentUser()</text><polygon fill="#A80036" points="172,153.9922,162,157.9922,172,161.9922,168,157.9922" style="stroke: #A80036; stroke-width: 1.0;"/><line style="stroke: #A80036; stroke-width: 1.0; stroke-dasharray: 2.0,2.0;" x1="166" x2="293" y1="157.9922" y2="157.9922"/><text fill="#000000" font-family="sans-serif" font-size="13" lengthAdjust="spacingAndGlyphs" textLength="30" x="178" y="152.9263">User</text><polygon fill="#A80036" points="673,183.125,683,187.125,673,191.125,677,187.125" style="stroke: #A80036; stroke-width: 1.0;"/><line style="stroke: #A80036; stroke-width: 1.0;" x1="161" x2="679" y1="187.125" y2="187.125"/><text fill="#000000" font-family="sans-serif" font-size="13" lengthAdjust="spacingAndGlyphs" textLength="505" x="168" y="182.0591">startSimulation(ProjectManager, UserManager, ResourceManager, Clock, User)</text><polygon fill="#A80036" points="854,212.2578,864,216.2578,854,220.2578,858,216.2578" style="stroke: #A80036; stroke-width: 1.0;"/><line style="stroke: #A80036; stroke-width: 1.0;" x1="695" x2="860" y1="216.2578" y2="216.2578"/><text fill="#000000" font-family="sans-serif" font-size="13" lengthAdjust="spacingAndGlyphs" textLength="91" x="702" y="211.1919">getUserType()</text><polygon fill="#A80036" points="706,241.3906,696,245.3906,706,249.3906,702,245.3906" style="stroke: #A80036; stroke-width: 1.0;"/><line style="stroke: #A80036; stroke-width: 1.0; stroke-dasharray: 2.0,2.0;" x1="700" x2="870" y1="245.3906" y2="245.3906"/><text fill="#000000" font-family="sans-serif" font-size="13" lengthAdjust="spacingAndGlyphs" textLength="38" x="712" y="240.3247">String</text><polygon fill="#A80036" points="1136,270.5234,1146,274.5234,1136,278.5234,1140,274.5234" style="stroke: #A80036; stroke-width: 1.0;"/><line style="stroke: #A80036; stroke-width: 1.0;" x1="695" x2="1142" y1="274.5234" y2="274.5234"/><text fill="#000000" font-family="sans-serif" font-size="13" lengthAdjust="spacingAndGlyphs" textLength="434" x="702" y="269.4575">XmlObject(ProjectManager, UserManager, ResourceManager, Clock)</text><polygon fill="#A80036" points="706,299.6563,696,303.6563,706,307.6563,702,303.6563" style="stroke: #A80036; stroke-width: 1.0;"/><line style="stroke: #A80036; stroke-width: 1.0; stroke-dasharray: 2.0,2.0;" x1="700" x2="1152" y1="303.6563" y2="303.6563"/><text fill="#000000" font-family="sans-serif" font-size="13" lengthAdjust="spacingAndGlyphs" textLength="65" x="712" y="298.5903">XmlObject</text><polygon fill="#A80036" points="1136,328.7891,1146,332.7891,1136,336.7891,1140,332.7891" style="stroke: #A80036; stroke-width: 1.0;"/><line style="stroke: #A80036; stroke-width: 1.0;" x1="695" x2="1142" y1="332.7891" y2="332.7891"/><text fill="#000000" font-family="sans-serif" font-size="13" lengthAdjust="spacingAndGlyphs" textLength="87" x="702" y="327.7231">toXMLString()</text><polygon fill="#A80036" points="706,357.9219,696,361.9219,706,365.9219,702,361.9219" style="stroke: #A80036; stroke-width: 1.0;"/><line style="stroke: #A80036; stroke-width: 1.0; stroke-dasharray: 2.0,2.0;" x1="700" x2="1152" y1="361.9219" y2="361.9219"/><text fill="#000000" font-family="sans-serif" font-size="13" lengthAdjust="spacingAndGlyphs" textLength="38" x="712" y="356.856">String</text><line style="stroke: #A80036; stroke-width: 1.0;" x1="700" x2="742" y1="391.0547" y2="391.0547"/><line style="stroke: #A80036; stroke-width: 1.0;" x1="742" x2="742" y1="391.0547" y2="404.0547"/><line style="stroke: #A80036; stroke-width: 1.0;" x1="701" x2="742" y1="404.0547" y2="404.0547"/><polygon fill="#A80036" points="711,400.0547,701,404.0547,711,408.0547,707,404.0547" style="stroke: #A80036; stroke-width: 1.0;"/><text fill="#000000" font-family="sans-serif" font-size="13" lengthAdjust="spacingAndGlyphs" textLength="157" x="707" y="385.9888">setPreviousState(String)</text><polygon fill="#A80036" points="139,459.1875,149,463.1875,139,467.1875,143,463.1875" style="stroke: #A80036; stroke-width: 1.0;"/><line style="stroke: #A80036; stroke-width: 1.0;" x1="3" x2="145" y1="463.1875" y2="463.1875"/><text fill="#000000" font-family="sans-serif" font-size="13" lengthAdjust="spacingAndGlyphs" textLength="129" x="10" y="458.1216">executeSimulation()</text><polygon fill="#A80036" points="673,488.3203,683,492.3203,673,496.3203,677,492.3203" style="stroke: #A80036; stroke-width: 1.0;"/><line style="stroke: #A80036; stroke-width: 1.0;" x1="161" x2="679" y1="492.3203" y2="492.3203"/><text fill="#000000" font-family="sans-serif" font-size="13" lengthAdjust="spacingAndGlyphs" textLength="129" x="168" y="487.2544">executeSimulation()</text><line style="stroke: #A80036; stroke-width: 1.0;" x1="700" x2="742" y1="521.4531" y2="521.4531"/><line style="stroke: #A80036; stroke-width: 1.0;" x1="742" x2="742" y1="521.4531" y2="534.4531"/><line style="stroke: #A80036; stroke-width: 1.0;" x1="701" x2="742" y1="534.4531" y2="534.4531"/><polygon fill="#A80036" points="711,530.4531,701,534.4531,711,538.4531,707,534.4531" style="stroke: #A80036; stroke-width: 1.0;"/><text fill="#000000" font-family="sans-serif" font-size="13" lengthAdjust="spacingAndGlyphs" textLength="141" x="707" y="516.3872">setPreviousState(null)</text><!--
@startuml
title "Use Case - Running a Simulation - Execute"

-> ":Controller": startSimulation()
activate ":Controller"

":Controller" -> ":UserManager": getCurrentUser()
activate ":UserManager"
":Controller" <- - ":UserManager": User
deactivate ":UserManager"

":Controller" -> ":SimulationManager": startSimulation(ProjectManager, UserManager, ResourceManager, Clock, User)
activate ":SimulationManager"

":SimulationManager" -> ":User": getUserType()
activate ":User"
":SimulationManager" <- - ":User": String
deactivate ":User"

":SimulationManager" -> ":XmlObject": XmlObject(ProjectManager, UserManager, ResourceManager, Clock)
activate ":XmlObject"
":SimulationManager" <- - ":XmlObject": XmlObject
deactivate ":XmlObject"

":SimulationManager" -> ":XmlObject": toXMLString()
activate ":XmlObject"
":SimulationManager" <- - ":XmlObject": String
deactivate ":XmlObject"

":SimulationManager" -> ":SimulationManager": setPreviousState(String)
activate ":SimulationManager"
deactivate ":SimulationManager"

deactivate ":SimulationManager"

deactivate ":Controller"


-> ":Controller": executeSimulation()
activate ":Controller"

":Controller" -> ":SimulationManager": executeSimulation()
activate ":SimulationManager"

":SimulationManager" -> ":SimulationManager": setPreviousState(null)
activate ":SimulationManager"
deactivate ":SimulationManager"

deactivate ":SimulationManager"

deactivate ":Controller"
@enduml

PlantUML version 1.2018.06(Mon May 21 10:34:53 UTC 2018)
(GPL source distribution)
Java Runtime: Java(TM) SE Runtime Environment
JVM: Java HotSpot(TM) 64-Bit Server VM
Java Version: 1.7.0_25-b15
Operating System: Linux
Default Encoding: UTF-8
Language: en
Country: US
--></g></svg>