<?xml version="1.0" encoding="UTF-8" standalone="no"?><svg xmlns="http://www.w3.org/2000/svg" xmlns:xlink="http://www.w3.org/1999/xlink" contentScriptType="application/ecmascript" contentStyleType="text/css" height="1243px" preserveAspectRatio="none" style="width:1294px;height:1243px;" version="1.1" viewBox="0 0 1294 1243" width="1294px" zoomAndPan="magnify"><defs><filter height="300%" id="f1pqwpvqu7bibx" width="300%" x="-1" y="-1"><feGaussianBlur result="blurOut" stdDeviation="2.0"/><feColorMatrix in="blurOut" result="blurOut2" type="matrix" values="0 0 0 0 0 0 0 0 0 0 0 0 0 0 0 0 0 0 .4 0"/><feOffset dx="4.0" dy="4.0" in="blurOut2" result="blurOut3"/><feBlend in="SourceGraphic" in2="blurOut3" mode="normal"/></filter></defs><g><text fill="#000000" font-family="sans-serif" font-size="14" font-weight="bold" lengthAdjust="spacingAndGlyphs" textLength="337" x="479.25" y="22.9951">"Use Case - Running a Simulation - Cancel"</text><rect fill="#FFFFFF" filter="url(#f1pqwpvqu7bibx)" height="327.1953" style="stroke: #A80036; stroke-width: 1.0;" width="10" x="141" y="99.7266"/><rect fill="#FFFFFF" filter="url(#f1pqwpvqu7bibx)" height="715.2578" style="stroke: #A80036; stroke-width: 1.0;" width="10" x="141" y="463.1875"/><rect fill="#FFFFFF" filter="url(#f1pqwpvqu7bibx)" height="28" style="stroke: #A80036; stroke-width: 1.0;" width="10" x="146" y="759.25"/><rect fill="#FFFFFF" filter="url(#f1pqwpvqu7bibx)" height="28" style="stroke: #A80036; stroke-width: 1.0;" width="10" x="146" y="889.6484"/><rect fill="#FFFFFF" filter="url(#f1pqwpvqu7bibx)" height="28" style="stroke: #A80036; stroke-width: 1.0;" width="10" x="146" y="1020.0469"/><rect fill="#FFFFFF" filter="url(#f1pqwpvqu7bibx)" height="28" style="stroke: #A80036; stroke-width: 1.0;" width="10" x="146" y="1150.4453"/><rect fill="#FFFFFF" filter="url(#f1pqwpvqu7bibx)" height="29.1328" style="stroke: #A80036; stroke-width: 1.0;" width="10" x="425" y="128.8594"/><rect fill="#FFFFFF" filter="url(#f1pqwpvqu7bibx)" height="239.7969" style="stroke: #A80036; stroke-width: 1.0;" width="10" x="675" y="187.125"/><rect fill="#FFFFFF" filter="url(#f1pqwpvqu7bibx)" height="28" style="stroke: #A80036; stroke-width: 1.0;" width="10" x="680" y="398.9219"/><rect fill="#FFFFFF" filter="url(#f1pqwpvqu7bibx)" height="171.6641" style="stroke: #A80036; stroke-width: 1.0;" width="10" x="675" y="492.3203"/><rect fill="#FFFFFF" filter="url(#f1pqwpvqu7bibx)" height="40.1328" style="stroke: #A80036; stroke-width: 1.0;" width="10" x="680" y="529.3203"/><rect fill="#FFFFFF" filter="url(#f1pqwpvqu7bibx)" height="29.1328" style="stroke: #A80036; stroke-width: 1.0;" width="10" x="856" y="216.2578"/><rect fill="#FFFFFF" filter="url(#f1pqwpvqu7bibx)" height="29.1328" style="stroke: #A80036; stroke-width: 1.0;" width="10" x="1138" y="274.5234"/><rect fill="#FFFFFF" filter="url(#f1pqwpvqu7bibx)" height="29.1328" style="stroke: #A80036; stroke-width: 1.0;" width="10" x="1138" y="332.7891"/><rect fill="#FFFFFF" filter="url(#f1pqwpvqu7bibx)" height="29.1328" style="stroke: #A80036; stroke-width: 1.0;" width="10" x="1138" y="693.1172"/><rect fill="#FFFFFF" filter="url(#f1pqwpvqu7bibx)" height="29.1328" style="stroke: #A80036; stroke-width: 1.0;" width="10" x="1138" y="823.5156"/><rect fill="#FFFFFF" filter="url(#f1pqwpvqu7bibx)" height="29.1328" style="stroke: #A80036; stroke-width: 1.0;" width="10" x="1138" y="953.9141"/><rect fill="#FFFFFF" filter="url(#f1pqwpvqu7bibx)" height="29.1328" style="stroke: #A80036; stroke-width: 1.0;" width="10" x="1138" y="1084.3125"/><rect fill="#FFFFFF" filter="url(#f1pqwpvqu7bibx)" height="29.1328" style="stroke: #A80036; stroke-width: 1.0;" width="10" x="1238.5" y="605.7188"/><line style="stroke: #A80036; stroke-width: 1.0; stroke-dasharray: 5.0,5.0;" x1="146" x2="146" y1="68.5938" y2="1203.5781"/><line style="stroke: #A80036; stroke-width: 1.0; stroke-dasharray: 5.0,5.0;" x1="429.5" x2="429.5" y1="68.5938" y2="1203.5781"/><line style="stroke: #A80036; stroke-width: 1.0; stroke-dasharray: 5.0,5.0;" x1="680" x2="680" y1="68.5938" y2="1203.5781"/><line style="stroke: #A80036; stroke-width: 1.0; stroke-dasharray: 5.0,5.0;" x1="860.5" x2="860.5" y1="68.5938" y2="1203.5781"/><line style="stroke: #A80036; stroke-width: 1.0; stroke-dasharray: 5.0,5.0;" x1="1142.5" x2="1142.5" y1="68.5938" y2="1203.5781"/><line style="stroke: #A80036; stroke-width: 1.0; stroke-dasharray: 5.0,5.0;" x1="1243.5" x2="1243.5" y1="68.5938" y2="1203.5781"/><rect fill="#FEFECE" filter="url(#f1pqwpvqu7bibx)" height="30.2969" style="stroke: #A80036; stroke-width: 1.5;" width="86" x="101" y="33.2969"/><text fill="#000000" font-family="sans-serif" font-size="14" lengthAdjust="spacingAndGlyphs" textLength="72" x="108" y="53.292">:Controller</text><rect fill="#FEFECE" filter="url(#f1pqwpvqu7bibx)" height="30.2969" style="stroke: #A80036; stroke-width: 1.5;" width="86" x="101" y="1202.5781"/><text fill="#000000" font-family="sans-serif" font-size="14" lengthAdjust="spacingAndGlyphs" textLength="72" x="108" y="1222.5732">:Controller</text><rect fill="#FEFECE" filter="url(#f1pqwpvqu7bibx)" height="30.2969" style="stroke: #A80036; stroke-width: 1.5;" width="111" x="372.5" y="33.2969"/><text fill="#000000" font-family="sans-serif" font-size="14" lengthAdjust="spacingAndGlyphs" textLength="97" x="379.5" y="53.292">:UserManager</text><rect fill="#FEFECE" filter="url(#f1pqwpvqu7bibx)" height="30.2969" style="stroke: #A80036; stroke-width: 1.5;" width="111" x="372.5" y="1202.5781"/><text fill="#000000" font-family="sans-serif" font-size="14" lengthAdjust="spacingAndGlyphs" textLength="97" x="379.5" y="1222.5732">:UserManager</text><rect fill="#FEFECE" filter="url(#f1pqwpvqu7bibx)" height="30.2969" style="stroke: #A80036; stroke-width: 1.5;" width="150" x="603" y="33.2969"/><text fill="#000000" font-family="sans-serif" font-size="14" lengthAdjust="spacingAndGlyphs" textLength="136" x="610" y="53.292">:SimulationManager</text><rect fill="#FEFECE" filter="url(#f1pqwpvqu7bibx)" height="30.2969" style="stroke: #A80036; stroke-width: 1.5;" width="150" x="603" y="1202.5781"/><text fill="#000000" font-family="sans-serif" font-size="14" lengthAdjust="spacingAndGlyphs" textLength="136" x="610" y="1222.5732">:SimulationManager</text><rect fill="#FEFECE" filter="url(#f1pqwpvqu7bibx)" height="30.2969" style="stroke: #A80036; stroke-width: 1.5;" width="51" x="833.5" y="33.2969"/><text fill="#000000" font-family="sans-serif" font-size="14" lengthAdjust="spacingAndGlyphs" textLength="37" x="840.5" y="53.292">:User</text><rect fill="#FEFECE" filter="url(#f1pqwpvqu7bibx)" height="30.2969" style="stroke: #A80036; stroke-width: 1.5;" width="51" x="833.5" y="1202.5781"/><text fill="#000000" font-family="sans-serif" font-size="14" lengthAdjust="spacingAndGlyphs" textLength="37" x="840.5" y="1222.5732">:User</text><rect fill="#FEFECE" filter="url(#f1pqwpvqu7bibx)" height="30.2969" style="stroke: #A80036; stroke-width: 1.5;" width="89" x="1096.5" y="33.2969"/><text fill="#000000" font-family="sans-serif" font-size="14" lengthAdjust="spacingAndGlyphs" textLength="75" x="1103.5" y="53.292">:XmlObject</text><rect fill="#FEFECE" filter="url(#f1pqwpvqu7bibx)" height="30.2969" style="stroke: #A80036; stroke-width: 1.5;" width="89" x="1096.5" y="1202.5781"/><text fill="#000000" font-family="sans-serif" font-size="14" lengthAdjust="spacingAndGlyphs" textLength="75" x="1103.5" y="1222.5732">:XmlObject</text><rect fill="#FEFECE" filter="url(#f1pqwpvqu7bibx)" height="30.2969" style="stroke: #A80036; stroke-width: 1.5;" width="84" x="1199.5" y="33.2969"/><text fill="#000000" font-family="sans-serif" font-size="14" lengthAdjust="spacingAndGlyphs" textLength="70" x="1206.5" y="53.292">XmlObject</text><rect fill="#FEFECE" filter="url(#f1pqwpvqu7bibx)" height="30.2969" style="stroke: #A80036; stroke-width: 1.5;" width="84" x="1199.5" y="1202.5781"/><text fill="#000000" font-family="sans-serif" font-size="14" lengthAdjust="spacingAndGlyphs" textLength="70" x="1206.5" y="1222.5732">XmlObject</text><rect fill="#FFFFFF" filter="url(#f1pqwpvqu7bibx)" height="327.1953" style="stroke: #A80036; stroke-width: 1.0;" width="10" x="141" y="99.7266"/><rect fill="#FFFFFF" filter="url(#f1pqwpvqu7bibx)" height="715.2578" style="stroke: #A80036; stroke-width: 1.0;" width="10" x="141" y="463.1875"/><rect fill="#FFFFFF" filter="url(#f1pqwpvqu7bibx)" height="28" style="stroke: #A80036; stroke-width: 1.0;" width="10" x="146" y="759.25"/><rect fill="#FFFFFF" filter="url(#f1pqwpvqu7bibx)" height="28" style="stroke: #A80036; stroke-width: 1.0;" width="10" x="146" y="889.6484"/><rect fill="#FFFFFF" filter="url(#f1pqwpvqu7bibx)" height="28" style="stroke: #A80036; stroke-width: 1.0;" width="10" x="146" y="1020.0469"/><rect fill="#FFFFFF" filter="url(#f1pqwpvqu7bibx)" height="28" style="stroke: #A80036; stroke-width: 1.0;" width="10" x="146" y="1150.4453"/><rect fill="#FFFFFF" filter="url(#f1pqwpvqu7bibx)" height="29.1328" style="stroke: #A80036; stroke-width: 1.0;" width="10" x="425" y="128.8594"/><rect fill="#FFFFFF" filter="url(#f1pqwpvqu7bibx)" height="239.7969" style="stroke: #A80036; stroke-width: 1.0;" width="10" x="675" y="187.125"/><rect fill="#FFFFFF" filter="url(#f1pqwpvqu7bibx)" height="28" style="stroke: #A80036; stroke-width: 1.0;" width="10" x="680" y="398.9219"/><rect fill="#FFFFFF" filter="url(#f1pqwpvqu7bibx)" height="171.6641" style="stroke: #A80036; stroke-width: 1.0;" width="10" x="675" y="492.3203"/><rect fill="#FFFFFF" filter="url(#f1pqwpvqu7bibx)" height="40.1328" style="stroke: #A80036; stroke-width: 1.0;" width="10" x="680" y="529.3203"/><rect fill="#FFFFFF" filter="url(#f1pqwpvqu7bibx)" height="29.1328" style="stroke: #A80036; stroke-width: 1.0;" width="10" x="856" y="216.2578"/><rect fill="#FFFFFF" filter="url(#f1pqwpvqu7bibx)" height="29.1328" style="stroke: #A80036; stroke-width: 1.0;" width="10" x="1138" y="274.5234"/><rect fill="#FFFFFF" filter="url(#f1pqwpvqu7bibx)" height="29.1328" style="stroke: #A80036; stroke-width: 1.0;" width="10" x="1138" y="332.7891"/><rect fill="#FFFFFF" filter="url(#f1pqwpvqu7bibx)" height="29.1328" style="stroke: #A80036; stroke-width: 1.0;" width="10" x="1138" y="693.1172"/><rect fill="#FFFFFF" filter="url(#f1pqwpvqu7bibx)" height="29.1328" style="stroke: #A80036; stroke-width: 1.0;" width="10" x="1138" y="823.5156"/><rect fill="#FFFFFF" filter="url(#f1pqwpvqu7bibx)" height="29.1328" style="stroke: #A80036; stroke-width: 1.0;" width="10" x="1138" y="953.9141"/><rect fill="#FFFFFF" filter="url(#f1pqwpvqu7bibx)" height="29.1328" style="stroke: #A80036; stroke-width: 1.0;" width="10" x="1138" y="1084.3125"/><rect fill="#FFFFFF" filter="url(#f1pqwpvqu7bibx)" height="29.1328" style="stroke: #A80036; stroke-width: 1.0;" width="10" x="1238.5" y="605.7188"/><polygon fill="#A80036" points="129,95.7266,139,99.7266,129,103.7266,133,99.7266" style="stroke: #A80036; stroke-width: 1.0;"/><line style="stroke: #A80036; stroke-width: 1.0;" x1="3" x2="135" y1="99.7266" y2="99.7266"/><text fill="#000000" font-family="sans-serif" font-size="13" lengthAdjust="spacingAndGlyphs" textLength="108" x="10" y="94.6606">startSimulation()</text><polygon fill="#A80036" points="413,124.8594,423,128.8594,413,132.8594,417,128.8594" style="stroke: #A80036; stroke-width: 1.0;"/><line style="stroke: #A80036; stroke-width: 1.0;" x1="151" x2="419" y1="128.8594" y2="128.8594"/><text fill="#000000" font-family="sans-serif" font-size="13" lengthAdjust="spacingAndGlyphs" textLength="109" x="158" y="123.7935">getCurrentUser()</text><polygon fill="#A80036" points="162,153.9922,152,157.9922,162,161.9922,158,157.9922" style="stroke: #A80036; stroke-width: 1.0;"/><line style="stroke: #A80036; stroke-width: 1.0; stroke-dasharray: 2.0,2.0;" x1="156" x2="429" y1="157.9922" y2="157.9922"/><text fill="#000000" font-family="sans-serif" font-size="13" lengthAdjust="spacingAndGlyphs" textLength="30" x="168" y="152.9263">User</text><polygon fill="#A80036" points="663,183.125,673,187.125,663,191.125,667,187.125" style="stroke: #A80036; stroke-width: 1.0;"/><line style="stroke: #A80036; stroke-width: 1.0;" x1="151" x2="669" y1="187.125" y2="187.125"/><text fill="#000000" font-family="sans-serif" font-size="13" lengthAdjust="spacingAndGlyphs" textLength="505" x="158" y="182.0591">startSimulation(ProjectManager, UserManager, ResourceManager, Clock, User)</text><polygon fill="#A80036" points="844,212.2578,854,216.2578,844,220.2578,848,216.2578" style="stroke: #A80036; stroke-width: 1.0;"/><line style="stroke: #A80036; stroke-width: 1.0;" x1="685" x2="850" y1="216.2578" y2="216.2578"/><text fill="#000000" font-family="sans-serif" font-size="13" lengthAdjust="spacingAndGlyphs" textLength="91" x="692" y="211.1919">getUserType()</text><polygon fill="#A80036" points="696,241.3906,686,245.3906,696,249.3906,692,245.3906" style="stroke: #A80036; stroke-width: 1.0;"/><line style="stroke: #A80036; stroke-width: 1.0; stroke-dasharray: 2.0,2.0;" x1="690" x2="860" y1="245.3906" y2="245.3906"/><text fill="#000000" font-family="sans-serif" font-size="13" lengthAdjust="spacingAndGlyphs" textLength="38" x="702" y="240.3247">String</text><polygon fill="#A80036" points="1126,270.5234,1136,274.5234,1126,278.5234,1130,274.5234" style="stroke: #A80036; stroke-width: 1.0;"/><line style="stroke: #A80036; stroke-width: 1.0;" x1="685" x2="1132" y1="274.5234" y2="274.5234"/><text fill="#000000" font-family="sans-serif" font-size="13" lengthAdjust="spacingAndGlyphs" textLength="434" x="692" y="269.4575">XmlObject(ProjectManager, UserManager, ResourceManager, Clock)</text><polygon fill="#A80036" points="696,299.6563,686,303.6563,696,307.6563,692,303.6563" style="stroke: #A80036; stroke-width: 1.0;"/><line style="stroke: #A80036; stroke-width: 1.0; stroke-dasharray: 2.0,2.0;" x1="690" x2="1142" y1="303.6563" y2="303.6563"/><text fill="#000000" font-family="sans-serif" font-size="13" lengthAdjust="spacingAndGlyphs" textLength="65" x="702" y="298.5903">XmlObject</text><polygon fill="#A80036" points="1126,328.7891,1136,332.7891,1126,336.7891,1130,332.7891" style="stroke: #A80036; stroke-width: 1.0;"/><line style="stroke: #A80036; stroke-width: 1.0;" x1="685" x2="1132" y1="332.7891" y2="332.7891"/><text fill="#000000" font-family="sans-serif" font-size="13" lengthAdjust="spacingAndGlyphs" textLength="87" x="692" y="327.7231">toXMLString()</text><polygon fill="#A80036" points="696,357.9219,686,361.9219,696,365.9219,692,361.9219" style="stroke: #A80036; stroke-width: 1.0;"/><line style="stroke: #A80036; stroke-width: 1.0; stroke-dasharray: 2.0,2.0;" x1="690" x2="1142" y1="361.9219" y2="361.9219"/><text fill="#000000" font-family="sans-serif" font-size="13" lengthAdjust="spacingAndGlyphs" textLength="38" x="702" y="356.856">String</text><line style="stroke: #A80036; stroke-width: 1.0;" x1="690" x2="732" y1="391.0547" y2="391.0547"/><line style="stroke: #A80036; stroke-width: 1.0;" x1="732" x2="732" y1="391.0547" y2="404.0547"/><line style="stroke: #A80036; stroke-width: 1.0;" x1="691" x2="732" y1="404.0547" y2="404.0547"/><polygon fill="#A80036" points="701,400.0547,691,404.0547,701,408.0547,697,404.0547" style="stroke: #A80036; stroke-width: 1.0;"/><text fill="#000000" font-family="sans-serif" font-size="13" lengthAdjust="spacingAndGlyphs" textLength="157" x="697" y="385.9888">setPreviousState(String)</text><polygon fill="#A80036" points="129,459.1875,139,463.1875,129,467.1875,133,463.1875" style="stroke: #A80036; stroke-width: 1.0;"/><line style="stroke: #A80036; stroke-width: 1.0;" x1="3" x2="135" y1="463.1875" y2="463.1875"/><text fill="#000000" font-family="sans-serif" font-size="13" lengthAdjust="spacingAndGlyphs" textLength="119" x="10" y="458.1216">cancelSimulation()</text><polygon fill="#A80036" points="663,488.3203,673,492.3203,663,496.3203,667,492.3203" style="stroke: #A80036; stroke-width: 1.0;"/><line style="stroke: #A80036; stroke-width: 1.0;" x1="151" x2="669" y1="492.3203" y2="492.3203"/><text fill="#000000" font-family="sans-serif" font-size="13" lengthAdjust="spacingAndGlyphs" textLength="119" x="158" y="487.2544">cancelSimulation()</text><line style="stroke: #A80036; stroke-width: 1.0;" x1="685" x2="732" y1="516.4531" y2="516.4531"/><line style="stroke: #A80036; stroke-width: 1.0;" x1="732" x2="732" y1="516.4531" y2="529.4531"/><line style="stroke: #A80036; stroke-width: 1.0;" x1="691" x2="732" y1="529.4531" y2="529.4531"/><polygon fill="#A80036" points="701,525.4531,691,529.4531,701,533.4531,697,529.4531" style="stroke: #A80036; stroke-width: 1.0;"/><text fill="#000000" font-family="sans-serif" font-size="13" lengthAdjust="spacingAndGlyphs" textLength="120" x="697" y="511.3872">getPreviousState()</text><line style="stroke: #A80036; stroke-width: 1.0; stroke-dasharray: 2.0,2.0;" x1="690" x2="732" y1="568.5859" y2="568.5859"/><line style="stroke: #A80036; stroke-width: 1.0; stroke-dasharray: 2.0,2.0;" x1="732" x2="732" y1="568.5859" y2="581.5859"/><line style="stroke: #A80036; stroke-width: 1.0; stroke-dasharray: 2.0,2.0;" x1="685" x2="732" y1="581.5859" y2="581.5859"/><polygon fill="#A80036" points="695,577.5859,685,581.5859,695,585.5859,691,581.5859" style="stroke: #A80036; stroke-width: 1.0;"/><text fill="#000000" font-family="sans-serif" font-size="13" lengthAdjust="spacingAndGlyphs" textLength="38" x="697" y="563.52">String</text><polygon fill="#A80036" points="1226.5,601.7188,1236.5,605.7188,1226.5,609.7188,1230.5,605.7188" style="stroke: #A80036; stroke-width: 1.0;"/><line style="stroke: #A80036; stroke-width: 1.0;" x1="685" x2="1232.5" y1="605.7188" y2="605.7188"/><text fill="#000000" font-family="sans-serif" font-size="13" lengthAdjust="spacingAndGlyphs" textLength="142" x="692" y="600.6528">fromXMLString(String)</text><polygon fill="#A80036" points="696,630.8516,686,634.8516,696,638.8516,692,634.8516" style="stroke: #A80036; stroke-width: 1.0;"/><line style="stroke: #A80036; stroke-width: 1.0; stroke-dasharray: 2.0,2.0;" x1="690" x2="1242.5" y1="634.8516" y2="634.8516"/><text fill="#000000" font-family="sans-serif" font-size="13" lengthAdjust="spacingAndGlyphs" textLength="65" x="702" y="629.7856">XmlObject</text><polygon fill="#A80036" points="162,659.9844,152,663.9844,162,667.9844,158,663.9844" style="stroke: #A80036; stroke-width: 1.0;"/><line style="stroke: #A80036; stroke-width: 1.0; stroke-dasharray: 2.0,2.0;" x1="156" x2="679" y1="663.9844" y2="663.9844"/><text fill="#000000" font-family="sans-serif" font-size="13" lengthAdjust="spacingAndGlyphs" textLength="65" x="168" y="658.9185">XmlObject</text><polygon fill="#A80036" points="1126,689.1172,1136,693.1172,1126,697.1172,1130,693.1172" style="stroke: #A80036; stroke-width: 1.0;"/><line style="stroke: #A80036; stroke-width: 1.0;" x1="151" x2="1132" y1="693.1172" y2="693.1172"/><text fill="#000000" font-family="sans-serif" font-size="13" lengthAdjust="spacingAndGlyphs" textLength="146" x="158" y="688.0513">getResourceManager()</text><polygon fill="#A80036" points="162,718.25,152,722.25,162,726.25,158,722.25" style="stroke: #A80036; stroke-width: 1.0;"/><line style="stroke: #A80036; stroke-width: 1.0; stroke-dasharray: 2.0,2.0;" x1="156" x2="1142" y1="722.25" y2="722.25"/><text fill="#000000" font-family="sans-serif" font-size="13" lengthAdjust="spacingAndGlyphs" textLength="115" x="168" y="717.1841">ResourceManager</text><line style="stroke: #A80036; stroke-width: 1.0;" x1="156" x2="198" y1="751.3828" y2="751.3828"/><line style="stroke: #A80036; stroke-width: 1.0;" x1="198" x2="198" y1="751.3828" y2="764.3828"/><line style="stroke: #A80036; stroke-width: 1.0;" x1="157" x2="198" y1="764.3828" y2="764.3828"/><polygon fill="#A80036" points="167,760.3828,157,764.3828,167,768.3828,163,764.3828" style="stroke: #A80036; stroke-width: 1.0;"/><text fill="#000000" font-family="sans-serif" font-size="13" lengthAdjust="spacingAndGlyphs" textLength="260" x="163" y="746.3169">setResourceManager(ResourceManager)</text><polygon fill="#A80036" points="1126,819.5156,1136,823.5156,1126,827.5156,1130,823.5156" style="stroke: #A80036; stroke-width: 1.0;"/><line style="stroke: #A80036; stroke-width: 1.0;" x1="151" x2="1132" y1="823.5156" y2="823.5156"/><text fill="#000000" font-family="sans-serif" font-size="13" lengthAdjust="spacingAndGlyphs" textLength="131" x="158" y="818.4497">getProjectManager()</text><polygon fill="#A80036" points="162,848.6484,152,852.6484,162,856.6484,158,852.6484" style="stroke: #A80036; stroke-width: 1.0;"/><line style="stroke: #A80036; stroke-width: 1.0; stroke-dasharray: 2.0,2.0;" x1="156" x2="1142" y1="852.6484" y2="852.6484"/><text fill="#000000" font-family="sans-serif" font-size="13" lengthAdjust="spacingAndGlyphs" textLength="100" x="168" y="847.5825">ProjectManager</text><line style="stroke: #A80036; stroke-width: 1.0;" x1="156" x2="198" y1="881.7813" y2="881.7813"/><line style="stroke: #A80036; stroke-width: 1.0;" x1="198" x2="198" y1="881.7813" y2="894.7813"/><line style="stroke: #A80036; stroke-width: 1.0;" x1="157" x2="198" y1="894.7813" y2="894.7813"/><polygon fill="#A80036" points="167,890.7813,157,894.7813,167,898.7813,163,894.7813" style="stroke: #A80036; stroke-width: 1.0;"/><text fill="#000000" font-family="sans-serif" font-size="13" lengthAdjust="spacingAndGlyphs" textLength="230" x="163" y="876.7153">setProjectManager(ProjectManager)</text><polygon fill="#A80036" points="1126,949.9141,1136,953.9141,1126,957.9141,1130,953.9141" style="stroke: #A80036; stroke-width: 1.0;"/><line style="stroke: #A80036; stroke-width: 1.0;" x1="151" x2="1132" y1="953.9141" y2="953.9141"/><text fill="#000000" font-family="sans-serif" font-size="13" lengthAdjust="spacingAndGlyphs" textLength="117" x="158" y="948.8481">getUserManager()</text><polygon fill="#A80036" points="162,979.0469,152,983.0469,162,987.0469,158,983.0469" style="stroke: #A80036; stroke-width: 1.0;"/><line style="stroke: #A80036; stroke-width: 1.0; stroke-dasharray: 2.0,2.0;" x1="156" x2="1142" y1="983.0469" y2="983.0469"/><text fill="#000000" font-family="sans-serif" font-size="13" lengthAdjust="spacingAndGlyphs" textLength="86" x="168" y="977.981">UserManager</text><line style="stroke: #A80036; stroke-width: 1.0;" x1="156" x2="198" y1="1012.1797" y2="1012.1797"/><line style="stroke: #A80036; stroke-width: 1.0;" x1="198" x2="198" y1="1012.1797" y2="1025.1797"/><line style="stroke: #A80036; stroke-width: 1.0;" x1="157" x2="198" y1="1025.1797" y2="1025.1797"/><polygon fill="#A80036" points="167,1021.1797,157,1025.1797,167,1029.1797,163,1025.1797" style="stroke: #A80036; stroke-width: 1.0;"/><text fill="#000000" font-family="sans-serif" font-size="13" lengthAdjust="spacingAndGlyphs" textLength="202" x="163" y="1007.1138">setUserManager(UserManager)</text><polygon fill="#A80036" points="1126,1080.3125,1136,1084.3125,1126,1088.3125,1130,1084.3125" style="stroke: #A80036; stroke-width: 1.0;"/><line style="stroke: #A80036; stroke-width: 1.0;" x1="151" x2="1132" y1="1084.3125" y2="1084.3125"/><text fill="#000000" font-family="sans-serif" font-size="13" lengthAdjust="spacingAndGlyphs" textLength="65" x="158" y="1079.2466">getClock()</text><polygon fill="#A80036" points="162,1109.4453,152,1113.4453,162,1117.4453,158,1113.4453" style="stroke: #A80036; stroke-width: 1.0;"/><line style="stroke: #A80036; stroke-width: 1.0; stroke-dasharray: 2.0,2.0;" x1="156" x2="1142" y1="1113.4453" y2="1113.4453"/><text fill="#000000" font-family="sans-serif" font-size="13" lengthAdjust="spacingAndGlyphs" textLength="34" x="168" y="1108.3794">Clock</text><line style="stroke: #A80036; stroke-width: 1.0;" x1="156" x2="198" y1="1142.5781" y2="1142.5781"/><line style="stroke: #A80036; stroke-width: 1.0;" x1="198" x2="198" y1="1142.5781" y2="1155.5781"/><line style="stroke: #A80036; stroke-width: 1.0;" x1="157" x2="198" y1="1155.5781" y2="1155.5781"/><polygon fill="#A80036" points="167,1151.5781,157,1155.5781,167,1159.5781,163,1155.5781" style="stroke: #A80036; stroke-width: 1.0;"/><text fill="#000000" font-family="sans-serif" font-size="13" lengthAdjust="spacingAndGlyphs" textLength="98" x="163" y="1137.5122">setClock(Clock)</text><!--
@startuml
title "Use Case - Running a Simulation - Cancel"

-> ":Controller": startSimulation()
activate ":Controller"

":Controller" -> ":UserManager": getCurrentUser()
activate ":UserManager"
":Controller" <- - ":UserManager": User
deactivate ":UserManager"

":Controller" -> ":SimulationManager": startSimulation(ProjectManager, UserManager, ResourceManager, Clock, User)
activate ":SimulationManager"

":SimulationManager" -> ":User": getUserType()
activate ":User"
":SimulationManager" <- - ":User": String
deactivate ":User"

":SimulationManager" -> ":XmlObject": XmlObject(ProjectManager, UserManager, ResourceManager, Clock)
activate ":XmlObject"
":SimulationManager" <- - ":XmlObject": XmlObject
deactivate ":XmlObject"

":SimulationManager" -> ":XmlObject": toXMLString()
activate ":XmlObject"
":SimulationManager" <- - ":XmlObject": String
deactivate ":XmlObject"

":SimulationManager" -> ":SimulationManager": setPreviousState(String)
activate ":SimulationManager"
deactivate ":SimulationManager"

deactivate ":SimulationManager"

deactivate ":Controller"


-> ":Controller": cancelSimulation()
activate ":Controller"

":Controller" -> ":SimulationManager": cancelSimulation()
activate ":SimulationManager"

":SimulationManager" -> ":SimulationManager": getPreviousState()
activate ":SimulationManager"
":SimulationManager" <- - ":SimulationManager": String
deactivate ":SimulationManager"

":SimulationManager" -> "XmlObject": fromXMLString(String)
activate "XmlObject"
":SimulationManager" <- - "XmlObject": XmlObject
deactivate "XmlObject"

":Controller" <- - ":SimulationManager": XmlObject
deactivate ":SimulationManager"

":Controller" -> ":XmlObject": getResourceManager()
activate ":XmlObject"
":Controller" <- - ":XmlObject": ResourceManager
deactivate ":XmlObject"

":Controller" -> ":Controller": setResourceManager(ResourceManager)
activate ":Controller"
deactivate ":Controller"

":Controller" -> ":XmlObject": getProjectManager()
activate ":XmlObject"
":Controller" <- - ":XmlObject": ProjectManager
deactivate ":XmlObject"

":Controller" -> ":Controller": setProjectManager(ProjectManager)
activate ":Controller"
deactivate ":Controller"

":Controller" -> ":XmlObject": getUserManager()
activate ":XmlObject"
":Controller" <- - ":XmlObject": UserManager
deactivate ":XmlObject"

":Controller" -> ":Controller": setUserManager(UserManager)
activate ":Controller"
deactivate ":Controller"

":Controller" -> ":XmlObject": getClock()
activate ":XmlObject"
":Controller" <- - ":XmlObject": Clock
deactivate ":XmlObject"

":Controller" -> ":Controller": setClock(Clock)
activate ":Controller"
deactivate ":Controller"

deactivate ":Controller"
@enduml

PlantUML version 1.2018.06(Mon May 21 10:34:53 UTC 2018)
(GPL source distribution)
Java Runtime: Java(TM) SE Runtime Environment
JVM: Java HotSpot(TM) 64-Bit Server VM
Java Version: 1.7.0_25-b15
Operating System: Linux
Default Encoding: UTF-8
Language: en
Country: US
--></g></svg>