<?xml version="1.0" encoding="UTF-8" standalone="no"?><svg xmlns="http://www.w3.org/2000/svg" xmlns:xlink="http://www.w3.org/1999/xlink" contentScriptType="application/ecmascript" contentStyleType="text/css" height="625px" preserveAspectRatio="none" style="width:1047px;height:625px;" version="1.1" viewBox="0 0 1047 625" width="1047px" zoomAndPan="magnify"><defs><filter height="300%" id="f1snik8uk8epyx" width="300%" x="-1" y="-1"><feGaussianBlur result="blurOut" stdDeviation="2.0"/><feColorMatrix in="blurOut" result="blurOut2" type="matrix" values="0 0 0 0 0 0 0 0 0 0 0 0 0 0 0 0 0 0 .4 0"/><feOffset dx="4.0" dy="4.0" in="blurOut2" result="blurOut3"/><feBlend in="SourceGraphic" in2="blurOut3" mode="normal"/></filter></defs><g><text fill="#000000" font-family="sans-serif" font-size="14" font-weight="bold" lengthAdjust="spacingAndGlyphs" textLength="199" x="424.75" y="22.9951">"Use Case - Office Login"</text><rect fill="#FFFFFF" filter="url(#f1snik8uk8epyx)" height="87.3984" style="stroke: #A80036; stroke-width: 1.0;" width="10" x="288" y="99.7266"/><rect fill="#FFFFFF" filter="url(#f1snik8uk8epyx)" height="145.6641" style="stroke: #A80036; stroke-width: 1.0;" width="10" x="288" y="216.2578"/><rect fill="#FFFFFF" filter="url(#f1snik8uk8epyx)" height="176.5313" style="stroke: #A80036; stroke-width: 1.0;" width="10" x="288" y="391.0547"/><rect fill="#FFFFFF" filter="url(#f1snik8uk8epyx)" height="29.1328" style="stroke: #A80036; stroke-width: 1.0;" width="10" x="584" y="128.8594"/><rect fill="#FFFFFF" filter="url(#f1snik8uk8epyx)" height="30" style="stroke: #A80036; stroke-width: 1.0;" width="10" x="584" y="420.1875"/><rect fill="#FFFFFF" filter="url(#f1snik8uk8epyx)" height="29.1328" style="stroke: #A80036; stroke-width: 1.0;" width="10" x="735" y="245.3906"/><rect fill="#FFFFFF" filter="url(#f1snik8uk8epyx)" height="29.1328" style="stroke: #A80036; stroke-width: 1.0;" width="10" x="735" y="479.3203"/><rect fill="#FFFFFF" filter="url(#f1snik8uk8epyx)" height="29.1328" style="stroke: #A80036; stroke-width: 1.0;" width="10" x="858" y="303.6563"/><rect fill="#FFFFFF" filter="url(#f1snik8uk8epyx)" height="30" style="stroke: #A80036; stroke-width: 1.0;" width="10" x="980.5" y="537.5859"/><line style="stroke: #A80036; stroke-width: 1.0; stroke-dasharray: 5.0,5.0;" x1="293" x2="293" y1="68.5938" y2="585.5859"/><line style="stroke: #A80036; stroke-width: 1.0; stroke-dasharray: 5.0,5.0;" x1="588.5" x2="588.5" y1="68.5938" y2="585.5859"/><line style="stroke: #A80036; stroke-width: 1.0; stroke-dasharray: 5.0,5.0;" x1="739.5" x2="739.5" y1="68.5938" y2="585.5859"/><line style="stroke: #A80036; stroke-width: 1.0; stroke-dasharray: 5.0,5.0;" x1="862.5" x2="862.5" y1="68.5938" y2="585.5859"/><line style="stroke: #A80036; stroke-width: 1.0; stroke-dasharray: 5.0,5.0;" x1="985.5" x2="985.5" y1="68.5938" y2="585.5859"/><rect fill="#FEFECE" filter="url(#f1snik8uk8epyx)" height="30.2969" style="stroke: #A80036; stroke-width: 1.5;" width="86" x="248" y="33.2969"/><text fill="#000000" font-family="sans-serif" font-size="14" lengthAdjust="spacingAndGlyphs" textLength="72" x="255" y="53.292">:Controller</text><rect fill="#FEFECE" filter="url(#f1snik8uk8epyx)" height="30.2969" style="stroke: #A80036; stroke-width: 1.5;" width="86" x="248" y="584.5859"/><text fill="#000000" font-family="sans-serif" font-size="14" lengthAdjust="spacingAndGlyphs" textLength="72" x="255" y="604.5811">:Controller</text><rect fill="#FEFECE" filter="url(#f1snik8uk8epyx)" height="30.2969" style="stroke: #A80036; stroke-width: 1.5;" width="167" x="503.5" y="33.2969"/><text fill="#000000" font-family="sans-serif" font-size="14" lengthAdjust="spacingAndGlyphs" textLength="153" x="510.5" y="53.292">:BranchOfficeManager</text><rect fill="#FEFECE" filter="url(#f1snik8uk8epyx)" height="30.2969" style="stroke: #A80036; stroke-width: 1.5;" width="167" x="503.5" y="584.5859"/><text fill="#000000" font-family="sans-serif" font-size="14" lengthAdjust="spacingAndGlyphs" textLength="153" x="510.5" y="604.5811">:BranchOfficeManager</text><rect fill="#FEFECE" filter="url(#f1snik8uk8epyx)" height="30.2969" style="stroke: #A80036; stroke-width: 1.5;" width="107" x="684.5" y="33.2969"/><text fill="#000000" font-family="sans-serif" font-size="14" lengthAdjust="spacingAndGlyphs" textLength="93" x="691.5" y="53.292">:BranchOffice</text><rect fill="#FEFECE" filter="url(#f1snik8uk8epyx)" height="30.2969" style="stroke: #A80036; stroke-width: 1.5;" width="107" x="684.5" y="584.5859"/><text fill="#000000" font-family="sans-serif" font-size="14" lengthAdjust="spacingAndGlyphs" textLength="93" x="691.5" y="604.5811">:BranchOffice</text><rect fill="#FEFECE" filter="url(#f1snik8uk8epyx)" height="30.2969" style="stroke: #A80036; stroke-width: 1.5;" width="111" x="805.5" y="33.2969"/><text fill="#000000" font-family="sans-serif" font-size="14" lengthAdjust="spacingAndGlyphs" textLength="97" x="812.5" y="53.292">:UserManager</text><rect fill="#FEFECE" filter="url(#f1snik8uk8epyx)" height="30.2969" style="stroke: #A80036; stroke-width: 1.5;" width="111" x="805.5" y="584.5859"/><text fill="#000000" font-family="sans-serif" font-size="14" lengthAdjust="spacingAndGlyphs" textLength="97" x="812.5" y="604.5811">:UserManager</text><rect fill="#FEFECE" filter="url(#f1snik8uk8epyx)" height="30.2969" style="stroke: #A80036; stroke-width: 1.5;" width="106" x="930.5" y="33.2969"/><text fill="#000000" font-family="sans-serif" font-size="14" lengthAdjust="spacingAndGlyphs" textLength="92" x="937.5" y="53.292">:UserManage</text><rect fill="#FEFECE" filter="url(#f1snik8uk8epyx)" height="30.2969" style="stroke: #A80036; stroke-width: 1.5;" width="106" x="930.5" y="584.5859"/><text fill="#000000" font-family="sans-serif" font-size="14" lengthAdjust="spacingAndGlyphs" textLength="92" x="937.5" y="604.5811">:UserManage</text><rect fill="#FFFFFF" filter="url(#f1snik8uk8epyx)" height="87.3984" style="stroke: #A80036; stroke-width: 1.0;" width="10" x="288" y="99.7266"/><rect fill="#FFFFFF" filter="url(#f1snik8uk8epyx)" height="145.6641" style="stroke: #A80036; stroke-width: 1.0;" width="10" x="288" y="216.2578"/><rect fill="#FFFFFF" filter="url(#f1snik8uk8epyx)" height="176.5313" style="stroke: #A80036; stroke-width: 1.0;" width="10" x="288" y="391.0547"/><rect fill="#FFFFFF" filter="url(#f1snik8uk8epyx)" height="29.1328" style="stroke: #A80036; stroke-width: 1.0;" width="10" x="584" y="128.8594"/><rect fill="#FFFFFF" filter="url(#f1snik8uk8epyx)" height="30" style="stroke: #A80036; stroke-width: 1.0;" width="10" x="584" y="420.1875"/><rect fill="#FFFFFF" filter="url(#f1snik8uk8epyx)" height="29.1328" style="stroke: #A80036; stroke-width: 1.0;" width="10" x="735" y="245.3906"/><rect fill="#FFFFFF" filter="url(#f1snik8uk8epyx)" height="29.1328" style="stroke: #A80036; stroke-width: 1.0;" width="10" x="735" y="479.3203"/><rect fill="#FFFFFF" filter="url(#f1snik8uk8epyx)" height="29.1328" style="stroke: #A80036; stroke-width: 1.0;" width="10" x="858" y="303.6563"/><rect fill="#FFFFFF" filter="url(#f1snik8uk8epyx)" height="30" style="stroke: #A80036; stroke-width: 1.0;" width="10" x="980.5" y="537.5859"/><polygon fill="#A80036" points="276,95.7266,286,99.7266,276,103.7266,280,99.7266" style="stroke: #A80036; stroke-width: 1.0;"/><line style="stroke: #A80036; stroke-width: 1.0;" x1="3" x2="282" y1="99.7266" y2="99.7266"/><text fill="#000000" font-family="sans-serif" font-size="13" lengthAdjust="spacingAndGlyphs" textLength="119" x="10" y="94.6606">getBranchOffices()</text><polygon fill="#A80036" points="572,124.8594,582,128.8594,572,132.8594,576,128.8594" style="stroke: #A80036; stroke-width: 1.0;"/><line style="stroke: #A80036; stroke-width: 1.0;" x1="298" x2="578" y1="128.8594" y2="128.8594"/><text fill="#000000" font-family="sans-serif" font-size="13" lengthAdjust="spacingAndGlyphs" textLength="119" x="305" y="123.7935">getBranchOffices()</text><polygon fill="#A80036" points="309,153.9922,299,157.9922,309,161.9922,305,157.9922" style="stroke: #A80036; stroke-width: 1.0;"/><line style="stroke: #A80036; stroke-width: 1.0; stroke-dasharray: 2.0,2.0;" x1="303" x2="588" y1="157.9922" y2="157.9922"/><text fill="#000000" font-family="sans-serif" font-size="13" lengthAdjust="spacingAndGlyphs" textLength="125" x="315" y="152.9263">List&lt;BranchOffice&gt;</text><polygon fill="#A80036" points="14,183.125,4,187.125,14,191.125,10,187.125" style="stroke: #A80036; stroke-width: 1.0;"/><line style="stroke: #A80036; stroke-width: 1.0; stroke-dasharray: 2.0,2.0;" x1="8" x2="292" y1="187.125" y2="187.125"/><text fill="#000000" font-family="sans-serif" font-size="13" lengthAdjust="spacingAndGlyphs" textLength="178" x="20" y="182.0591">List&lt;BranchOfficeWrapper&gt;</text><polygon fill="#A80036" points="276,212.2578,286,216.2578,276,220.2578,280,216.2578" style="stroke: #A80036; stroke-width: 1.0;"/><line style="stroke: #A80036; stroke-width: 1.0;" x1="3" x2="282" y1="216.2578" y2="216.2578"/><text fill="#000000" font-family="sans-serif" font-size="13" lengthAdjust="spacingAndGlyphs" textLength="202" x="10" y="211.1919">getUsers(BranchOfficeWrapper)</text><polygon fill="#A80036" points="723,241.3906,733,245.3906,723,249.3906,727,245.3906" style="stroke: #A80036; stroke-width: 1.0;"/><line style="stroke: #A80036; stroke-width: 1.0;" x1="298" x2="729" y1="245.3906" y2="245.3906"/><text fill="#000000" font-family="sans-serif" font-size="13" lengthAdjust="spacingAndGlyphs" textLength="117" x="305" y="240.3247">getUserManager()</text><polygon fill="#A80036" points="309,270.5234,299,274.5234,309,278.5234,305,274.5234" style="stroke: #A80036; stroke-width: 1.0;"/><line style="stroke: #A80036; stroke-width: 1.0; stroke-dasharray: 2.0,2.0;" x1="303" x2="739" y1="274.5234" y2="274.5234"/><text fill="#000000" font-family="sans-serif" font-size="13" lengthAdjust="spacingAndGlyphs" textLength="86" x="315" y="269.4575">UserManager</text><polygon fill="#A80036" points="846,299.6563,856,303.6563,846,307.6563,850,303.6563" style="stroke: #A80036; stroke-width: 1.0;"/><line style="stroke: #A80036; stroke-width: 1.0;" x1="298" x2="852" y1="303.6563" y2="303.6563"/><text fill="#000000" font-family="sans-serif" font-size="13" lengthAdjust="spacingAndGlyphs" textLength="68" x="305" y="298.5903">getUsers()</text><polygon fill="#A80036" points="309,328.7891,299,332.7891,309,336.7891,305,332.7891" style="stroke: #A80036; stroke-width: 1.0;"/><line style="stroke: #A80036; stroke-width: 1.0; stroke-dasharray: 2.0,2.0;" x1="303" x2="862" y1="332.7891" y2="332.7891"/><text fill="#000000" font-family="sans-serif" font-size="13" lengthAdjust="spacingAndGlyphs" textLength="74" x="315" y="327.7231">List&lt;User&gt;</text><polygon fill="#A80036" points="14,357.9219,4,361.9219,14,365.9219,10,361.9219" style="stroke: #A80036; stroke-width: 1.0;"/><line style="stroke: #A80036; stroke-width: 1.0; stroke-dasharray: 2.0,2.0;" x1="8" x2="292" y1="361.9219" y2="361.9219"/><text fill="#000000" font-family="sans-serif" font-size="13" lengthAdjust="spacingAndGlyphs" textLength="127" x="20" y="356.856">List&lt;UserWrapper&gt;</text><polygon fill="#A80036" points="276,387.0547,286,391.0547,276,395.0547,280,391.0547" style="stroke: #A80036; stroke-width: 1.0;"/><line style="stroke: #A80036; stroke-width: 1.0;" x1="3" x2="282" y1="391.0547" y2="391.0547"/><text fill="#000000" font-family="sans-serif" font-size="13" lengthAdjust="spacingAndGlyphs" textLength="266" x="10" y="385.9888">login(BranchOfficeWrapper, String, String)</text><polygon fill="#A80036" points="572,416.1875,582,420.1875,572,424.1875,576,420.1875" style="stroke: #A80036; stroke-width: 1.0;"/><line style="stroke: #A80036; stroke-width: 1.0;" x1="298" x2="578" y1="420.1875" y2="420.1875"/><text fill="#000000" font-family="sans-serif" font-size="13" lengthAdjust="spacingAndGlyphs" textLength="267" x="305" y="415.1216">changeCurrentBranchOffice(BranchOffice)</text><polygon fill="#A80036" points="723,475.3203,733,479.3203,723,483.3203,727,479.3203" style="stroke: #A80036; stroke-width: 1.0;"/><line style="stroke: #A80036; stroke-width: 1.0;" x1="298" x2="729" y1="479.3203" y2="479.3203"/><text fill="#000000" font-family="sans-serif" font-size="13" lengthAdjust="spacingAndGlyphs" textLength="117" x="305" y="474.2544">getUserManager()</text><polygon fill="#A80036" points="309,504.4531,299,508.4531,309,512.4531,305,508.4531" style="stroke: #A80036; stroke-width: 1.0;"/><line style="stroke: #A80036; stroke-width: 1.0; stroke-dasharray: 2.0,2.0;" x1="303" x2="739" y1="508.4531" y2="508.4531"/><text fill="#000000" font-family="sans-serif" font-size="13" lengthAdjust="spacingAndGlyphs" textLength="86" x="315" y="503.3872">UserManager</text><polygon fill="#A80036" points="968.5,533.5859,978.5,537.5859,968.5,541.5859,972.5,537.5859" style="stroke: #A80036; stroke-width: 1.0;"/><line style="stroke: #A80036; stroke-width: 1.0;" x1="298" x2="974.5" y1="537.5859" y2="537.5859"/><text fill="#000000" font-family="sans-serif" font-size="13" lengthAdjust="spacingAndGlyphs" textLength="124" x="305" y="532.52">login(String, String)</text><!--
@startuml
title "Use Case - Office Login"


-> ":Controller": getBranchOffices()
activate ":Controller"

":Controller" -> ":BranchOfficeManager": getBranchOffices()
activate ":BranchOfficeManager"
":Controller" <- - ":BranchOfficeManager": List<BranchOffice>
deactivate ":BranchOfficeManager"

<- - ":Controller": List<BranchOfficeWrapper>
deactivate ":Controller"


-> ":Controller": getUsers(BranchOfficeWrapper)
activate ":Controller"

":Controller" -> ":BranchOffice": getUserManager()
activate ":BranchOffice"
":Controller" <- - ":BranchOffice": UserManager
deactivate ":BranchOffice"

":Controller" -> ":UserManager": getUsers()
activate ":UserManager"
":Controller" <- - ":UserManager": List<User>
deactivate ":UserManager"

<- - ":Controller": List<UserWrapper>
deactivate ":Controller"


-> ":Controller": login(BranchOfficeWrapper, String, String)
activate ":Controller"

":Controller" -> ":BranchOfficeManager": changeCurrentBranchOffice(BranchOffice)
activate ":BranchOfficeManager"
deactivate ":BranchOfficeManager"

":Controller" -> ":BranchOffice": getUserManager()
activate ":BranchOffice"
":Controller" <- - ":BranchOffice": UserManager
deactivate ":BranchOffice"

":Controller" -> ":UserManage": login(String, String)
activate ":UserManage"
deactivate ":UserManage"

deactivate ":Controller"
@enduml

PlantUML version 1.2018.06(Mon May 21 10:34:53 UTC 2018)
(GPL source distribution)
Java Runtime: Java(TM) SE Runtime Environment
JVM: Java HotSpot(TM) 64-Bit Server VM
Java Version: 1.7.0_25-b15
Operating System: Linux
Default Encoding: UTF-8
Language: en
Country: US
--></g></svg>