<?xml version="1.0" encoding="UTF-8" standalone="no"?><svg xmlns="http://www.w3.org/2000/svg" xmlns:xlink="http://www.w3.org/1999/xlink" contentScriptType="application/ecmascript" contentStyleType="text/css" height="1096px" preserveAspectRatio="none" style="width:1352px;height:1096px;" version="1.1" viewBox="0 0 1352 1096" width="1352px" zoomAndPan="magnify"><defs><filter height="300%" id="f19n6371ooh0qc" width="300%" x="-1" y="-1"><feGaussianBlur result="blurOut" stdDeviation="2.0"/><feColorMatrix in="blurOut" result="blurOut2" type="matrix" values="0 0 0 0 0 0 0 0 0 0 0 0 0 0 0 0 0 0 .4 0"/><feOffset dx="4.0" dy="4.0" in="blurOut2" result="blurOut3"/><feBlend in="SourceGraphic" in2="blurOut3" mode="normal"/></filter></defs><g><text fill="#000000" font-family="sans-serif" font-size="14" font-weight="bold" lengthAdjust="spacingAndGlyphs" textLength="218" x="568" y="22.9951">"Use Case - Show Projects"</text><rect fill="#FFFFFF" filter="url(#f19n6371ooh0qc)" height="557.5234" style="stroke: #A80036; stroke-width: 1.0;" width="10" x="186" y="99.7266"/><rect fill="#FFFFFF" filter="url(#f19n6371ooh0qc)" height="351.5938" style="stroke: #A80036; stroke-width: 1.0;" width="10" x="186" y="686.3828"/><rect fill="#FFFFFF" filter="url(#f19n6371ooh0qc)" height="29.1328" style="stroke: #A80036; stroke-width: 1.0;" width="10" x="375" y="128.8594"/><rect fill="#FFFFFF" filter="url(#f19n6371ooh0qc)" height="29.1328" style="stroke: #A80036; stroke-width: 1.0;" width="10" x="375" y="715.5156"/><rect fill="#FFFFFF" filter="url(#f19n6371ooh0qc)" height="29.1328" style="stroke: #A80036; stroke-width: 1.0;" width="10" x="526" y="187.125"/><rect fill="#FFFFFF" filter="url(#f19n6371ooh0qc)" height="29.1328" style="stroke: #A80036; stroke-width: 1.0;" width="10" x="526" y="303.6563"/><rect fill="#FFFFFF" filter="url(#f19n6371ooh0qc)" height="29.1328" style="stroke: #A80036; stroke-width: 1.0;" width="10" x="526" y="773.7813"/><rect fill="#FFFFFF" filter="url(#f19n6371ooh0qc)" height="29.1328" style="stroke: #A80036; stroke-width: 1.0;" width="10" x="649" y="245.3906"/><rect fill="#FFFFFF" filter="url(#f19n6371ooh0qc)" height="29.1328" style="stroke: #A80036; stroke-width: 1.0;" width="10" x="649" y="832.0469"/><rect fill="#FFFFFF" filter="url(#f19n6371ooh0qc)" height="266.1953" style="stroke: #A80036; stroke-width: 1.0;" width="10" x="782" y="361.9219"/><rect fill="#FFFFFF" filter="url(#f19n6371ooh0qc)" height="176.7969" style="stroke: #A80036; stroke-width: 1.0;" width="10" x="934" y="415.1875"/><rect fill="#FFFFFF" filter="url(#f19n6371ooh0qc)" height="118.5313" style="stroke: #A80036; stroke-width: 1.0;" width="10" x="934" y="890.3125"/><rect fill="#FFFFFF" filter="url(#f19n6371ooh0qc)" height="87.3984" style="stroke: #A80036; stroke-width: 1.0;" width="10" x="1086" y="468.4531"/><rect fill="#FFFFFF" filter="url(#f19n6371ooh0qc)" height="29.1328" style="stroke: #A80036; stroke-width: 1.0;" width="10" x="1086" y="943.5781"/><rect fill="#FFFFFF" filter="url(#f19n6371ooh0qc)" height="29.1328" style="stroke: #A80036; stroke-width: 1.0;" width="10" x="1290" y="497.5859"/><rect fill="#FFFFFF" filter="url(#f19n6371ooh0qc)" height="223.0625" style="stroke: #000000; stroke-width: 2.0;" width="629.5" x="711.5" y="376.9219"/><rect fill="#FFFFFF" filter="url(#f19n6371ooh0qc)" height="133.6641" style="stroke: #000000; stroke-width: 2.0;" width="437.5" x="893.5" y="430.1875"/><rect fill="#FFFFFF" filter="url(#f19n6371ooh0qc)" height="75.3984" style="stroke: #000000; stroke-width: 2.0;" width="235.5" x="893.5" y="905.3125"/><line style="stroke: #A80036; stroke-width: 1.0; stroke-dasharray: 5.0,5.0;" x1="191" x2="191" y1="68.5938" y2="1055.9766"/><line style="stroke: #A80036; stroke-width: 1.0; stroke-dasharray: 5.0,5.0;" x1="379.5" x2="379.5" y1="68.5938" y2="1055.9766"/><line style="stroke: #A80036; stroke-width: 1.0; stroke-dasharray: 5.0,5.0;" x1="530.5" x2="530.5" y1="68.5938" y2="1055.9766"/><line style="stroke: #A80036; stroke-width: 1.0; stroke-dasharray: 5.0,5.0;" x1="653.5" x2="653.5" y1="68.5938" y2="1055.9766"/><line style="stroke: #A80036; stroke-width: 1.0; stroke-dasharray: 5.0,5.0;" x1="786.5" x2="786.5" y1="68.5938" y2="1055.9766"/><line style="stroke: #A80036; stroke-width: 1.0; stroke-dasharray: 5.0,5.0;" x1="938.5" x2="938.5" y1="68.5938" y2="1055.9766"/><line style="stroke: #A80036; stroke-width: 1.0; stroke-dasharray: 5.0,5.0;" x1="1091" x2="1091" y1="68.5938" y2="1055.9766"/><line style="stroke: #A80036; stroke-width: 1.0; stroke-dasharray: 5.0,5.0;" x1="1295" x2="1295" y1="68.5938" y2="1055.9766"/><rect fill="#FEFECE" filter="url(#f19n6371ooh0qc)" height="30.2969" style="stroke: #A80036; stroke-width: 1.5;" width="86" x="146" y="33.2969"/><text fill="#000000" font-family="sans-serif" font-size="14" lengthAdjust="spacingAndGlyphs" textLength="72" x="153" y="53.292">:Controller</text><rect fill="#FEFECE" filter="url(#f19n6371ooh0qc)" height="30.2969" style="stroke: #A80036; stroke-width: 1.5;" width="86" x="146" y="1054.9766"/><text fill="#000000" font-family="sans-serif" font-size="14" lengthAdjust="spacingAndGlyphs" textLength="72" x="153" y="1074.9717">:Controller</text><rect fill="#FEFECE" filter="url(#f19n6371ooh0qc)" height="30.2969" style="stroke: #A80036; stroke-width: 1.5;" width="167" x="294.5" y="33.2969"/><text fill="#000000" font-family="sans-serif" font-size="14" lengthAdjust="spacingAndGlyphs" textLength="153" x="301.5" y="53.292">:BranchOfficeManager</text><rect fill="#FEFECE" filter="url(#f19n6371ooh0qc)" height="30.2969" style="stroke: #A80036; stroke-width: 1.5;" width="167" x="294.5" y="1054.9766"/><text fill="#000000" font-family="sans-serif" font-size="14" lengthAdjust="spacingAndGlyphs" textLength="153" x="301.5" y="1074.9717">:BranchOfficeManager</text><rect fill="#FEFECE" filter="url(#f19n6371ooh0qc)" height="30.2969" style="stroke: #A80036; stroke-width: 1.5;" width="107" x="475.5" y="33.2969"/><text fill="#000000" font-family="sans-serif" font-size="14" lengthAdjust="spacingAndGlyphs" textLength="93" x="482.5" y="53.292">:BranchOffice</text><rect fill="#FEFECE" filter="url(#f19n6371ooh0qc)" height="30.2969" style="stroke: #A80036; stroke-width: 1.5;" width="107" x="475.5" y="1054.9766"/><text fill="#000000" font-family="sans-serif" font-size="14" lengthAdjust="spacingAndGlyphs" textLength="93" x="482.5" y="1074.9717">:BranchOffice</text><rect fill="#FEFECE" filter="url(#f19n6371ooh0qc)" height="30.2969" style="stroke: #A80036; stroke-width: 1.5;" width="111" x="596.5" y="33.2969"/><text fill="#000000" font-family="sans-serif" font-size="14" lengthAdjust="spacingAndGlyphs" textLength="97" x="603.5" y="53.292">:UserManager</text><rect fill="#FEFECE" filter="url(#f19n6371ooh0qc)" height="30.2969" style="stroke: #A80036; stroke-width: 1.5;" width="111" x="596.5" y="1054.9766"/><text fill="#000000" font-family="sans-serif" font-size="14" lengthAdjust="spacingAndGlyphs" textLength="97" x="603.5" y="1074.9717">:UserManager</text><rect fill="#FEFECE" filter="url(#f19n6371ooh0qc)" height="30.2969" style="stroke: #A80036; stroke-width: 1.5;" width="127" x="721.5" y="33.2969"/><text fill="#000000" font-family="sans-serif" font-size="14" lengthAdjust="spacingAndGlyphs" textLength="113" x="728.5" y="53.292">:ProjectManager</text><rect fill="#FEFECE" filter="url(#f19n6371ooh0qc)" height="30.2969" style="stroke: #A80036; stroke-width: 1.5;" width="127" x="721.5" y="1054.9766"/><text fill="#000000" font-family="sans-serif" font-size="14" lengthAdjust="spacingAndGlyphs" textLength="113" x="728.5" y="1074.9717">:ProjectManager</text><rect fill="#FEFECE" filter="url(#f19n6371ooh0qc)" height="30.2969" style="stroke: #A80036; stroke-width: 1.5;" width="67" x="903.5" y="33.2969"/><text fill="#000000" font-family="sans-serif" font-size="14" lengthAdjust="spacingAndGlyphs" textLength="53" x="910.5" y="53.292">:Project</text><rect fill="#FEFECE" filter="url(#f19n6371ooh0qc)" height="30.2969" style="stroke: #A80036; stroke-width: 1.5;" width="67" x="903.5" y="1054.9766"/><text fill="#000000" font-family="sans-serif" font-size="14" lengthAdjust="spacingAndGlyphs" textLength="53" x="910.5" y="1074.9717">:Project</text><rect fill="#FEFECE" filter="url(#f19n6371ooh0qc)" height="30.2969" style="stroke: #A80036; stroke-width: 1.5;" width="52" x="1063" y="33.2969"/><text fill="#000000" font-family="sans-serif" font-size="14" lengthAdjust="spacingAndGlyphs" textLength="38" x="1070" y="53.292">:Task</text><rect fill="#FEFECE" filter="url(#f19n6371ooh0qc)" height="30.2969" style="stroke: #A80036; stroke-width: 1.5;" width="52" x="1063" y="1054.9766"/><text fill="#000000" font-family="sans-serif" font-size="14" lengthAdjust="spacingAndGlyphs" textLength="38" x="1070" y="1074.9717">:Task</text><rect fill="#FEFECE" filter="url(#f19n6371ooh0qc)" height="30.2969" style="stroke: #A80036; stroke-width: 1.5;" width="48" x="1269" y="33.2969"/><text fill="#000000" font-family="sans-serif" font-size="14" lengthAdjust="spacingAndGlyphs" textLength="34" x="1276" y="53.292">:Plan</text><rect fill="#FEFECE" filter="url(#f19n6371ooh0qc)" height="30.2969" style="stroke: #A80036; stroke-width: 1.5;" width="48" x="1269" y="1054.9766"/><text fill="#000000" font-family="sans-serif" font-size="14" lengthAdjust="spacingAndGlyphs" textLength="34" x="1276" y="1074.9717">:Plan</text><rect fill="#FFFFFF" filter="url(#f19n6371ooh0qc)" height="557.5234" style="stroke: #A80036; stroke-width: 1.0;" width="10" x="186" y="99.7266"/><rect fill="#FFFFFF" filter="url(#f19n6371ooh0qc)" height="351.5938" style="stroke: #A80036; stroke-width: 1.0;" width="10" x="186" y="686.3828"/><rect fill="#FFFFFF" filter="url(#f19n6371ooh0qc)" height="29.1328" style="stroke: #A80036; stroke-width: 1.0;" width="10" x="375" y="128.8594"/><rect fill="#FFFFFF" filter="url(#f19n6371ooh0qc)" height="29.1328" style="stroke: #A80036; stroke-width: 1.0;" width="10" x="375" y="715.5156"/><rect fill="#FFFFFF" filter="url(#f19n6371ooh0qc)" height="29.1328" style="stroke: #A80036; stroke-width: 1.0;" width="10" x="526" y="187.125"/><rect fill="#FFFFFF" filter="url(#f19n6371ooh0qc)" height="29.1328" style="stroke: #A80036; stroke-width: 1.0;" width="10" x="526" y="303.6563"/><rect fill="#FFFFFF" filter="url(#f19n6371ooh0qc)" height="29.1328" style="stroke: #A80036; stroke-width: 1.0;" width="10" x="526" y="773.7813"/><rect fill="#FFFFFF" filter="url(#f19n6371ooh0qc)" height="29.1328" style="stroke: #A80036; stroke-width: 1.0;" width="10" x="649" y="245.3906"/><rect fill="#FFFFFF" filter="url(#f19n6371ooh0qc)" height="29.1328" style="stroke: #A80036; stroke-width: 1.0;" width="10" x="649" y="832.0469"/><rect fill="#FFFFFF" filter="url(#f19n6371ooh0qc)" height="266.1953" style="stroke: #A80036; stroke-width: 1.0;" width="10" x="782" y="361.9219"/><rect fill="#FFFFFF" filter="url(#f19n6371ooh0qc)" height="176.7969" style="stroke: #A80036; stroke-width: 1.0;" width="10" x="934" y="415.1875"/><rect fill="#FFFFFF" filter="url(#f19n6371ooh0qc)" height="118.5313" style="stroke: #A80036; stroke-width: 1.0;" width="10" x="934" y="890.3125"/><rect fill="#FFFFFF" filter="url(#f19n6371ooh0qc)" height="87.3984" style="stroke: #A80036; stroke-width: 1.0;" width="10" x="1086" y="468.4531"/><rect fill="#FFFFFF" filter="url(#f19n6371ooh0qc)" height="29.1328" style="stroke: #A80036; stroke-width: 1.0;" width="10" x="1086" y="943.5781"/><rect fill="#FFFFFF" filter="url(#f19n6371ooh0qc)" height="29.1328" style="stroke: #A80036; stroke-width: 1.0;" width="10" x="1290" y="497.5859"/><polygon fill="#A80036" points="174,95.7266,184,99.7266,174,103.7266,178,99.7266" style="stroke: #A80036; stroke-width: 1.0;"/><line style="stroke: #A80036; stroke-width: 1.0;" x1="3" x2="180" y1="99.7266" y2="99.7266"/><text fill="#000000" font-family="sans-serif" font-size="13" lengthAdjust="spacingAndGlyphs" textLength="82" x="10" y="94.6606">getProjects()</text><polygon fill="#A80036" points="363,124.8594,373,128.8594,363,132.8594,367,128.8594" style="stroke: #A80036; stroke-width: 1.0;"/><line style="stroke: #A80036; stroke-width: 1.0;" x1="196" x2="369" y1="128.8594" y2="128.8594"/><text fill="#000000" font-family="sans-serif" font-size="13" lengthAdjust="spacingAndGlyphs" textLength="160" x="203" y="123.7935">getCurrentBranchOffice()</text><polygon fill="#A80036" points="207,153.9922,197,157.9922,207,161.9922,203,157.9922" style="stroke: #A80036; stroke-width: 1.0;"/><line style="stroke: #A80036; stroke-width: 1.0; stroke-dasharray: 2.0,2.0;" x1="201" x2="379" y1="157.9922" y2="157.9922"/><text fill="#000000" font-family="sans-serif" font-size="13" lengthAdjust="spacingAndGlyphs" textLength="81" x="213" y="152.9263">BranchOffice</text><polygon fill="#A80036" points="514,183.125,524,187.125,514,191.125,518,187.125" style="stroke: #A80036; stroke-width: 1.0;"/><line style="stroke: #A80036; stroke-width: 1.0;" x1="196" x2="520" y1="187.125" y2="187.125"/><text fill="#000000" font-family="sans-serif" font-size="13" lengthAdjust="spacingAndGlyphs" textLength="117" x="203" y="182.0591">getUserManager()</text><polygon fill="#A80036" points="207,212.2578,197,216.2578,207,220.2578,203,216.2578" style="stroke: #A80036; stroke-width: 1.0;"/><line style="stroke: #A80036; stroke-width: 1.0; stroke-dasharray: 2.0,2.0;" x1="201" x2="530" y1="216.2578" y2="216.2578"/><text fill="#000000" font-family="sans-serif" font-size="13" lengthAdjust="spacingAndGlyphs" textLength="86" x="213" y="211.1919">UserManager</text><polygon fill="#A80036" points="637,241.3906,647,245.3906,637,249.3906,641,245.3906" style="stroke: #A80036; stroke-width: 1.0;"/><line style="stroke: #A80036; stroke-width: 1.0;" x1="196" x2="643" y1="245.3906" y2="245.3906"/><text fill="#000000" font-family="sans-serif" font-size="13" lengthAdjust="spacingAndGlyphs" textLength="109" x="203" y="240.3247">getCurrentUser()</text><polygon fill="#A80036" points="207,270.5234,197,274.5234,207,278.5234,203,274.5234" style="stroke: #A80036; stroke-width: 1.0;"/><line style="stroke: #A80036; stroke-width: 1.0; stroke-dasharray: 2.0,2.0;" x1="201" x2="653" y1="274.5234" y2="274.5234"/><text fill="#000000" font-family="sans-serif" font-size="13" lengthAdjust="spacingAndGlyphs" textLength="30" x="213" y="269.4575">User</text><polygon fill="#A80036" points="514,299.6563,524,303.6563,514,307.6563,518,303.6563" style="stroke: #A80036; stroke-width: 1.0;"/><line style="stroke: #A80036; stroke-width: 1.0;" x1="196" x2="520" y1="303.6563" y2="303.6563"/><text fill="#000000" font-family="sans-serif" font-size="13" lengthAdjust="spacingAndGlyphs" textLength="131" x="203" y="298.5903">getProjectManager()</text><polygon fill="#A80036" points="207,328.7891,197,332.7891,207,336.7891,203,332.7891" style="stroke: #A80036; stroke-width: 1.0;"/><line style="stroke: #A80036; stroke-width: 1.0; stroke-dasharray: 2.0,2.0;" x1="201" x2="530" y1="332.7891" y2="332.7891"/><text fill="#000000" font-family="sans-serif" font-size="13" lengthAdjust="spacingAndGlyphs" textLength="100" x="213" y="327.7231">ProjectManager</text><polygon fill="#A80036" points="770,357.9219,780,361.9219,770,365.9219,774,361.9219" style="stroke: #A80036; stroke-width: 1.0;"/><line style="stroke: #A80036; stroke-width: 1.0;" x1="196" x2="776" y1="361.9219" y2="361.9219"/><text fill="#000000" font-family="sans-serif" font-size="13" lengthAdjust="spacingAndGlyphs" textLength="112" x="203" y="356.856">getProjects(User)</text><path d="M711.5,376.9219 L788.5,376.9219 L788.5,383.9219 L778.5,393.9219 L711.5,393.9219 L711.5,376.9219 " fill="#EEEEEE" style="stroke: #000000; stroke-width: 1.0;"/><rect fill="none" height="223.0625" style="stroke: #000000; stroke-width: 2.0;" width="629.5" x="711.5" y="376.9219"/><text fill="#000000" font-family="sans-serif" font-size="13" font-weight="bold" lengthAdjust="spacingAndGlyphs" textLength="32" x="726.5" y="389.9888">loop</text><text fill="#000000" font-family="sans-serif" font-size="11" font-weight="bold" lengthAdjust="spacingAndGlyphs" textLength="94" x="803.5" y="389.1323">[over projects]</text><polygon fill="#A80036" points="922,411.1875,932,415.1875,922,419.1875,926,415.1875" style="stroke: #A80036; stroke-width: 1.0;"/><line style="stroke: #A80036; stroke-width: 1.0;" x1="792" x2="928" y1="415.1875" y2="415.1875"/><text fill="#000000" font-family="sans-serif" font-size="13" lengthAdjust="spacingAndGlyphs" textLength="123" x="799" y="410.1216">hasAccessTo(User)</text><path d="M893.5,430.1875 L970.5,430.1875 L970.5,437.1875 L960.5,447.1875 L893.5,447.1875 L893.5,430.1875 " fill="#EEEEEE" style="stroke: #000000; stroke-width: 1.0;"/><rect fill="none" height="133.6641" style="stroke: #000000; stroke-width: 2.0;" width="437.5" x="893.5" y="430.1875"/><text fill="#000000" font-family="sans-serif" font-size="13" font-weight="bold" lengthAdjust="spacingAndGlyphs" textLength="32" x="908.5" y="443.2544">loop</text><text fill="#000000" font-family="sans-serif" font-size="11" font-weight="bold" lengthAdjust="spacingAndGlyphs" textLength="76" x="985.5" y="442.3979">[over tasks]</text><polygon fill="#A80036" points="1074,464.4531,1084,468.4531,1074,472.4531,1078,468.4531" style="stroke: #A80036; stroke-width: 1.0;"/><line style="stroke: #A80036; stroke-width: 1.0;" x1="944" x2="1080" y1="468.4531" y2="468.4531"/><text fill="#000000" font-family="sans-serif" font-size="13" lengthAdjust="spacingAndGlyphs" textLength="123" x="951" y="463.3872">hasAccessTo(User)</text><polygon fill="#A80036" points="1278,493.5859,1288,497.5859,1278,501.5859,1282,497.5859" style="stroke: #A80036; stroke-width: 1.0;"/><line style="stroke: #A80036; stroke-width: 1.0;" x1="1096" x2="1284" y1="497.5859" y2="497.5859"/><text fill="#000000" font-family="sans-serif" font-size="13" lengthAdjust="spacingAndGlyphs" textLength="175" x="1103" y="492.52">isDeveloperFromPlan(User)</text><polygon fill="#A80036" points="1107,522.7188,1097,526.7188,1107,530.7188,1103,526.7188" style="stroke: #A80036; stroke-width: 1.0;"/><line style="stroke: #A80036; stroke-width: 1.0; stroke-dasharray: 2.0,2.0;" x1="1101" x2="1294" y1="526.7188" y2="526.7188"/><text fill="#000000" font-family="sans-serif" font-size="13" lengthAdjust="spacingAndGlyphs" textLength="51" x="1113" y="521.6528">boolean</text><polygon fill="#A80036" points="955,551.8516,945,555.8516,955,559.8516,951,555.8516" style="stroke: #A80036; stroke-width: 1.0;"/><line style="stroke: #A80036; stroke-width: 1.0; stroke-dasharray: 2.0,2.0;" x1="949" x2="1090" y1="555.8516" y2="555.8516"/><text fill="#000000" font-family="sans-serif" font-size="13" lengthAdjust="spacingAndGlyphs" textLength="51" x="961" y="550.7856">boolean</text><polygon fill="#A80036" points="803,587.9844,793,591.9844,803,595.9844,799,591.9844" style="stroke: #A80036; stroke-width: 1.0;"/><line style="stroke: #A80036; stroke-width: 1.0; stroke-dasharray: 2.0,2.0;" x1="797" x2="938" y1="591.9844" y2="591.9844"/><text fill="#000000" font-family="sans-serif" font-size="13" lengthAdjust="spacingAndGlyphs" textLength="51" x="809" y="586.9185">boolean</text><polygon fill="#A80036" points="207,624.1172,197,628.1172,207,632.1172,203,628.1172" style="stroke: #A80036; stroke-width: 1.0;"/><line style="stroke: #A80036; stroke-width: 1.0; stroke-dasharray: 2.0,2.0;" x1="201" x2="786" y1="628.1172" y2="628.1172"/><text fill="#000000" font-family="sans-serif" font-size="13" lengthAdjust="spacingAndGlyphs" textLength="88" x="213" y="623.0513">List&lt;Project&gt;</text><polygon fill="#A80036" points="14,653.25,4,657.25,14,661.25,10,657.25" style="stroke: #A80036; stroke-width: 1.0;"/><line style="stroke: #A80036; stroke-width: 1.0; stroke-dasharray: 2.0,2.0;" x1="8" x2="190" y1="657.25" y2="657.25"/><text fill="#000000" font-family="sans-serif" font-size="13" lengthAdjust="spacingAndGlyphs" textLength="141" x="20" y="652.1841">List&lt;ProjectWrapper&gt;</text><polygon fill="#A80036" points="174,682.3828,184,686.3828,174,690.3828,178,686.3828" style="stroke: #A80036; stroke-width: 1.0;"/><line style="stroke: #A80036; stroke-width: 1.0;" x1="3" x2="180" y1="686.3828" y2="686.3828"/><text fill="#000000" font-family="sans-serif" font-size="13" lengthAdjust="spacingAndGlyphs" textLength="164" x="10" y="681.3169">getTasks(ProjectWrapper)</text><polygon fill="#A80036" points="363,711.5156,373,715.5156,363,719.5156,367,715.5156" style="stroke: #A80036; stroke-width: 1.0;"/><line style="stroke: #A80036; stroke-width: 1.0;" x1="196" x2="369" y1="715.5156" y2="715.5156"/><text fill="#000000" font-family="sans-serif" font-size="13" lengthAdjust="spacingAndGlyphs" textLength="160" x="203" y="710.4497">getCurrentBranchOffice()</text><polygon fill="#A80036" points="207,740.6484,197,744.6484,207,748.6484,203,744.6484" style="stroke: #A80036; stroke-width: 1.0;"/><line style="stroke: #A80036; stroke-width: 1.0; stroke-dasharray: 2.0,2.0;" x1="201" x2="379" y1="744.6484" y2="744.6484"/><text fill="#000000" font-family="sans-serif" font-size="13" lengthAdjust="spacingAndGlyphs" textLength="81" x="213" y="739.5825">BranchOffice</text><polygon fill="#A80036" points="514,769.7813,524,773.7813,514,777.7813,518,773.7813" style="stroke: #A80036; stroke-width: 1.0;"/><line style="stroke: #A80036; stroke-width: 1.0;" x1="196" x2="520" y1="773.7813" y2="773.7813"/><text fill="#000000" font-family="sans-serif" font-size="13" lengthAdjust="spacingAndGlyphs" textLength="117" x="203" y="768.7153">getUserManager()</text><polygon fill="#A80036" points="207,798.9141,197,802.9141,207,806.9141,203,802.9141" style="stroke: #A80036; stroke-width: 1.0;"/><line style="stroke: #A80036; stroke-width: 1.0; stroke-dasharray: 2.0,2.0;" x1="201" x2="530" y1="802.9141" y2="802.9141"/><text fill="#000000" font-family="sans-serif" font-size="13" lengthAdjust="spacingAndGlyphs" textLength="86" x="213" y="797.8481">UserManager</text><polygon fill="#A80036" points="637,828.0469,647,832.0469,637,836.0469,641,832.0469" style="stroke: #A80036; stroke-width: 1.0;"/><line style="stroke: #A80036; stroke-width: 1.0;" x1="196" x2="643" y1="832.0469" y2="832.0469"/><text fill="#000000" font-family="sans-serif" font-size="13" lengthAdjust="spacingAndGlyphs" textLength="109" x="203" y="826.981">getCurrentUser()</text><polygon fill="#A80036" points="207,857.1797,197,861.1797,207,865.1797,203,861.1797" style="stroke: #A80036; stroke-width: 1.0;"/><line style="stroke: #A80036; stroke-width: 1.0; stroke-dasharray: 2.0,2.0;" x1="201" x2="653" y1="861.1797" y2="861.1797"/><text fill="#000000" font-family="sans-serif" font-size="13" lengthAdjust="spacingAndGlyphs" textLength="30" x="213" y="856.1138">User</text><polygon fill="#A80036" points="922,886.3125,932,890.3125,922,894.3125,926,890.3125" style="stroke: #A80036; stroke-width: 1.0;"/><line style="stroke: #A80036; stroke-width: 1.0;" x1="196" x2="928" y1="890.3125" y2="890.3125"/><text fill="#000000" font-family="sans-serif" font-size="13" lengthAdjust="spacingAndGlyphs" textLength="97" x="203" y="885.2466">getTasks(User)</text><path d="M893.5,905.3125 L970.5,905.3125 L970.5,912.3125 L960.5,922.3125 L893.5,922.3125 L893.5,905.3125 " fill="#EEEEEE" style="stroke: #000000; stroke-width: 1.0;"/><rect fill="none" height="75.3984" style="stroke: #000000; stroke-width: 2.0;" width="235.5" x="893.5" y="905.3125"/><text fill="#000000" font-family="sans-serif" font-size="13" font-weight="bold" lengthAdjust="spacingAndGlyphs" textLength="32" x="908.5" y="918.3794">loop</text><text fill="#000000" font-family="sans-serif" font-size="11" font-weight="bold" lengthAdjust="spacingAndGlyphs" textLength="76" x="985.5" y="917.5229">[over tasks]</text><polygon fill="#A80036" points="1074,939.5781,1084,943.5781,1074,947.5781,1078,943.5781" style="stroke: #A80036; stroke-width: 1.0;"/><line style="stroke: #A80036; stroke-width: 1.0;" x1="944" x2="1080" y1="943.5781" y2="943.5781"/><text fill="#000000" font-family="sans-serif" font-size="13" lengthAdjust="spacingAndGlyphs" textLength="123" x="951" y="938.5122">hasAccessTo(User)</text><polygon fill="#A80036" points="955,968.7109,945,972.7109,955,976.7109,951,972.7109" style="stroke: #A80036; stroke-width: 1.0;"/><line style="stroke: #A80036; stroke-width: 1.0; stroke-dasharray: 2.0,2.0;" x1="949" x2="1090" y1="972.7109" y2="972.7109"/><text fill="#000000" font-family="sans-serif" font-size="13" lengthAdjust="spacingAndGlyphs" textLength="51" x="961" y="967.645">boolean</text><polygon fill="#A80036" points="207,1004.8438,197,1008.8438,207,1012.8438,203,1008.8438" style="stroke: #A80036; stroke-width: 1.0;"/><line style="stroke: #A80036; stroke-width: 1.0; stroke-dasharray: 2.0,2.0;" x1="201" x2="938" y1="1008.8438" y2="1008.8438"/><text fill="#000000" font-family="sans-serif" font-size="13" lengthAdjust="spacingAndGlyphs" textLength="73" x="213" y="1003.7778">List&lt;Task&gt;</text><polygon fill="#A80036" points="14,1033.9766,4,1037.9766,14,1041.9766,10,1037.9766" style="stroke: #A80036; stroke-width: 1.0;"/><line style="stroke: #A80036; stroke-width: 1.0; stroke-dasharray: 2.0,2.0;" x1="8" x2="190" y1="1037.9766" y2="1037.9766"/><text fill="#000000" font-family="sans-serif" font-size="13" lengthAdjust="spacingAndGlyphs" textLength="126" x="20" y="1032.9106">List&lt;TaskWrapper&gt;</text><!--
@startuml
title "Use Case - Show Projects"

-> ":Controller": getProjects()
activate ":Controller"

":Controller" -> ":BranchOfficeManager": getCurrentBranchOffice()
activate ":BranchOfficeManager"
":Controller" <- - ":BranchOfficeManager": BranchOffice
deactivate ":BranchOfficeManager"

":Controller" -> ":BranchOffice": getUserManager()
activate ":BranchOffice"
":Controller" <- - ":BranchOffice": UserManager
deactivate ":BranchOffice"

":Controller" -> ":UserManager": getCurrentUser()
activate ":UserManager"
":Controller" <- - ":UserManager": User
deactivate ":UserManager"

":Controller" -> ":BranchOffice": getProjectManager()
activate ":BranchOffice"
":Controller" <- - ":BranchOffice": ProjectManager
deactivate ":BranchOffice"

":Controller" -> ":ProjectManager" : getProjects(User)
activate ":ProjectManager"

loop over projects
    ":ProjectManager" -> ":Project" : hasAccessTo(User)
    activate ":Project"

    loop over tasks
        ":Project" -> ":Task" : hasAccessTo(User)
        activate ":Task"

        ":Task" -> ":Plan" : isDeveloperFromPlan(User)
        activate ":Plan"

        ":Plan" - -> ":Task" : boolean
        deactivate ":Plan"

        ":Task" - -> ":Project" : boolean
        deactivate ":Task"

    end

    ":Project" - -> ":ProjectManager" : boolean
    deactivate ":Project"
end

":ProjectManager" - -> ":Controller" : List<Project>
deactivate ":ProjectManager"

<- - ":Controller" : List<ProjectWrapper>
deactivate ":Controller"




-> ":Controller": getTasks(ProjectWrapper)
activate ":Controller"

":Controller" -> ":BranchOfficeManager": getCurrentBranchOffice()
activate ":BranchOfficeManager"
":Controller" <- - ":BranchOfficeManager": BranchOffice
deactivate ":BranchOfficeManager"

":Controller" -> ":BranchOffice": getUserManager()
activate ":BranchOffice"
":Controller" <- - ":BranchOffice": UserManager
deactivate ":BranchOffice"

":Controller" -> ":UserManager": getCurrentUser()
activate ":UserManager"
":Controller" <- - ":UserManager": User
deactivate ":UserManager"

":Controller" -> ":Project" : getTasks(User)
activate ":Project"
loop over tasks
    ":Project" -> ":Task" : hasAccessTo(User)
    activate ":Task"


    ":Task" - -> ":Project" : boolean
    deactivate ":Task"

end

":Project" - -> ":Controller" : List<Task>
deactivate ":Project"

<- - ":Controller" : List<TaskWrapper>
deactivate ":Controller"
@enduml

PlantUML version 1.2018.06(Mon May 21 10:34:53 UTC 2018)
(GPL source distribution)
Java Runtime: Java(TM) SE Runtime Environment
JVM: Java HotSpot(TM) 64-Bit Server VM
Java Version: 1.7.0_25-b15
Operating System: Linux
Default Encoding: UTF-8
Language: en
Country: US
--></g></svg>