<?xml version="1.0" encoding="UTF-8" standalone="no"?><svg xmlns="http://www.w3.org/2000/svg" xmlns:xlink="http://www.w3.org/1999/xlink" contentScriptType="application/ecmascript" contentStyleType="text/css" height="1331px" preserveAspectRatio="none" style="width:2182px;height:1331px;" version="1.1" viewBox="0 0 2182 1331" width="2182px" zoomAndPan="magnify"><defs><filter height="300%" id="f170aadg5vuvdg" width="300%" x="-1" y="-1"><feGaussianBlur result="blurOut" stdDeviation="2.0"/><feColorMatrix in="blurOut" result="blurOut2" type="matrix" values="0 0 0 0 0 0 0 0 0 0 0 0 0 0 0 0 0 0 .4 0"/><feOffset dx="4.0" dy="4.0" in="blurOut2" result="blurOut3"/><feBlend in="SourceGraphic" in2="blurOut3" mode="normal"/></filter></defs><g><text fill="#000000" font-family="sans-serif" font-size="14" font-weight="bold" lengthAdjust="spacingAndGlyphs" textLength="244" x="969.75" y="22.9951">"Use Case - Delegating a Task"</text><rect fill="#FFFFFF" filter="url(#f170aadg5vuvdg)" height="1173.3125" style="stroke: #A80036; stroke-width: 1.0;" width="10" x="235" y="99.7266"/><rect fill="#FFFFFF" filter="url(#f170aadg5vuvdg)" height="266.1953" style="stroke: #A80036; stroke-width: 1.0;" width="10" x="410" y="128.8594"/><rect fill="#FFFFFF" filter="url(#f170aadg5vuvdg)" height="351.5938" style="stroke: #A80036; stroke-width: 1.0;" width="10" x="410" y="863.1797"/><rect fill="#FFFFFF" filter="url(#f170aadg5vuvdg)" height="176.7969" style="stroke: #A80036; stroke-width: 1.0;" width="10" x="812" y="182.125"/><rect fill="#FFFFFF" filter="url(#f170aadg5vuvdg)" height="176.7969" style="stroke: #A80036; stroke-width: 1.0;" width="10" x="812" y="424.1875"/><rect fill="#FFFFFF" filter="url(#f170aadg5vuvdg)" height="29.1328" style="stroke: #A80036; stroke-width: 1.0;" width="10" x="812" y="892.3125"/><rect fill="#FFFFFF" filter="url(#f170aadg5vuvdg)" height="58.2656" style="stroke: #A80036; stroke-width: 1.0;" width="10" x="812" y="950.5781"/><rect fill="#FFFFFF" filter="url(#f170aadg5vuvdg)" height="29.1328" style="stroke: #A80036; stroke-width: 1.0;" width="10" x="812" y="1062.1094"/><rect fill="#FFFFFF" filter="url(#f170aadg5vuvdg)" height="87.3984" style="stroke: #A80036; stroke-width: 1.0;" width="10" x="964" y="235.3906"/><rect fill="#FFFFFF" filter="url(#f170aadg5vuvdg)" height="87.3984" style="stroke: #A80036; stroke-width: 1.0;" width="10" x="964" y="477.4531"/><rect fill="#FFFFFF" filter="url(#f170aadg5vuvdg)" height="555.5234" style="stroke: #A80036; stroke-width: 1.0;" width="10" x="964" y="717.5156"/><rect fill="#FFFFFF" filter="url(#f170aadg5vuvdg)" height="29.1328" style="stroke: #A80036; stroke-width: 1.0;" width="10" x="969" y="1120.375"/><rect fill="#FFFFFF" filter="url(#f170aadg5vuvdg)" height="29.1328" style="stroke: #A80036; stroke-width: 1.0;" width="10" x="1189" y="264.5234"/><rect fill="#FFFFFF" filter="url(#f170aadg5vuvdg)" height="29.1328" style="stroke: #A80036; stroke-width: 1.0;" width="10" x="1189" y="506.5859"/><rect fill="#FFFFFF" filter="url(#f170aadg5vuvdg)" height="29.1328" style="stroke: #A80036; stroke-width: 1.0;" width="10" x="1189" y="775.7813"/><rect fill="#FFFFFF" filter="url(#f170aadg5vuvdg)" height="29.1328" style="stroke: #A80036; stroke-width: 1.0;" width="10" x="1255.5" y="659.25"/><rect fill="#FFFFFF" filter="url(#f170aadg5vuvdg)" height="526.3906" style="stroke: #A80036; stroke-width: 1.0;" width="10" x="1342" y="746.6484"/><rect fill="#FFFFFF" filter="url(#f170aadg5vuvdg)" height="409.8594" style="stroke: #A80036; stroke-width: 1.0;" width="10" x="1977" y="834.0469"/><rect fill="#FFFFFF" filter="url(#f170aadg5vuvdg)" height="302.3281" style="stroke: #A80036; stroke-width: 1.0;" width="10" x="2106.5" y="979.7109"/><rect fill="#FFFFFF" filter="url(#f170aadg5vuvdg)" height="223.0625" style="stroke: #000000; stroke-width: 2.0;" width="900.5" x="339.5" y="143.8594"/><rect fill="#FFFFFF" filter="url(#f170aadg5vuvdg)" height="133.6641" style="stroke: #000000; stroke-width: 2.0;" width="458.5" x="771.5" y="197.125"/><rect fill="#FFFFFF" filter="url(#f170aadg5vuvdg)" height="133.6641" style="stroke: #000000; stroke-width: 2.0;" width="458.5" x="771.5" y="439.1875"/><rect fill="#FFFFFF" filter="url(#f170aadg5vuvdg)" height="162.7969" style="stroke: #000000; stroke-width: 2.0;" width="890.5" x="339.5" y="1023.8438"/><line style="stroke: #A80036; stroke-width: 1.0; stroke-dasharray: 5.0,5.0;" x1="240" x2="240" y1="68.5938" y2="1291.0391"/><line style="stroke: #A80036; stroke-width: 1.0; stroke-dasharray: 5.0,5.0;" x1="414.5" x2="414.5" y1="68.5938" y2="1291.0391"/><line style="stroke: #A80036; stroke-width: 1.0; stroke-dasharray: 5.0,5.0;" x1="816.5" x2="816.5" y1="68.5938" y2="1291.0391"/><line style="stroke: #A80036; stroke-width: 1.0; stroke-dasharray: 5.0,5.0;" x1="969" x2="969" y1="68.5938" y2="1291.0391"/><line style="stroke: #A80036; stroke-width: 1.0; stroke-dasharray: 5.0,5.0;" x1="1194" x2="1194" y1="68.5938" y2="1291.0391"/><line style="stroke: #A80036; stroke-width: 1.0; stroke-dasharray: 5.0,5.0;" x1="1260" x2="1260" y1="68.5938" y2="1291.0391"/><line style="stroke: #A80036; stroke-width: 1.0; stroke-dasharray: 5.0,5.0;" x1="1347" x2="1347" y1="68.5938" y2="1291.0391"/><line style="stroke: #A80036; stroke-width: 1.0; stroke-dasharray: 5.0,5.0;" x1="1981.5" x2="1981.5" y1="68.5938" y2="1291.0391"/><line style="stroke: #A80036; stroke-width: 1.0; stroke-dasharray: 5.0,5.0;" x1="2111.5" x2="2111.5" y1="68.5938" y2="1291.0391"/><rect fill="#FEFECE" filter="url(#f170aadg5vuvdg)" height="30.2969" style="stroke: #A80036; stroke-width: 1.5;" width="86" x="195" y="33.2969"/><text fill="#000000" font-family="sans-serif" font-size="14" lengthAdjust="spacingAndGlyphs" textLength="72" x="202" y="53.292">:Controller</text><rect fill="#FEFECE" filter="url(#f170aadg5vuvdg)" height="30.2969" style="stroke: #A80036; stroke-width: 1.5;" width="86" x="195" y="1290.0391"/><text fill="#000000" font-family="sans-serif" font-size="14" lengthAdjust="spacingAndGlyphs" textLength="72" x="202" y="1310.0342">:Controller</text><rect fill="#FEFECE" filter="url(#f170aadg5vuvdg)" height="30.2969" style="stroke: #A80036; stroke-width: 1.5;" width="127" x="349.5" y="33.2969"/><text fill="#000000" font-family="sans-serif" font-size="14" lengthAdjust="spacingAndGlyphs" textLength="113" x="356.5" y="53.292">:ProjectManager</text><rect fill="#FEFECE" filter="url(#f170aadg5vuvdg)" height="30.2969" style="stroke: #A80036; stroke-width: 1.5;" width="127" x="349.5" y="1290.0391"/><text fill="#000000" font-family="sans-serif" font-size="14" lengthAdjust="spacingAndGlyphs" textLength="113" x="356.5" y="1310.0342">:ProjectManager</text><rect fill="#FEFECE" filter="url(#f170aadg5vuvdg)" height="30.2969" style="stroke: #A80036; stroke-width: 1.5;" width="67" x="781.5" y="33.2969"/><text fill="#000000" font-family="sans-serif" font-size="14" lengthAdjust="spacingAndGlyphs" textLength="53" x="788.5" y="53.292">:Project</text><rect fill="#FEFECE" filter="url(#f170aadg5vuvdg)" height="30.2969" style="stroke: #A80036; stroke-width: 1.5;" width="67" x="781.5" y="1290.0391"/><text fill="#000000" font-family="sans-serif" font-size="14" lengthAdjust="spacingAndGlyphs" textLength="53" x="788.5" y="1310.0342">:Project</text><rect fill="#FEFECE" filter="url(#f170aadg5vuvdg)" height="30.2969" style="stroke: #A80036; stroke-width: 1.5;" width="52" x="941" y="33.2969"/><text fill="#000000" font-family="sans-serif" font-size="14" lengthAdjust="spacingAndGlyphs" textLength="38" x="948" y="53.292">:Task</text><rect fill="#FEFECE" filter="url(#f170aadg5vuvdg)" height="30.2969" style="stroke: #A80036; stroke-width: 1.5;" width="52" x="941" y="1290.0391"/><text fill="#000000" font-family="sans-serif" font-size="14" lengthAdjust="spacingAndGlyphs" textLength="38" x="948" y="1310.0342">:Task</text><rect fill="#FEFECE" filter="url(#f170aadg5vuvdg)" height="30.2969" style="stroke: #A80036; stroke-width: 1.5;" width="48" x="1168" y="33.2969"/><text fill="#000000" font-family="sans-serif" font-size="14" lengthAdjust="spacingAndGlyphs" textLength="34" x="1175" y="53.292">:Plan</text><rect fill="#FEFECE" filter="url(#f170aadg5vuvdg)" height="30.2969" style="stroke: #A80036; stroke-width: 1.5;" width="48" x="1168" y="1290.0391"/><text fill="#000000" font-family="sans-serif" font-size="14" lengthAdjust="spacingAndGlyphs" textLength="34" x="1175" y="1310.0342">:Plan</text><rect fill="#FEFECE" filter="url(#f170aadg5vuvdg)" height="30.2969" style="stroke: #A80036; stroke-width: 1.5;" width="57" x="1230" y="33.2969"/><text fill="#000000" font-family="sans-serif" font-size="14" lengthAdjust="spacingAndGlyphs" textLength="43" x="1237" y="53.292">:Clock</text><rect fill="#FEFECE" filter="url(#f170aadg5vuvdg)" height="30.2969" style="stroke: #A80036; stroke-width: 1.5;" width="57" x="1230" y="1290.0391"/><text fill="#000000" font-family="sans-serif" font-size="14" lengthAdjust="spacingAndGlyphs" textLength="43" x="1237" y="1310.0342">:Clock</text><rect fill="#FEFECE" filter="url(#f170aadg5vuvdg)" height="30.2969" style="stroke: #A80036; stroke-width: 1.5;" width="88" x="1301" y="33.2969"/><text fill="#000000" font-family="sans-serif" font-size="14" lengthAdjust="spacingAndGlyphs" textLength="74" x="1308" y="53.292">:TaskState</text><rect fill="#FEFECE" filter="url(#f170aadg5vuvdg)" height="30.2969" style="stroke: #A80036; stroke-width: 1.5;" width="88" x="1301" y="1290.0391"/><text fill="#000000" font-family="sans-serif" font-size="14" lengthAdjust="spacingAndGlyphs" textLength="74" x="1308" y="1310.0342">:TaskState</text><rect fill="#FEFECE" filter="url(#f170aadg5vuvdg)" height="30.2969" style="stroke: #A80036; stroke-width: 1.5;" width="107" x="1926.5" y="33.2969"/><text fill="#000000" font-family="sans-serif" font-size="14" lengthAdjust="spacingAndGlyphs" textLength="93" x="1933.5" y="53.292">:BranchOffice</text><rect fill="#FEFECE" filter="url(#f170aadg5vuvdg)" height="30.2969" style="stroke: #A80036; stroke-width: 1.5;" width="107" x="1926.5" y="1290.0391"/><text fill="#000000" font-family="sans-serif" font-size="14" lengthAdjust="spacingAndGlyphs" textLength="93" x="1933.5" y="1310.0342">:BranchOffice</text><rect fill="#FEFECE" filter="url(#f170aadg5vuvdg)" height="30.2969" style="stroke: #A80036; stroke-width: 1.5;" width="124" x="2047.5" y="33.2969"/><text fill="#000000" font-family="sans-serif" font-size="14" lengthAdjust="spacingAndGlyphs" textLength="110" x="2054.5" y="53.292">:DelegatedTask</text><rect fill="#FEFECE" filter="url(#f170aadg5vuvdg)" height="30.2969" style="stroke: #A80036; stroke-width: 1.5;" width="124" x="2047.5" y="1290.0391"/><text fill="#000000" font-family="sans-serif" font-size="14" lengthAdjust="spacingAndGlyphs" textLength="110" x="2054.5" y="1310.0342">:DelegatedTask</text><rect fill="#FFFFFF" filter="url(#f170aadg5vuvdg)" height="1173.3125" style="stroke: #A80036; stroke-width: 1.0;" width="10" x="235" y="99.7266"/><rect fill="#FFFFFF" filter="url(#f170aadg5vuvdg)" height="266.1953" style="stroke: #A80036; stroke-width: 1.0;" width="10" x="410" y="128.8594"/><rect fill="#FFFFFF" filter="url(#f170aadg5vuvdg)" height="351.5938" style="stroke: #A80036; stroke-width: 1.0;" width="10" x="410" y="863.1797"/><rect fill="#FFFFFF" filter="url(#f170aadg5vuvdg)" height="176.7969" style="stroke: #A80036; stroke-width: 1.0;" width="10" x="812" y="182.125"/><rect fill="#FFFFFF" filter="url(#f170aadg5vuvdg)" height="176.7969" style="stroke: #A80036; stroke-width: 1.0;" width="10" x="812" y="424.1875"/><rect fill="#FFFFFF" filter="url(#f170aadg5vuvdg)" height="29.1328" style="stroke: #A80036; stroke-width: 1.0;" width="10" x="812" y="892.3125"/><rect fill="#FFFFFF" filter="url(#f170aadg5vuvdg)" height="58.2656" style="stroke: #A80036; stroke-width: 1.0;" width="10" x="812" y="950.5781"/><rect fill="#FFFFFF" filter="url(#f170aadg5vuvdg)" height="29.1328" style="stroke: #A80036; stroke-width: 1.0;" width="10" x="812" y="1062.1094"/><rect fill="#FFFFFF" filter="url(#f170aadg5vuvdg)" height="87.3984" style="stroke: #A80036; stroke-width: 1.0;" width="10" x="964" y="235.3906"/><rect fill="#FFFFFF" filter="url(#f170aadg5vuvdg)" height="87.3984" style="stroke: #A80036; stroke-width: 1.0;" width="10" x="964" y="477.4531"/><rect fill="#FFFFFF" filter="url(#f170aadg5vuvdg)" height="555.5234" style="stroke: #A80036; stroke-width: 1.0;" width="10" x="964" y="717.5156"/><rect fill="#FFFFFF" filter="url(#f170aadg5vuvdg)" height="29.1328" style="stroke: #A80036; stroke-width: 1.0;" width="10" x="969" y="1120.375"/><rect fill="#FFFFFF" filter="url(#f170aadg5vuvdg)" height="29.1328" style="stroke: #A80036; stroke-width: 1.0;" width="10" x="1189" y="264.5234"/><rect fill="#FFFFFF" filter="url(#f170aadg5vuvdg)" height="29.1328" style="stroke: #A80036; stroke-width: 1.0;" width="10" x="1189" y="506.5859"/><rect fill="#FFFFFF" filter="url(#f170aadg5vuvdg)" height="29.1328" style="stroke: #A80036; stroke-width: 1.0;" width="10" x="1189" y="775.7813"/><rect fill="#FFFFFF" filter="url(#f170aadg5vuvdg)" height="29.1328" style="stroke: #A80036; stroke-width: 1.0;" width="10" x="1255.5" y="659.25"/><rect fill="#FFFFFF" filter="url(#f170aadg5vuvdg)" height="526.3906" style="stroke: #A80036; stroke-width: 1.0;" width="10" x="1342" y="746.6484"/><rect fill="#FFFFFF" filter="url(#f170aadg5vuvdg)" height="409.8594" style="stroke: #A80036; stroke-width: 1.0;" width="10" x="1977" y="834.0469"/><rect fill="#FFFFFF" filter="url(#f170aadg5vuvdg)" height="302.3281" style="stroke: #A80036; stroke-width: 1.0;" width="10" x="2106.5" y="979.7109"/><polygon fill="#A80036" points="223,95.7266,233,99.7266,223,103.7266,227,99.7266" style="stroke: #A80036; stroke-width: 1.0;"/><line style="stroke: #A80036; stroke-width: 1.0;" x1="3" x2="229" y1="99.7266" y2="99.7266"/><text fill="#000000" font-family="sans-serif" font-size="13" lengthAdjust="spacingAndGlyphs" textLength="82" x="10" y="94.6606">getProjects()</text><polygon fill="#A80036" points="398,124.8594,408,128.8594,398,132.8594,402,128.8594" style="stroke: #A80036; stroke-width: 1.0;"/><line style="stroke: #A80036; stroke-width: 1.0;" x1="245" x2="404" y1="128.8594" y2="128.8594"/><text fill="#000000" font-family="sans-serif" font-size="13" lengthAdjust="spacingAndGlyphs" textLength="112" x="252" y="123.7935">getProjects(User)</text><path d="M339.5,143.8594 L416.5,143.8594 L416.5,150.8594 L406.5,160.8594 L339.5,160.8594 L339.5,143.8594 " fill="#EEEEEE" style="stroke: #000000; stroke-width: 1.0;"/><rect fill="none" height="223.0625" style="stroke: #000000; stroke-width: 2.0;" width="900.5" x="339.5" y="143.8594"/><text fill="#000000" font-family="sans-serif" font-size="13" font-weight="bold" lengthAdjust="spacingAndGlyphs" textLength="32" x="354.5" y="156.9263">loop</text><text fill="#000000" font-family="sans-serif" font-size="11" font-weight="bold" lengthAdjust="spacingAndGlyphs" textLength="94" x="431.5" y="156.0698">[over projects]</text><polygon fill="#A80036" points="800,178.125,810,182.125,800,186.125,804,182.125" style="stroke: #A80036; stroke-width: 1.0;"/><line style="stroke: #A80036; stroke-width: 1.0;" x1="420" x2="806" y1="182.125" y2="182.125"/><text fill="#000000" font-family="sans-serif" font-size="13" lengthAdjust="spacingAndGlyphs" textLength="123" x="427" y="177.0591">hasAccessTo(User)</text><path d="M771.5,197.125 L848.5,197.125 L848.5,204.125 L838.5,214.125 L771.5,214.125 L771.5,197.125 " fill="#EEEEEE" style="stroke: #000000; stroke-width: 1.0;"/><rect fill="none" height="133.6641" style="stroke: #000000; stroke-width: 2.0;" width="458.5" x="771.5" y="197.125"/><text fill="#000000" font-family="sans-serif" font-size="13" font-weight="bold" lengthAdjust="spacingAndGlyphs" textLength="32" x="786.5" y="210.1919">loop</text><text fill="#000000" font-family="sans-serif" font-size="11" font-weight="bold" lengthAdjust="spacingAndGlyphs" textLength="76" x="863.5" y="209.3354">[over tasks]</text><polygon fill="#A80036" points="952,231.3906,962,235.3906,952,239.3906,956,235.3906" style="stroke: #A80036; stroke-width: 1.0;"/><line style="stroke: #A80036; stroke-width: 1.0;" x1="822" x2="958" y1="235.3906" y2="235.3906"/><text fill="#000000" font-family="sans-serif" font-size="13" lengthAdjust="spacingAndGlyphs" textLength="123" x="829" y="230.3247">hasAccessTo(User)</text><polygon fill="#A80036" points="1177,260.5234,1187,264.5234,1177,268.5234,1181,264.5234" style="stroke: #A80036; stroke-width: 1.0;"/><line style="stroke: #A80036; stroke-width: 1.0;" x1="974" x2="1183" y1="264.5234" y2="264.5234"/><text fill="#000000" font-family="sans-serif" font-size="13" lengthAdjust="spacingAndGlyphs" textLength="175" x="981" y="259.4575">isDeveloperFromPlan(User)</text><polygon fill="#A80036" points="985,289.6563,975,293.6563,985,297.6563,981,293.6563" style="stroke: #A80036; stroke-width: 1.0;"/><line style="stroke: #A80036; stroke-width: 1.0; stroke-dasharray: 2.0,2.0;" x1="979" x2="1193" y1="293.6563" y2="293.6563"/><text fill="#000000" font-family="sans-serif" font-size="13" lengthAdjust="spacingAndGlyphs" textLength="51" x="991" y="288.5903">boolean</text><polygon fill="#A80036" points="833,318.7891,823,322.7891,833,326.7891,829,322.7891" style="stroke: #A80036; stroke-width: 1.0;"/><line style="stroke: #A80036; stroke-width: 1.0; stroke-dasharray: 2.0,2.0;" x1="827" x2="968" y1="322.7891" y2="322.7891"/><text fill="#000000" font-family="sans-serif" font-size="13" lengthAdjust="spacingAndGlyphs" textLength="51" x="839" y="317.7231">boolean</text><polygon fill="#A80036" points="431,354.9219,421,358.9219,431,362.9219,427,358.9219" style="stroke: #A80036; stroke-width: 1.0;"/><line style="stroke: #A80036; stroke-width: 1.0; stroke-dasharray: 2.0,2.0;" x1="425" x2="816" y1="358.9219" y2="358.9219"/><text fill="#000000" font-family="sans-serif" font-size="13" lengthAdjust="spacingAndGlyphs" textLength="51" x="437" y="353.856">boolean</text><polygon fill="#A80036" points="256,391.0547,246,395.0547,256,399.0547,252,395.0547" style="stroke: #A80036; stroke-width: 1.0;"/><line style="stroke: #A80036; stroke-width: 1.0; stroke-dasharray: 2.0,2.0;" x1="250" x2="414" y1="395.0547" y2="395.0547"/><text fill="#000000" font-family="sans-serif" font-size="13" lengthAdjust="spacingAndGlyphs" textLength="141" x="262" y="389.9888">List&lt;ProjectWrapper&gt;</text><polygon fill="#A80036" points="800,420.1875,810,424.1875,800,428.1875,804,424.1875" style="stroke: #A80036; stroke-width: 1.0;"/><line style="stroke: #A80036; stroke-width: 1.0;" x1="245" x2="806" y1="424.1875" y2="424.1875"/><text fill="#000000" font-family="sans-serif" font-size="13" lengthAdjust="spacingAndGlyphs" textLength="97" x="252" y="419.1216">getTasks(User)</text><path d="M771.5,439.1875 L848.5,439.1875 L848.5,446.1875 L838.5,456.1875 L771.5,456.1875 L771.5,439.1875 " fill="#EEEEEE" style="stroke: #000000; stroke-width: 1.0;"/><rect fill="none" height="133.6641" style="stroke: #000000; stroke-width: 2.0;" width="458.5" x="771.5" y="439.1875"/><text fill="#000000" font-family="sans-serif" font-size="13" font-weight="bold" lengthAdjust="spacingAndGlyphs" textLength="32" x="786.5" y="452.2544">loop</text><text fill="#000000" font-family="sans-serif" font-size="11" font-weight="bold" lengthAdjust="spacingAndGlyphs" textLength="76" x="863.5" y="451.3979">[over tasks]</text><polygon fill="#A80036" points="952,473.4531,962,477.4531,952,481.4531,956,477.4531" style="stroke: #A80036; stroke-width: 1.0;"/><line style="stroke: #A80036; stroke-width: 1.0;" x1="822" x2="958" y1="477.4531" y2="477.4531"/><text fill="#000000" font-family="sans-serif" font-size="13" lengthAdjust="spacingAndGlyphs" textLength="123" x="829" y="472.3872">hasAccessTo(User)</text><polygon fill="#A80036" points="1177,502.5859,1187,506.5859,1177,510.5859,1181,506.5859" style="stroke: #A80036; stroke-width: 1.0;"/><line style="stroke: #A80036; stroke-width: 1.0;" x1="974" x2="1183" y1="506.5859" y2="506.5859"/><text fill="#000000" font-family="sans-serif" font-size="13" lengthAdjust="spacingAndGlyphs" textLength="175" x="981" y="501.52">isDeveloperFromPlan(User)</text><polygon fill="#A80036" points="985,531.7188,975,535.7188,985,539.7188,981,535.7188" style="stroke: #A80036; stroke-width: 1.0;"/><line style="stroke: #A80036; stroke-width: 1.0; stroke-dasharray: 2.0,2.0;" x1="979" x2="1193" y1="535.7188" y2="535.7188"/><text fill="#000000" font-family="sans-serif" font-size="13" lengthAdjust="spacingAndGlyphs" textLength="51" x="991" y="530.6528">boolean</text><polygon fill="#A80036" points="833,560.8516,823,564.8516,833,568.8516,829,564.8516" style="stroke: #A80036; stroke-width: 1.0;"/><line style="stroke: #A80036; stroke-width: 1.0; stroke-dasharray: 2.0,2.0;" x1="827" x2="968" y1="564.8516" y2="564.8516"/><text fill="#000000" font-family="sans-serif" font-size="13" lengthAdjust="spacingAndGlyphs" textLength="51" x="839" y="559.7856">boolean</text><polygon fill="#A80036" points="256,596.9844,246,600.9844,256,604.9844,252,600.9844" style="stroke: #A80036; stroke-width: 1.0;"/><line style="stroke: #A80036; stroke-width: 1.0; stroke-dasharray: 2.0,2.0;" x1="250" x2="816" y1="600.9844" y2="600.9844"/><text fill="#000000" font-family="sans-serif" font-size="13" lengthAdjust="spacingAndGlyphs" textLength="126" x="262" y="595.9185">List&lt;TaksWrapper&gt;</text><polygon fill="#A80036" points="223,626.1172,233,630.1172,223,634.1172,227,630.1172" style="stroke: #A80036; stroke-width: 1.0;"/><line style="stroke: #A80036; stroke-width: 1.0;" x1="3" x2="229" y1="630.1172" y2="630.1172"/><text fill="#000000" font-family="sans-serif" font-size="13" lengthAdjust="spacingAndGlyphs" textLength="213" x="10" y="625.0513">delegateTask(Task, BranchOffice)</text><polygon fill="#A80036" points="1243.5,655.25,1253.5,659.25,1243.5,663.25,1247.5,659.25" style="stroke: #A80036; stroke-width: 1.0;"/><line style="stroke: #A80036; stroke-width: 1.0;" x1="245" x2="1249.5" y1="659.25" y2="659.25"/><text fill="#000000" font-family="sans-serif" font-size="13" lengthAdjust="spacingAndGlyphs" textLength="62" x="252" y="654.1841">getTime()</text><polygon fill="#A80036" points="256,684.3828,246,688.3828,256,692.3828,252,688.3828" style="stroke: #A80036; stroke-width: 1.0;"/><line style="stroke: #A80036; stroke-width: 1.0; stroke-dasharray: 2.0,2.0;" x1="250" x2="1259.5" y1="688.3828" y2="688.3828"/><text fill="#000000" font-family="sans-serif" font-size="13" lengthAdjust="spacingAndGlyphs" textLength="95" x="262" y="683.3169">LocalDateTime</text><polygon fill="#A80036" points="952,713.5156,962,717.5156,952,721.5156,956,717.5156" style="stroke: #A80036; stroke-width: 1.0;"/><line style="stroke: #A80036; stroke-width: 1.0;" x1="245" x2="958" y1="717.5156" y2="717.5156"/><text fill="#000000" font-family="sans-serif" font-size="13" lengthAdjust="spacingAndGlyphs" textLength="279" x="252" y="712.4497">delegateTask(BranchOffice, LocalDateTime)</text><polygon fill="#A80036" points="1330,742.6484,1340,746.6484,1330,750.6484,1334,746.6484" style="stroke: #A80036; stroke-width: 1.0;"/><line style="stroke: #A80036; stroke-width: 1.0;" x1="974" x2="1336" y1="746.6484" y2="746.6484"/><text fill="#000000" font-family="sans-serif" font-size="13" lengthAdjust="spacingAndGlyphs" textLength="287" x="981" y="741.5825">delegate(BranchOffice, Task, LocalDateTime)</text><polygon fill="#A80036" points="1210,771.7813,1200,775.7813,1210,779.7813,1206,775.7813" style="stroke: #A80036; stroke-width: 1.0;"/><line style="stroke: #A80036; stroke-width: 1.0;" x1="1204" x2="1341" y1="775.7813" y2="775.7813"/><text fill="#000000" font-family="sans-serif" font-size="13" lengthAdjust="spacingAndGlyphs" textLength="120" x="1216" y="770.7153">getRequirements()</text><polygon fill="#A80036" points="985,800.9141,975,804.9141,985,808.9141,981,804.9141" style="stroke: #A80036; stroke-width: 1.0;"/><line style="stroke: #A80036; stroke-width: 1.0; stroke-dasharray: 2.0,2.0;" x1="979" x2="1193" y1="804.9141" y2="804.9141"/><text fill="#000000" font-family="sans-serif" font-size="13" lengthAdjust="spacingAndGlyphs" textLength="191" x="991" y="799.8481">Map&lt;ResourceType, Integer&gt;</text><polygon fill="#A80036" points="1965,830.0469,1975,834.0469,1965,838.0469,1969,834.0469" style="stroke: #A80036; stroke-width: 1.0;"/><line style="stroke: #A80036; stroke-width: 1.0;" x1="1352" x2="1971" y1="834.0469" y2="834.0469"/><text fill="#000000" font-family="sans-serif" font-size="13" lengthAdjust="spacingAndGlyphs" textLength="606" x="1359" y="828.981">executeDelegation(Map&lt;ResourceType, Integer&gt;, String, String, LocalDateTime, long , double)</text><polygon fill="#A80036" points="431,859.1797,421,863.1797,431,867.1797,427,863.1797" style="stroke: #A80036; stroke-width: 1.0;"/><line style="stroke: #A80036; stroke-width: 1.0;" x1="425" x2="1976" y1="863.1797" y2="863.1797"/><text fill="#000000" font-family="sans-serif" font-size="13" lengthAdjust="spacingAndGlyphs" textLength="622" x="437" y="858.1138">createDelegatedTask(Map&lt;ResourceType, Integer&gt;, String, String, LocalDateTime, long , double)</text><polygon fill="#A80036" points="800,888.3125,810,892.3125,800,896.3125,804,892.3125" style="stroke: #A80036; stroke-width: 1.0;"/><line style="stroke: #A80036; stroke-width: 1.0;" x1="420" x2="806" y1="892.3125" y2="892.3125"/><text fill="#000000" font-family="sans-serif" font-size="13" lengthAdjust="spacingAndGlyphs" textLength="373" x="427" y="887.2466">new Project(String, String, LocalDateTime, LocalDateTime)</text><polygon fill="#A80036" points="431,917.4453,421,921.4453,431,925.4453,427,921.4453" style="stroke: #A80036; stroke-width: 1.0;"/><line style="stroke: #A80036; stroke-width: 1.0; stroke-dasharray: 2.0,2.0;" x1="425" x2="816" y1="921.4453" y2="921.4453"/><text fill="#000000" font-family="sans-serif" font-size="13" lengthAdjust="spacingAndGlyphs" textLength="44" x="437" y="916.3794">Project</text><polygon fill="#A80036" points="800,946.5781,810,950.5781,800,954.5781,804,950.5781" style="stroke: #A80036; stroke-width: 1.0;"/><line style="stroke: #A80036; stroke-width: 1.0;" x1="420" x2="806" y1="950.5781" y2="950.5781"/><text fill="#000000" font-family="sans-serif" font-size="13" lengthAdjust="spacingAndGlyphs" textLength="316" x="427" y="945.5122">createDelegatedTask(String, String, long, double)</text><polygon fill="#A80036" points="2094.5,975.7109,2104.5,979.7109,2094.5,983.7109,2098.5,979.7109" style="stroke: #A80036; stroke-width: 1.0;"/><line style="stroke: #A80036; stroke-width: 1.0;" x1="822" x2="2100.5" y1="979.7109" y2="979.7109"/><text fill="#000000" font-family="sans-serif" font-size="13" lengthAdjust="spacingAndGlyphs" textLength="304" x="829" y="974.645">new DelegatedTask(String, String, long, double)</text><polygon fill="#A80036" points="828,1004.8438,818,1008.8438,828,1012.8438,824,1008.8438" style="stroke: #A80036; stroke-width: 1.0;"/><line style="stroke: #A80036; stroke-width: 1.0; stroke-dasharray: 2.0,2.0;" x1="822" x2="2105.5" y1="1008.8438" y2="1008.8438"/><text fill="#000000" font-family="sans-serif" font-size="13" lengthAdjust="spacingAndGlyphs" textLength="93" x="834" y="1003.7778">delegatedTask</text><path d="M339.5,1023.8438 L416.5,1023.8438 L416.5,1030.8438 L406.5,1040.8438 L339.5,1040.8438 L339.5,1023.8438 " fill="#EEEEEE" style="stroke: #000000; stroke-width: 1.0;"/><rect fill="none" height="162.7969" style="stroke: #000000; stroke-width: 2.0;" width="890.5" x="339.5" y="1023.8438"/><text fill="#000000" font-family="sans-serif" font-size="13" font-weight="bold" lengthAdjust="spacingAndGlyphs" textLength="32" x="354.5" y="1036.9106">loop</text><text fill="#000000" font-family="sans-serif" font-size="11" font-weight="bold" lengthAdjust="spacingAndGlyphs" textLength="127" x="431.5" y="1036.0542">[over requirements]</text><polygon fill="#A80036" points="800,1058.1094,810,1062.1094,800,1066.1094,804,1062.1094" style="stroke: #A80036; stroke-width: 1.0;"/><line style="stroke: #A80036; stroke-width: 1.0;" x1="420" x2="806" y1="1062.1094" y2="1062.1094"/><text fill="#000000" font-family="sans-serif" font-size="13" lengthAdjust="spacingAndGlyphs" textLength="98" x="427" y="1057.0435">getTask(String)</text><polygon fill="#A80036" points="431,1087.2422,421,1091.2422,431,1095.2422,427,1091.2422" style="stroke: #A80036; stroke-width: 1.0;"/><line style="stroke: #A80036; stroke-width: 1.0; stroke-dasharray: 2.0,2.0;" x1="425" x2="816" y1="1091.2422" y2="1091.2422"/><text fill="#000000" font-family="sans-serif" font-size="13" lengthAdjust="spacingAndGlyphs" textLength="29" x="437" y="1086.1763">Task</text><polygon fill="#A80036" points="957,1116.375,967,1120.375,957,1124.375,961,1120.375" style="stroke: #A80036; stroke-width: 1.0;"/><line style="stroke: #A80036; stroke-width: 1.0;" x1="420" x2="963" y1="1120.375" y2="1120.375"/><text fill="#000000" font-family="sans-serif" font-size="13" lengthAdjust="spacingAndGlyphs" textLength="58" x="427" y="1115.3091">getPlan()</text><polygon fill="#A80036" points="431,1145.5078,421,1149.5078,431,1153.5078,427,1149.5078" style="stroke: #A80036; stroke-width: 1.0;"/><line style="stroke: #A80036; stroke-width: 1.0; stroke-dasharray: 2.0,2.0;" x1="425" x2="963" y1="1149.5078" y2="1149.5078"/><text fill="#000000" font-family="sans-serif" font-size="13" lengthAdjust="spacingAndGlyphs" textLength="27" x="437" y="1144.4419">Plan</text><polygon fill="#A80036" points="1182,1174.6406,1192,1178.6406,1182,1182.6406,1186,1178.6406" style="stroke: #A80036; stroke-width: 1.0;"/><line style="stroke: #A80036; stroke-width: 1.0;" x1="420" x2="1188" y1="1178.6406" y2="1178.6406"/><text fill="#000000" font-family="sans-serif" font-size="13" lengthAdjust="spacingAndGlyphs" textLength="258" x="427" y="1173.5747">addRequirement(ResourceType, Integer)</text><polygon fill="#A80036" points="1965,1210.7734,1975,1214.7734,1965,1218.7734,1969,1214.7734" style="stroke: #A80036; stroke-width: 1.0;"/><line style="stroke: #A80036; stroke-width: 1.0; stroke-dasharray: 2.0,2.0;" x1="415" x2="1971" y1="1214.7734" y2="1214.7734"/><text fill="#000000" font-family="sans-serif" font-size="13" lengthAdjust="spacingAndGlyphs" textLength="29" x="422" y="1209.7075">Task</text><polygon fill="#A80036" points="1363,1239.9063,1353,1243.9063,1363,1247.9063,1359,1243.9063" style="stroke: #A80036; stroke-width: 1.0;"/><line style="stroke: #A80036; stroke-width: 1.0; stroke-dasharray: 2.0,2.0;" x1="1357" x2="1981" y1="1243.9063" y2="1243.9063"/><text fill="#000000" font-family="sans-serif" font-size="13" lengthAdjust="spacingAndGlyphs" textLength="29" x="1369" y="1238.8403">Task</text><polygon fill="#A80036" points="980,1269.0391,970,1273.0391,980,1277.0391,976,1273.0391" style="stroke: #A80036; stroke-width: 1.0;"/><line style="stroke: #A80036; stroke-width: 1.0;" x1="974" x2="1346" y1="1273.0391" y2="1273.0391"/><text fill="#000000" font-family="sans-serif" font-size="13" lengthAdjust="spacingAndGlyphs" textLength="195" x="986" y="1267.9731">setState(TaskStateDelegated)</text><!--
@startuml
title "Use Case - Delegating a Task"


-> ":Controller": getProjects()
activate ":Controller"


":Controller" -> ":ProjectManager" : getProjects(User)
activate ":ProjectManager"

loop over projects
    ":ProjectManager" -> ":Project" : hasAccessTo(User)
    activate ":Project"

    loop over tasks
        ":Project" -> ":Task" : hasAccessTo(User)
        activate ":Task"

        ":Task" -> ":Plan" : isDeveloperFromPlan(User)
        activate ":Plan"

        ":Plan" - -> ":Task" : boolean
        deactivate ":Plan"

        ":Task" - -> ":Project" : boolean
        deactivate ":Task"

    end

    ":Project" - -> ":ProjectManager" : boolean
    deactivate ":Project"
end

":ProjectManager" - -> ":Controller" : List<ProjectWrapper>
deactivate ":ProjectManager"


":Controller" -> ":Project" : getTasks(User)
activate ":Project"

loop over tasks
    ":Project" -> ":Task" : hasAccessTo(User)
    activate ":Task"

    ":Task" -> ":Plan" : isDeveloperFromPlan(User)
    activate ":Plan"

    ":Plan" - -> ":Task" : boolean
    deactivate ":Plan"

    ":Task" - -> ":Project" : boolean
    deactivate ":Task"

end

":Project" - -> ":Controller" : List<TaksWrapper>
deactivate ":Project"


-> ":Controller" : delegateTask(Task, BranchOffice)

":Controller" -> ":Clock" : getTime()
activate ":Clock"

":Clock" - -> ":Controller" : LocalDateTime
deactivate ":Clock"

":Controller" -> ":Task": delegateTask(BranchOffice, LocalDateTime)
activate ":Task"

":Task" -> ":TaskState" : delegate(BranchOffice, Task, LocalDateTime)
activate ":TaskState"

":TaskState" -> ":Plan" : getRequirements()
activate ":Plan"
":Plan" - -> ":Task" : Map<ResourceType, Integer>
deactivate ":Plan"

":TaskState" -> ":BranchOffice" : executeDelegation(Map<ResourceType, Integer>, String, String, LocalDateTime, long , double)
activate ":BranchOffice"
":BranchOffice" -> ":ProjectManager" : createDelegatedTask(Map<ResourceType, Integer>, String, String, LocalDateTime, long , double)
activate ":ProjectManager"

":ProjectManager" -> ":Project" : new Project(String, String, LocalDateTime, LocalDateTime)
activate ":Project"
":Project" - -> ":ProjectManager" : Project
deactivate ":Project"

":ProjectManager" -> ":Project" : createDelegatedTask(String, String, long, double)
activate ":Project"
":Project" -> ":DelegatedTask" : new DelegatedTask(String, String, long, double)
activate ":DelegatedTask"
":DelegatedTask" - -> ":Project" : delegatedTask
deactivate ":Project"

loop over requirements
    ":ProjectManager" -> ":Project" : getTask(String)
    activate ":Project"
    ":Project" - -> ":ProjectManager" : Task
    deactivate ":Project"

    ":ProjectManager" -> ":Task" : getPlan()
    activate ":Task"
    ":Task" - -> ":ProjectManager" : Plan
    deactivate ":Task"

    ":ProjectManager" -> ":Plan" : addRequirement(ResourceType, Integer)
    deactivate ":Plan"
end

":ProjectManager" - -> ":BranchOffice" : Task
deactivate ":ProjectManager"

":BranchOffice" - -> ":TaskState" : Task
deactivate ":BranchOffice"

":TaskState" -> ":Task" : setState(TaskStateDelegated)
deactivate ":TaskState"
deactivate ":Task"
deactivate ":Controller"
@enduml

PlantUML version 1.2018.06(Mon May 21 10:34:53 UTC 2018)
(GPL source distribution)
Java Runtime: Java(TM) SE Runtime Environment
JVM: Java HotSpot(TM) 64-Bit Server VM
Java Version: 1.7.0_25-b15
Operating System: Linux
Default Encoding: UTF-8
Language: en
Country: US
--></g></svg>