<?xml version="1.0" encoding="UTF-8" standalone="no"?><svg xmlns="http://www.w3.org/2000/svg" xmlns:xlink="http://www.w3.org/1999/xlink" contentScriptType="application/ecmascript" contentStyleType="text/css" height="750px" preserveAspectRatio="none" style="width:1360px;height:750px;" version="1.1" viewBox="0 0 1360 750" width="1360px" zoomAndPan="magnify"><defs><filter height="300%" id="f11rwi96v4zpjg" width="300%" x="-1" y="-1"><feGaussianBlur result="blurOut" stdDeviation="2.0"/><feColorMatrix in="blurOut" result="blurOut2" type="matrix" values="0 0 0 0 0 0 0 0 0 0 0 0 0 0 0 0 0 0 .4 0"/><feOffset dx="4.0" dy="4.0" in="blurOut2" result="blurOut3"/><feBlend in="SourceGraphic" in2="blurOut3" mode="normal"/></filter></defs><g><text fill="#000000" font-family="sans-serif" font-size="14" font-weight="bold" lengthAdjust="spacingAndGlyphs" textLength="385" x="488" y="22.9951">"Use Case - Update Task Status - End execution"</text><rect fill="#FFFFFF" filter="url(#f11rwi96v4zpjg)" height="591.9922" style="stroke: #A80036; stroke-width: 1.0;" width="10" x="481" y="99.7266"/><rect fill="#FFFFFF" filter="url(#f11rwi96v4zpjg)" height="29.1328" style="stroke: #A80036; stroke-width: 1.0;" width="10" x="619" y="128.8594"/><rect fill="#FFFFFF" filter="url(#f11rwi96v4zpjg)" height="504.5938" style="stroke: #A80036; stroke-width: 1.0;" width="10" x="888" y="187.125"/><rect fill="#FFFFFF" filter="url(#f11rwi96v4zpjg)" height="40.1328" style="stroke: #A80036; stroke-width: 1.0;" width="10" x="893" y="224.125"/><rect fill="#FFFFFF" filter="url(#f11rwi96v4zpjg)" height="40.1328" style="stroke: #A80036; stroke-width: 1.0;" width="10" x="893" y="366.6563"/><rect fill="#FFFFFF" filter="url(#f11rwi96v4zpjg)" height="30" style="stroke: #A80036; stroke-width: 1.0;" width="10" x="893" y="472.1875"/><rect fill="#FFFFFF" filter="url(#f11rwi96v4zpjg)" height="35" style="stroke: #A80036; stroke-width: 1.0;" width="10" x="893" y="531.3203"/><rect fill="#FFFFFF" filter="url(#f11rwi96v4zpjg)" height="30" style="stroke: #A80036; stroke-width: 1.0;" width="10" x="893" y="661.7188"/><rect fill="#FFFFFF" filter="url(#f11rwi96v4zpjg)" height="29.1328" style="stroke: #A80036; stroke-width: 1.0;" width="10" x="1092" y="300.5234"/><rect fill="#FFFFFF" filter="url(#f11rwi96v4zpjg)" height="30" style="stroke: #A80036; stroke-width: 1.0;" width="10" x="1092" y="602.5859"/><rect fill="#FFFFFF" filter="url(#f11rwi96v4zpjg)" height="248.6641" style="stroke: #A80036; stroke-width: 1.0;" width="10" x="1268" y="443.0547"/><line style="stroke: #A80036; stroke-width: 1.0; stroke-dasharray: 5.0,5.0;" x1="486" x2="486" y1="68.5938" y2="709.7188"/><line style="stroke: #A80036; stroke-width: 1.0; stroke-dasharray: 5.0,5.0;" x1="623.5" x2="623.5" y1="68.5938" y2="709.7188"/><line style="stroke: #A80036; stroke-width: 1.0; stroke-dasharray: 5.0,5.0;" x1="893" x2="893" y1="68.5938" y2="709.7188"/><line style="stroke: #A80036; stroke-width: 1.0; stroke-dasharray: 5.0,5.0;" x1="1097" x2="1097" y1="68.5938" y2="709.7188"/><line style="stroke: #A80036; stroke-width: 1.0; stroke-dasharray: 5.0,5.0;" x1="1273" x2="1273" y1="68.5938" y2="709.7188"/><rect fill="#FEFECE" filter="url(#f11rwi96v4zpjg)" height="30.2969" style="stroke: #A80036; stroke-width: 1.5;" width="86" x="441" y="33.2969"/><text fill="#000000" font-family="sans-serif" font-size="14" lengthAdjust="spacingAndGlyphs" textLength="72" x="448" y="53.292">:Controller</text><rect fill="#FEFECE" filter="url(#f11rwi96v4zpjg)" height="30.2969" style="stroke: #A80036; stroke-width: 1.5;" width="86" x="441" y="708.7188"/><text fill="#000000" font-family="sans-serif" font-size="14" lengthAdjust="spacingAndGlyphs" textLength="72" x="448" y="728.7139">:Controller</text><rect fill="#FEFECE" filter="url(#f11rwi96v4zpjg)" height="30.2969" style="stroke: #A80036; stroke-width: 1.5;" width="111" x="566.5" y="33.2969"/><text fill="#000000" font-family="sans-serif" font-size="14" lengthAdjust="spacingAndGlyphs" textLength="97" x="573.5" y="53.292">:UserManager</text><rect fill="#FEFECE" filter="url(#f11rwi96v4zpjg)" height="30.2969" style="stroke: #A80036; stroke-width: 1.5;" width="111" x="566.5" y="708.7188"/><text fill="#000000" font-family="sans-serif" font-size="14" lengthAdjust="spacingAndGlyphs" textLength="97" x="573.5" y="728.7139">:UserManager</text><rect fill="#FEFECE" filter="url(#f11rwi96v4zpjg)" height="30.2969" style="stroke: #A80036; stroke-width: 1.5;" width="52" x="865" y="33.2969"/><text fill="#000000" font-family="sans-serif" font-size="14" lengthAdjust="spacingAndGlyphs" textLength="38" x="872" y="53.292">:Task</text><rect fill="#FEFECE" filter="url(#f11rwi96v4zpjg)" height="30.2969" style="stroke: #A80036; stroke-width: 1.5;" width="52" x="865" y="708.7188"/><text fill="#000000" font-family="sans-serif" font-size="14" lengthAdjust="spacingAndGlyphs" textLength="38" x="872" y="728.7139">:Task</text><rect fill="#FEFECE" filter="url(#f11rwi96v4zpjg)" height="30.2969" style="stroke: #A80036; stroke-width: 1.5;" width="48" x="1071" y="33.2969"/><text fill="#000000" font-family="sans-serif" font-size="14" lengthAdjust="spacingAndGlyphs" textLength="34" x="1078" y="53.292">:Plan</text><rect fill="#FEFECE" filter="url(#f11rwi96v4zpjg)" height="30.2969" style="stroke: #A80036; stroke-width: 1.5;" width="48" x="1071" y="708.7188"/><text fill="#000000" font-family="sans-serif" font-size="14" lengthAdjust="spacingAndGlyphs" textLength="34" x="1078" y="728.7139">:Plan</text><rect fill="#FEFECE" filter="url(#f11rwi96v4zpjg)" height="30.2969" style="stroke: #A80036; stroke-width: 1.5;" width="156" x="1193" y="33.2969"/><text fill="#000000" font-family="sans-serif" font-size="14" lengthAdjust="spacingAndGlyphs" textLength="142" x="1200" y="53.292">:TaskStateExecuting</text><rect fill="#FEFECE" filter="url(#f11rwi96v4zpjg)" height="30.2969" style="stroke: #A80036; stroke-width: 1.5;" width="156" x="1193" y="708.7188"/><text fill="#000000" font-family="sans-serif" font-size="14" lengthAdjust="spacingAndGlyphs" textLength="142" x="1200" y="728.7139">:TaskStateExecuting</text><rect fill="#FFFFFF" filter="url(#f11rwi96v4zpjg)" height="591.9922" style="stroke: #A80036; stroke-width: 1.0;" width="10" x="481" y="99.7266"/><rect fill="#FFFFFF" filter="url(#f11rwi96v4zpjg)" height="29.1328" style="stroke: #A80036; stroke-width: 1.0;" width="10" x="619" y="128.8594"/><rect fill="#FFFFFF" filter="url(#f11rwi96v4zpjg)" height="504.5938" style="stroke: #A80036; stroke-width: 1.0;" width="10" x="888" y="187.125"/><rect fill="#FFFFFF" filter="url(#f11rwi96v4zpjg)" height="40.1328" style="stroke: #A80036; stroke-width: 1.0;" width="10" x="893" y="224.125"/><rect fill="#FFFFFF" filter="url(#f11rwi96v4zpjg)" height="40.1328" style="stroke: #A80036; stroke-width: 1.0;" width="10" x="893" y="366.6563"/><rect fill="#FFFFFF" filter="url(#f11rwi96v4zpjg)" height="30" style="stroke: #A80036; stroke-width: 1.0;" width="10" x="893" y="472.1875"/><rect fill="#FFFFFF" filter="url(#f11rwi96v4zpjg)" height="35" style="stroke: #A80036; stroke-width: 1.0;" width="10" x="893" y="531.3203"/><rect fill="#FFFFFF" filter="url(#f11rwi96v4zpjg)" height="30" style="stroke: #A80036; stroke-width: 1.0;" width="10" x="893" y="661.7188"/><rect fill="#FFFFFF" filter="url(#f11rwi96v4zpjg)" height="29.1328" style="stroke: #A80036; stroke-width: 1.0;" width="10" x="1092" y="300.5234"/><rect fill="#FFFFFF" filter="url(#f11rwi96v4zpjg)" height="30" style="stroke: #A80036; stroke-width: 1.0;" width="10" x="1092" y="602.5859"/><rect fill="#FFFFFF" filter="url(#f11rwi96v4zpjg)" height="248.6641" style="stroke: #A80036; stroke-width: 1.0;" width="10" x="1268" y="443.0547"/><polygon fill="#A80036" points="469,95.7266,479,99.7266,469,103.7266,473,99.7266" style="stroke: #A80036; stroke-width: 1.0;"/><line style="stroke: #A80036; stroke-width: 1.0;" x1="3" x2="475" y1="99.7266" y2="99.7266"/><text fill="#000000" font-family="sans-serif" font-size="13" lengthAdjust="spacingAndGlyphs" textLength="459" x="10" y="94.6606">endTaskExecution(TaskWrapper, LocalDateTime, LocalDateTime, String)</text><polygon fill="#A80036" points="607,124.8594,617,128.8594,607,132.8594,611,128.8594" style="stroke: #A80036; stroke-width: 1.0;"/><line style="stroke: #A80036; stroke-width: 1.0;" x1="491" x2="613" y1="128.8594" y2="128.8594"/><text fill="#000000" font-family="sans-serif" font-size="13" lengthAdjust="spacingAndGlyphs" textLength="109" x="498" y="123.7935">getCurrentUser()</text><polygon fill="#A80036" points="502,153.9922,492,157.9922,502,161.9922,498,157.9922" style="stroke: #A80036; stroke-width: 1.0;"/><line style="stroke: #A80036; stroke-width: 1.0; stroke-dasharray: 2.0,2.0;" x1="496" x2="623" y1="157.9922" y2="157.9922"/><text fill="#000000" font-family="sans-serif" font-size="13" lengthAdjust="spacingAndGlyphs" textLength="30" x="508" y="152.9263">User</text><polygon fill="#A80036" points="876,183.125,886,187.125,876,191.125,880,187.125" style="stroke: #A80036; stroke-width: 1.0;"/><line style="stroke: #A80036; stroke-width: 1.0;" x1="491" x2="882" y1="187.125" y2="187.125"/><text fill="#000000" font-family="sans-serif" font-size="13" lengthAdjust="spacingAndGlyphs" textLength="378" x="498" y="182.0591">endExecution(LocalDateTime, LocalDateTime, String, User)</text><line style="stroke: #A80036; stroke-width: 1.0;" x1="898" x2="945" y1="211.2578" y2="211.2578"/><line style="stroke: #A80036; stroke-width: 1.0;" x1="945" x2="945" y1="211.2578" y2="224.2578"/><line style="stroke: #A80036; stroke-width: 1.0;" x1="904" x2="945" y1="224.2578" y2="224.2578"/><polygon fill="#A80036" points="914,220.2578,904,224.2578,914,228.2578,910,224.2578" style="stroke: #A80036; stroke-width: 1.0;"/><text fill="#000000" font-family="sans-serif" font-size="13" lengthAdjust="spacingAndGlyphs" textLength="58" x="910" y="206.1919">getPlan()</text><line style="stroke: #A80036; stroke-width: 1.0; stroke-dasharray: 2.0,2.0;" x1="903" x2="945" y1="263.3906" y2="263.3906"/><line style="stroke: #A80036; stroke-width: 1.0; stroke-dasharray: 2.0,2.0;" x1="945" x2="945" y1="263.3906" y2="276.3906"/><line style="stroke: #A80036; stroke-width: 1.0; stroke-dasharray: 2.0,2.0;" x1="898" x2="945" y1="276.3906" y2="276.3906"/><polygon fill="#A80036" points="908,272.3906,898,276.3906,908,280.3906,904,276.3906" style="stroke: #A80036; stroke-width: 1.0;"/><text fill="#000000" font-family="sans-serif" font-size="13" lengthAdjust="spacingAndGlyphs" textLength="27" x="910" y="258.3247">Plan</text><polygon fill="#A80036" points="1080,296.5234,1090,300.5234,1080,304.5234,1084,300.5234" style="stroke: #A80036; stroke-width: 1.0;"/><line style="stroke: #A80036; stroke-width: 1.0;" x1="898" x2="1086" y1="300.5234" y2="300.5234"/><text fill="#000000" font-family="sans-serif" font-size="13" lengthAdjust="spacingAndGlyphs" textLength="175" x="905" y="295.4575">isDeveloperFromPlan(User)</text><polygon fill="#A80036" points="909,325.6563,899,329.6563,909,333.6563,905,329.6563" style="stroke: #A80036; stroke-width: 1.0;"/><line style="stroke: #A80036; stroke-width: 1.0; stroke-dasharray: 2.0,2.0;" x1="903" x2="1096" y1="329.6563" y2="329.6563"/><text fill="#000000" font-family="sans-serif" font-size="13" lengthAdjust="spacingAndGlyphs" textLength="51" x="915" y="324.5903">boolean</text><line style="stroke: #A80036; stroke-width: 1.0;" x1="898" x2="945" y1="353.7891" y2="353.7891"/><line style="stroke: #A80036; stroke-width: 1.0;" x1="945" x2="945" y1="353.7891" y2="366.7891"/><line style="stroke: #A80036; stroke-width: 1.0;" x1="904" x2="945" y1="366.7891" y2="366.7891"/><polygon fill="#A80036" points="914,362.7891,904,366.7891,914,370.7891,910,366.7891" style="stroke: #A80036; stroke-width: 1.0;"/><text fill="#000000" font-family="sans-serif" font-size="13" lengthAdjust="spacingAndGlyphs" textLength="66" x="910" y="348.7231">getState()</text><line style="stroke: #A80036; stroke-width: 1.0; stroke-dasharray: 2.0,2.0;" x1="903" x2="945" y1="405.9219" y2="405.9219"/><line style="stroke: #A80036; stroke-width: 1.0; stroke-dasharray: 2.0,2.0;" x1="945" x2="945" y1="405.9219" y2="418.9219"/><line style="stroke: #A80036; stroke-width: 1.0; stroke-dasharray: 2.0,2.0;" x1="898" x2="945" y1="418.9219" y2="418.9219"/><polygon fill="#A80036" points="908,414.9219,898,418.9219,908,422.9219,904,418.9219" style="stroke: #A80036; stroke-width: 1.0;"/><text fill="#000000" font-family="sans-serif" font-size="13" lengthAdjust="spacingAndGlyphs" textLength="64" x="910" y="400.856">TaskState</text><polygon fill="#A80036" points="1256,439.0547,1266,443.0547,1256,447.0547,1260,443.0547" style="stroke: #A80036; stroke-width: 1.0;"/><line style="stroke: #A80036; stroke-width: 1.0;" x1="898" x2="1262" y1="443.0547" y2="443.0547"/><text fill="#000000" font-family="sans-serif" font-size="13" lengthAdjust="spacingAndGlyphs" textLength="351" x="905" y="437.9888">endExecution(Task, ResourceManager, LocalDateTime)</text><polygon fill="#A80036" points="914,468.1875,904,472.1875,914,476.1875,910,472.1875" style="stroke: #A80036; stroke-width: 1.0;"/><line style="stroke: #A80036; stroke-width: 1.0;" x1="908" x2="1267" y1="472.1875" y2="472.1875"/><text fill="#000000" font-family="sans-serif" font-size="13" lengthAdjust="spacingAndGlyphs" textLength="158" x="920" y="467.1216">setTimeSpan(TimeSpan)</text><polygon fill="#A80036" points="914,527.3203,904,531.3203,914,535.3203,910,531.3203" style="stroke: #A80036; stroke-width: 1.0;"/><line style="stroke: #A80036; stroke-width: 1.0;" x1="908" x2="1267" y1="531.3203" y2="531.3203"/><text fill="#000000" font-family="sans-serif" font-size="13" lengthAdjust="spacingAndGlyphs" textLength="58" x="920" y="526.2544">getPlan()</text><line style="stroke: #A80036; stroke-width: 1.0; stroke-dasharray: 2.0,2.0;" x1="903" x2="945" y1="565.4531" y2="565.4531"/><line style="stroke: #A80036; stroke-width: 1.0; stroke-dasharray: 2.0,2.0;" x1="945" x2="945" y1="565.4531" y2="578.4531"/><line style="stroke: #A80036; stroke-width: 1.0; stroke-dasharray: 2.0,2.0;" x1="898" x2="945" y1="578.4531" y2="578.4531"/><polygon fill="#A80036" points="908,574.4531,898,578.4531,908,582.4531,904,578.4531" style="stroke: #A80036; stroke-width: 1.0;"/><text fill="#000000" font-family="sans-serif" font-size="13" lengthAdjust="spacingAndGlyphs" textLength="27" x="910" y="560.3872">Plan</text><polygon fill="#A80036" points="1113,598.5859,1103,602.5859,1113,606.5859,1109,602.5859" style="stroke: #A80036; stroke-width: 1.0;"/><line style="stroke: #A80036; stroke-width: 1.0;" x1="1107" x2="1267" y1="602.5859" y2="602.5859"/><text fill="#000000" font-family="sans-serif" font-size="13" lengthAdjust="spacingAndGlyphs" textLength="107" x="1119" y="597.52">finish(TimeSpan)</text><polygon fill="#A80036" points="914,657.7188,904,661.7188,914,665.7188,910,661.7188" style="stroke: #A80036; stroke-width: 1.0;"/><line style="stroke: #A80036; stroke-width: 1.0;" x1="908" x2="1267" y1="661.7188" y2="661.7188"/><text fill="#000000" font-family="sans-serif" font-size="13" lengthAdjust="spacingAndGlyphs" textLength="129" x="920" y="656.6528">setState(TaskState)</text><!--
@startuml
title "Use Case - Update Task Status - End execution"

-> ":Controller": endTaskExecution(TaskWrapper, LocalDateTime, LocalDateTime, String)
activate ":Controller"

":Controller" -> ":UserManager": getCurrentUser()
activate ":UserManager"
":Controller" <- - ":UserManager": User
deactivate ":UserManager"

":Controller" -> ":Task": endExecution(LocalDateTime, LocalDateTime, String, User)
activate ":Task"

":Task" -> ":Task": getPlan()
activate ":Task"
":Task" <- - ":Task": Plan
deactivate ":Task"

":Task" -> ":Plan": isDeveloperFromPlan(User)
activate ":Plan"
":Task" <- - ":Plan": boolean
deactivate ":Plan"

":Task" -> ":Task": getState()
activate ":Task"
":Task" <- - ":Task": TaskState
deactivate ":Task"

":Task" -> ":TaskStateExecuting": endExecution(Task, ResourceManager, LocalDateTime)
activate ":TaskStateExecuting"

":TaskStateExecuting" -> ":Task": setTimeSpan(TimeSpan)
activate ":Task"
deactivate ":Task"

":TaskStateExecuting" -> ":Task": getPlan()
activate ":Task"
":Task" <- - ":Task": Plan
deactivate ":Task"

":TaskStateExecuting" -> ":Plan": finish(TimeSpan)
activate ":Plan"
deactivate ":Plan"

":TaskStateExecuting" -> ":Task": setState(TaskState)
activate ":Task"
deactivate ":Task"

deactivate ":TaskStateExecuting"

deactivate ":Task"

deactivate ":Controller"
@enduml

PlantUML version 1.2018.06(Mon May 21 10:34:53 UTC 2018)
(GPL source distribution)
Java Runtime: Java(TM) SE Runtime Environment
JVM: Java HotSpot(TM) 64-Bit Server VM
Java Version: 1.7.0_25-b15
Operating System: Linux
Default Encoding: UTF-8
Language: en
Country: US
--></g></svg>