<?xml version="1.0" encoding="UTF-8" standalone="no"?><svg xmlns="http://www.w3.org/2000/svg" xmlns:xlink="http://www.w3.org/1999/xlink" contentScriptType="application/ecmascript" contentStyleType="text/css" height="614px" preserveAspectRatio="none" style="width:933px;height:614px;" version="1.1" viewBox="0 0 933 614" width="933px" zoomAndPan="magnify"><defs><filter height="300%" id="f1jcwdlbezeiep" width="300%" x="-1" y="-1"><feGaussianBlur result="blurOut" stdDeviation="2.0"/><feColorMatrix in="blurOut" result="blurOut2" type="matrix" values="0 0 0 0 0 0 0 0 0 0 0 0 0 0 0 0 0 0 .4 0"/><feOffset dx="4.0" dy="4.0" in="blurOut2" result="blurOut3"/><feBlend in="SourceGraphic" in2="blurOut3" mode="normal"/></filter></defs><g><text fill="#000000" font-family="sans-serif" font-size="18" lengthAdjust="spacingAndGlyphs" textLength="241" x="349.5" y="16.708">Domain model - Iteration 3</text><rect fill="#FEFECE" filter="url(#f1jcwdlbezeiep)" height="33.9688" style="stroke: #A80036; stroke-width: 1.5;" width="71" x="49" y="567.9531"/><text fill="#000000" font-family="sans-serif" font-size="12" lengthAdjust="spacingAndGlyphs" textLength="57" x="56" y="581.0918">Company</text><line style="stroke: #A80036; stroke-width: 1.5;" x1="50" x2="119" y1="585.9219" y2="585.9219"/><rect fill="#FEFECE" filter="url(#f1jcwdlbezeiep)" height="37.6094" style="stroke: #A80036; stroke-width: 1.5;" width="93" x="238" y="565.9531"/><text fill="#000000" font-family="sans-serif" font-size="12" lengthAdjust="spacingAndGlyphs" textLength="79" x="245" y="579.0918">BranchOffice</text><line style="stroke: #A80036; stroke-width: 1.5;" x1="239" x2="330" y1="583.9219" y2="583.9219"/><text fill="#000000" font-family="sans-serif" font-size="10" lengthAdjust="spacingAndGlyphs" textLength="37" x="244" y="597.2041">location</text><rect fill="#FEFECE" filter="url(#f1jcwdlbezeiep)" height="72.5313" style="stroke: #A80036; stroke-width: 1.5;" width="74" x="288.5" y="28.9531"/><text fill="#000000" font-family="sans-serif" font-size="12" lengthAdjust="spacingAndGlyphs" textLength="44" x="303.5" y="42.0918">Project</text><line style="stroke: #A80036; stroke-width: 1.5;" x1="289.5" x2="361.5" y1="46.9219" y2="46.9219"/><text fill="#000000" font-family="sans-serif" font-size="10" lengthAdjust="spacingAndGlyphs" textLength="28" x="294.5" y="60.2041">name</text><text fill="#000000" font-family="sans-serif" font-size="10" lengthAdjust="spacingAndGlyphs" textLength="52" x="294.5" y="71.8447">description</text><text fill="#000000" font-family="sans-serif" font-size="10" lengthAdjust="spacingAndGlyphs" textLength="62" x="294.5" y="83.4854">creationTime</text><text fill="#000000" font-family="sans-serif" font-size="10" lengthAdjust="spacingAndGlyphs" textLength="41" x="294.5" y="95.126">dueTime</text><rect fill="#FEFECE" filter="url(#f1jcwdlbezeiep)" height="72.5313" style="stroke: #A80036; stroke-width: 1.5;" width="110" x="337.5" y="178.9531"/><text fill="#000000" font-family="sans-serif" font-size="12" lengthAdjust="spacingAndGlyphs" textLength="29" x="378" y="192.0918">Task</text><line style="stroke: #A80036; stroke-width: 1.5;" x1="338.5" x2="446.5" y1="196.9219" y2="196.9219"/><text fill="#000000" font-family="sans-serif" font-size="10" lengthAdjust="spacingAndGlyphs" textLength="52" x="343.5" y="210.2041">description</text><text fill="#000000" font-family="sans-serif" font-size="10" lengthAdjust="spacingAndGlyphs" textLength="86" x="343.5" y="221.8447">plannedStartTime</text><text fill="#000000" font-family="sans-serif" font-size="10" lengthAdjust="spacingAndGlyphs" textLength="91" x="343.5" y="233.4854">estimatedDuration</text><text fill="#000000" font-family="sans-serif" font-size="10" lengthAdjust="spacingAndGlyphs" textLength="98" x="343.5" y="245.126">acceptableDeviation</text><rect fill="#FEFECE" filter="url(#f1jcwdlbezeiep)" height="37.6094" style="stroke: #A80036; stroke-width: 1.5;" width="43" x="141" y="334.4531"/><text fill="#000000" font-family="sans-serif" font-size="12" lengthAdjust="spacingAndGlyphs" textLength="29" x="148" y="347.5918">User</text><line style="stroke: #A80036; stroke-width: 1.5;" x1="142" x2="183" y1="352.4219" y2="352.4219"/><text fill="#000000" font-family="sans-serif" font-size="10" lengthAdjust="spacingAndGlyphs" textLength="28" x="147" y="365.7041">name</text><rect fill="#FEFECE" filter="url(#f1jcwdlbezeiep)" height="33.9688" style="stroke: #A80036; stroke-width: 1.5;" width="77" x="6" y="198.4531"/><text fill="#000000" font-family="sans-serif" font-size="12" lengthAdjust="spacingAndGlyphs" textLength="63" x="13" y="211.5918">Developer</text><line style="stroke: #A80036; stroke-width: 1.5;" x1="7" x2="82" y1="216.4219" y2="216.4219"/><rect fill="#FEFECE" filter="url(#f1jcwdlbezeiep)" height="33.9688" style="stroke: #A80036; stroke-width: 1.5;" width="113" x="118" y="198.4531"/><text fill="#000000" font-family="sans-serif" font-size="12" lengthAdjust="spacingAndGlyphs" textLength="99" x="125" y="211.5918">ProjectManager</text><line style="stroke: #A80036; stroke-width: 1.5;" x1="119" x2="230" y1="216.4219" y2="216.4219"/><rect fill="#FEFECE" filter="url(#f1jcwdlbezeiep)" height="33.9688" style="stroke: #A80036; stroke-width: 1.5;" width="55" x="546" y="336.4531"/><text fill="#000000" font-family="sans-serif" font-size="12" lengthAdjust="spacingAndGlyphs" textLength="41" x="553" y="349.5918">Status</text><line style="stroke: #A80036; stroke-width: 1.5;" x1="547" x2="600" y1="354.4219" y2="354.4219"/><rect fill="#FEFECE" filter="url(#f1jcwdlbezeiep)" height="49.25" style="stroke: #A80036; stroke-width: 1.5;" width="75" x="847" y="328.9531"/><text fill="#000000" font-family="sans-serif" font-size="12" lengthAdjust="spacingAndGlyphs" textLength="61" x="854" y="342.0918">TimeSpan</text><line style="stroke: #A80036; stroke-width: 1.5;" x1="848" x2="921" y1="346.9219" y2="346.9219"/><text fill="#000000" font-family="sans-serif" font-size="10" lengthAdjust="spacingAndGlyphs" textLength="46" x="853" y="360.2041">startTime</text><text fill="#000000" font-family="sans-serif" font-size="10" lengthAdjust="spacingAndGlyphs" textLength="41" x="853" y="371.8447">endTime</text><rect fill="#FEFECE" filter="url(#f1jcwdlbezeiep)" height="33.9688" style="stroke: #A80036; stroke-width: 1.5;" width="88" x="636.5" y="336.4531"/><text fill="#000000" font-family="sans-serif" font-size="12" lengthAdjust="spacingAndGlyphs" textLength="74" x="643.5" y="349.5918">Reservation</text><line style="stroke: #A80036; stroke-width: 1.5;" x1="637.5" x2="723.5" y1="354.4219" y2="354.4219"/><rect fill="#FEFECE" filter="url(#f1jcwdlbezeiep)" height="33.9688" style="stroke: #A80036; stroke-width: 1.5;" width="73" x="727" y="454.9531"/><text fill="#000000" font-family="sans-serif" font-size="12" lengthAdjust="spacingAndGlyphs" textLength="59" x="734" y="468.0918">Resource</text><line style="stroke: #A80036; stroke-width: 1.5;" x1="728" x2="799" y1="472.9219" y2="472.9219"/><rect fill="#FEFECE" filter="url(#f1jcwdlbezeiep)" height="37.6094" style="stroke: #A80036; stroke-width: 1.5;" width="94" x="416.5" y="334.4531"/><text fill="#000000" font-family="sans-serif" font-size="12" lengthAdjust="spacingAndGlyphs" textLength="80" x="423.5" y="347.5918">Requirement</text><line style="stroke: #A80036; stroke-width: 1.5;" x1="417.5" x2="509.5" y1="352.4219" y2="352.4219"/><text fill="#000000" font-family="sans-serif" font-size="10" lengthAdjust="spacingAndGlyphs" textLength="40" x="422.5" y="365.7041">quantity</text><rect fill="#FEFECE" filter="url(#f1jcwdlbezeiep)" height="33.9688" style="stroke: #A80036; stroke-width: 1.5;" width="102" x="337.5" y="454.9531"/><text fill="#000000" font-family="sans-serif" font-size="12" lengthAdjust="spacingAndGlyphs" textLength="88" x="344.5" y="468.0918">ResourceType</text><line style="stroke: #A80036; stroke-width: 1.5;" x1="338.5" x2="438.5" y1="472.9219" y2="472.9219"/><ellipse cx="379.5" cy="353.4531" fill="#000000" rx="2" ry="2" style="stroke: none; stroke-width: 1.0;"/><!--link Company to BranchOffice--><path d="M120.256,584.9531 C153.064,584.9531 201.872,584.9531 237.759,584.9531 " fill="none" id="Company-BranchOffice" style="stroke: #A80036; stroke-width: 1.0;"/><text fill="#000000" font-family="sans-serif" font-size="13" lengthAdjust="spacingAndGlyphs" textLength="68" x="138.5" y="578.02">consists of</text><polygon fill="#000000" points="209.5,572.0195,215.5,575.0195,209.5,578.0195,209.5,572.0195" style="stroke: #000000; stroke-width: 1.0;"/><text fill="#000000" font-family="sans-serif" font-size="13" lengthAdjust="spacingAndGlyphs" textLength="8" x="128.083" y="580.5596">1</text><text fill="#000000" font-family="sans-serif" font-size="13" lengthAdjust="spacingAndGlyphs" textLength="7" x="223.0658" y="580.9117">*</text><!--link Project to BranchOffice--><path d="M309.766,102.1811 C298.203,131.6931 284.5,174.9931 284.5,214.4531 C284.5,214.4531 284.5,214.4531 284.5,472.9531 C284.5,505.7135 284.5,543.9127 284.5,565.8806 " fill="none" id="Project-BranchOffice" style="stroke: #A80036; stroke-width: 1.0;"/><polygon fill="#000000" points="298.5,355.9531,301.5,349.9531,304.5,355.9531,298.5,355.9531" style="stroke: #000000; stroke-width: 1.0;"/><text fill="#000000" font-family="sans-serif" font-size="13" lengthAdjust="spacingAndGlyphs" textLength="35" x="285.5" y="371.02">hosts</text><text fill="#000000" font-family="sans-serif" font-size="13" lengthAdjust="spacingAndGlyphs" textLength="7" x="299.5804" y="121.6231">*</text><text fill="#000000" font-family="sans-serif" font-size="13" lengthAdjust="spacingAndGlyphs" textLength="8" x="275.275" y="554.8898">1</text><!--link User to BranchOffice--><path d="M162.853,372.5371 C164.076,399.4521 169.146,450.9531 189.5,488.9531 C206.46,520.6168 237.394,548.5635 259.351,565.8068 " fill="none" id="User-BranchOffice" style="stroke: #A80036; stroke-width: 1.0;"/><polygon fill="#000000" points="213,474.4531,216,468.4531,219,474.4531,213,474.4531" style="stroke: #000000; stroke-width: 1.0;"/><text fill="#000000" font-family="sans-serif" font-size="13" lengthAdjust="spacingAndGlyphs" textLength="54" x="190.5" y="489.52">employs</text><text fill="#000000" font-family="sans-serif" font-size="13" lengthAdjust="spacingAndGlyphs" textLength="7" x="154.9679" y="392.1544">*</text><text fill="#000000" font-family="sans-serif" font-size="13" lengthAdjust="spacingAndGlyphs" textLength="8" x="242.4241" y="554.7934">1</text><!--link Resource to BranchOffice--><path d="M726.709,481.4791 C640.615,501.4301 426.15,551.1283 331.108,573.1526 " fill="none" id="Resource-BranchOffice" style="stroke: #A80036; stroke-width: 1.0;"/><text fill="#000000" font-family="sans-serif" font-size="13" lengthAdjust="spacingAndGlyphs" textLength="60" x="553.5" y="532.02">manages</text><polygon fill="#000000" points="616.5,526.0195,622.5,529.0195,616.5,532.0195,616.5,526.0195" style="stroke: #000000; stroke-width: 1.0;"/><text fill="#000000" font-family="sans-serif" font-size="13" lengthAdjust="spacingAndGlyphs" textLength="7" x="712.0285" y="478.9479">*</text><text fill="#000000" font-family="sans-serif" font-size="13" lengthAdjust="spacingAndGlyphs" textLength="8" x="338.8574" y="567.3042">1</text><!--link Project to Task--><path d="M341.719,102.2801 C352.214,125.4631 365.826,155.5311 376.315,178.7001 " fill="none" id="Project-Task" style="stroke: #A80036; stroke-width: 1.0;"/><text fill="#000000" font-family="sans-serif" font-size="13" lengthAdjust="spacingAndGlyphs" textLength="68" x="361.5" y="145.02">consists of</text><polygon fill="#000000" points="391,154.0859,394,160.0859,397,154.0859,391,154.0859" style="stroke: #000000; stroke-width: 1.0;"/><text fill="#000000" font-family="sans-serif" font-size="13" lengthAdjust="spacingAndGlyphs" textLength="8" x="335.6664" y="121.4596">1</text><text fill="#000000" font-family="sans-serif" font-size="13" lengthAdjust="spacingAndGlyphs" textLength="7" x="365.8086" y="167.938">*</text><!--link Manager to Task--><path d="M231.208,215.4531 C263.883,215.4531 304.773,215.4531 337.206,215.4531 " fill="none" id="ProjectManager-Task" style="stroke: #A80036; stroke-width: 1.0;"/><text fill="#000000" font-family="sans-serif" font-size="13" lengthAdjust="spacingAndGlyphs" textLength="34" x="260.75" y="208.52">plans</text><polygon fill="#000000" points="297.75,202.5195,303.75,205.5195,297.75,208.5195,297.75,202.5195" style="stroke: #000000; stroke-width: 1.0;"/><text fill="#000000" font-family="sans-serif" font-size="13" lengthAdjust="spacingAndGlyphs" textLength="8" x="238.9862" y="211.5696">1</text><text fill="#000000" font-family="sans-serif" font-size="13" lengthAdjust="spacingAndGlyphs" textLength="7" x="322.673" y="211.5976">*</text><!--link Developer to Task--><path d="M49.7181,198.2641 C55.974,181.0321 68.294,155.4551 89,143.9531 C121.053,126.1481 218.369,135.2991 254,143.9531 C283.057,151.0111 312.834,165.2971 337.296,179.2571 " fill="none" id="Developer-Task" style="stroke: #A80036; stroke-width: 1.0;"/><text fill="#000000" font-family="sans-serif" font-size="13" lengthAdjust="spacingAndGlyphs" textLength="150" x="90" y="145.02">is assigned to/performs</text><polygon fill="#000000" points="243,139.0195,249,142.0195,243,145.0195,243,139.0195" style="stroke: #000000; stroke-width: 1.0;"/><text fill="#000000" font-family="sans-serif" font-size="13" lengthAdjust="spacingAndGlyphs" textLength="7" x="43.2657" y="187.4875">*</text><text fill="#000000" font-family="sans-serif" font-size="13" lengthAdjust="spacingAndGlyphs" textLength="7" x="322.4077" y="170.4928">*</text><!--link Developer to User--><path d="M58.4995,232.5881 C76.8871,253.7811 109.632,291.5201 133.478,319.0041 " fill="none" id="Developer-User" style="stroke: #A80036; stroke-width: 1.0;"/><polygon fill="none" points="138.822,314.4811,146.642,334.1751,128.247,323.6561,138.822,314.4811" style="stroke: #A80036; stroke-width: 1.0;"/><!--link Manager to User--><path d="M173.076,232.5881 C171.321,252.4871 168.277,286.9751 165.905,313.8641 " fill="none" id="ProjectManager-User" style="stroke: #A80036; stroke-width: 1.0;"/><polygon fill="none" points="172.844,314.8681,164.113,334.1751,158.898,313.6381,172.844,314.8681" style="stroke: #A80036; stroke-width: 1.0;"/><!--link Task to TimeSpan--><path d="M447.736,224.6161 C511.958,234.8341 620.748,254.4021 711.5,281.9531 C759.293,296.4621 812.19,319.0271 846.755,334.7061 " fill="none" id="Task-TimeSpan" style="stroke: #A80036; stroke-width: 1.0;"/><text fill="#000000" font-family="sans-serif" font-size="13" lengthAdjust="spacingAndGlyphs" textLength="139" x="760.5" y="295.02">was performed during</text><polygon fill="#000000" points="902.5,289.0195,908.5,292.0195,902.5,295.0195,902.5,289.0195" style="stroke: #000000; stroke-width: 1.0;"/><text fill="#000000" font-family="sans-serif" font-size="13" lengthAdjust="spacingAndGlyphs" textLength="8" x="455.427" y="222.2844">1</text><text fill="#000000" font-family="sans-serif" font-size="13" lengthAdjust="spacingAndGlyphs" textLength="24" x="815.1378" y="327.745">0..1</text><!--link Task to Status--><path d="M459.818,237.3451 C485.382,247.7271 513.394,262.3371 534.5,281.9531 C550.79,297.0941 561.89,320.6231 567.962,336.2801 " fill="none" id="Task-Status" style="stroke: #A80036; stroke-width: 1.0;"/><polygon fill="#FFFFFF" points="447.505,232.5851,451.6593,238.4794,458.6979,236.9117,454.5436,231.0174,447.505,232.5851" style="stroke: #A80036; stroke-width: 1.0;"/><text fill="#000000" font-family="sans-serif" font-size="13" lengthAdjust="spacingAndGlyphs" textLength="35" x="549.5" y="295.02">has a</text><polygon fill="#000000" points="587.5,289.0195,593.5,292.0195,587.5,295.0195,587.5,289.0195" style="stroke: #000000; stroke-width: 1.0;"/><text fill="#000000" font-family="sans-serif" font-size="13" lengthAdjust="spacingAndGlyphs" textLength="7" x="455.6346" y="251.976">*</text><text fill="#000000" font-family="sans-serif" font-size="13" lengthAdjust="spacingAndGlyphs" textLength="8" x="556.9218" y="325.5086">1</text><!--link Task to Task--><path d="M447.868,208.5171 C467.028,208.4441 482.5,210.7561 482.5,215.4531 C482.5,220.1501 467.028,222.4621 447.868,222.3891 " fill="none" id="Task-Task" style="stroke: #A80036; stroke-width: 1.0;"/><polygon fill="#000000" points="490.5,214.0195,484.5,217.0195,490.5,220.0195,490.5,214.0195" style="stroke: #000000; stroke-width: 1.0;"/><text fill="#000000" font-family="sans-serif" font-size="13" lengthAdjust="spacingAndGlyphs" textLength="75" x="501.5" y="220.02">depends on</text><text fill="#000000" font-family="sans-serif" font-size="13" lengthAdjust="spacingAndGlyphs" textLength="7" x="455.4105" y="203.7729">*</text><text fill="#000000" font-family="sans-serif" font-size="13" lengthAdjust="spacingAndGlyphs" textLength="7" x="455.4105" y="236.3442">*</text><!--link Task to Task--><path d="M447.774,204.1871 C506.287,198.4371 582.5,202.1921 582.5,215.4531 C582.5,228.7141 506.287,232.4691 447.774,226.7191 " fill="none" id="Task-Task" style="stroke: #A80036; stroke-width: 1.0;"/><polygon fill="#000000" points="590.5,214.0195,584.5,217.0195,590.5,220.0195,590.5,214.0195" style="stroke: #000000; stroke-width: 1.0;"/><text fill="#000000" font-family="sans-serif" font-size="13" lengthAdjust="spacingAndGlyphs" textLength="103" x="601.5" y="220.02">is alternative for</text><text fill="#000000" font-family="sans-serif" font-size="13" lengthAdjust="spacingAndGlyphs" textLength="24" x="455.5526" y="199.119">0..1</text><text fill="#000000" font-family="sans-serif" font-size="13" lengthAdjust="spacingAndGlyphs" textLength="24" x="455.5526" y="240.9906">0..1</text><!--link Task to Reservation--><path d="M447.666,225.9961 C492.659,235.4541 556.691,252.8291 606.5,281.9531 C631.009,296.2831 653.788,320.2401 667.426,336.1921 " fill="none" id="Task-Reservation" style="stroke: #A80036; stroke-width: 1.0;"/><polygon fill="#000000" points="636.5,289.0195,630.5,292.0195,636.5,295.0195,636.5,289.0195" style="stroke: #000000; stroke-width: 1.0;"/><text fill="#000000" font-family="sans-serif" font-size="13" lengthAdjust="spacingAndGlyphs" textLength="60" x="642.5" y="295.02">owned by</text><text fill="#000000" font-family="sans-serif" font-size="13" lengthAdjust="spacingAndGlyphs" textLength="8" x="455.6164" y="223.5123">1</text><text fill="#000000" font-family="sans-serif" font-size="13" lengthAdjust="spacingAndGlyphs" textLength="7" x="655.143" y="325.3926">*</text><!--link Reservation to TimeSpan--><path d="M724.514,353.4531 C760.941,353.4531 812.144,353.4531 846.732,353.4531 " fill="none" id="Reservation-TimeSpan" style="stroke: #A80036; stroke-width: 1.0;"/><text fill="#000000" font-family="sans-serif" font-size="13" lengthAdjust="spacingAndGlyphs" textLength="73" x="742.75" y="346.52">valid during</text><polygon fill="#000000" points="818.75,340.5195,824.75,343.5195,818.75,346.5195,818.75,340.5195" style="stroke: #000000; stroke-width: 1.0;"/><text fill="#000000" font-family="sans-serif" font-size="13" lengthAdjust="spacingAndGlyphs" textLength="7" x="732.3835" y="349.2914">*</text><text fill="#000000" font-family="sans-serif" font-size="13" lengthAdjust="spacingAndGlyphs" textLength="8" x="831.031" y="349.1264">1</text><!--link Reservation to Resource--><path d="M692.041,370.6521 C707.898,392.9091 736.252,432.7071 752.057,454.8921 " fill="none" id="Reservation-Resource" style="stroke: #A80036; stroke-width: 1.0;"/><text fill="#000000" font-family="sans-serif" font-size="13" lengthAdjust="spacingAndGlyphs" textLength="55" x="729.5" y="421.02">reserves</text><polygon fill="#000000" points="752.5,430.0859,755.5,436.0859,758.5,430.0859,752.5,430.0859" style="stroke: #000000; stroke-width: 1.0;"/><text fill="#000000" font-family="sans-serif" font-size="13" lengthAdjust="spacingAndGlyphs" textLength="7" x="687.6041" y="390.618">*</text><text fill="#000000" font-family="sans-serif" font-size="13" lengthAdjust="spacingAndGlyphs" textLength="8" x="738.9415" y="443.8504">1</text><!--link ResourceType to Resource--><path d="M439.856,471.9531 C516.683,471.9531 659.672,471.9531 726.849,471.9531 " fill="none" id="ResourceType-Resource" style="stroke: #A80036; stroke-width: 1.0;"/><polygon fill="#000000" points="554.75,459.0195,548.75,462.0195,554.75,465.0195,554.75,459.0195" style="stroke: #000000; stroke-width: 1.0;"/><text fill="#000000" font-family="sans-serif" font-size="13" lengthAdjust="spacingAndGlyphs" textLength="58" x="560.75" y="465.02">is type of</text><text fill="#000000" font-family="sans-serif" font-size="13" lengthAdjust="spacingAndGlyphs" textLength="8" x="447.6404" y="467.9769">1</text><text fill="#000000" font-family="sans-serif" font-size="13" lengthAdjust="spacingAndGlyphs" textLength="7" x="711.9443" y="467.5596">*</text><!--link ResourceType to ResourceType--><path d="M439.708,461.8501 C458.791,461.5191 474.5,464.8871 474.5,471.9531 C474.5,479.0191 458.791,482.3871 439.708,482.0561 " fill="none" id="ResourceType-ResourceType" style="stroke: #A80036; stroke-width: 1.0;"/><polygon fill="#000000" points="482.5,470.5195,476.5,473.5195,482.5,476.5195,482.5,470.5195" style="stroke: #000000; stroke-width: 1.0;"/><text fill="#000000" font-family="sans-serif" font-size="13" lengthAdjust="spacingAndGlyphs" textLength="137" x="493.5" y="476.52">requires/conflicts with</text><text fill="#000000" font-family="sans-serif" font-size="13" lengthAdjust="spacingAndGlyphs" textLength="7" x="447.4013" y="456.4531">*</text><text fill="#000000" font-family="sans-serif" font-size="13" lengthAdjust="spacingAndGlyphs" textLength="7" x="447.4013" y="496.61">*</text><!--link Task to apoint41264--><path d="M389.084,252.1851 C385.534,289.3321 380.384,343.2021 379.601,351.3931 " fill="none" id="Task-apoint41264" style="stroke: #A80036; stroke-width: 1.0;"/><text fill="#000000" font-family="sans-serif" font-size="13" lengthAdjust="spacingAndGlyphs" textLength="128" x="386.5" y="295.02">requires resource of</text><polygon fill="#000000" points="446,304.0859,449,310.0859,452,304.0859,446,304.0859" style="stroke: #000000; stroke-width: 1.0;"/><text fill="#000000" font-family="sans-serif" font-size="13" lengthAdjust="spacingAndGlyphs" textLength="7" x="380.9385" y="271.6278">*</text><!--link apoint41264 to ResourceType--><path d="M379.601,355.7611 C380.343,365.3611 384.978,425.3561 387.249,454.7541 " fill="none" id="apoint41264-ResourceType" style="stroke: #A80036; stroke-width: 1.0;"/><text fill="#000000" font-family="sans-serif" font-size="13" lengthAdjust="spacingAndGlyphs" textLength="7" x="378.7346" y="443.9744">*</text><!--link apoint41264 to Requirement--><path d="M381.797,353.4531 C393.286,353.4531 404.776,353.4531 416.265,353.4531 " fill="none" id="apoint41264-Requirement" style="stroke: #A80036; stroke-width: 1.0; stroke-dasharray: 7.0,7.0;"/><!--
@startuml
title Domain model - Iteration 3


object Company

object BranchOffice {
    location
}



object Project {
    name
    description
    creationTime
    dueTime
}

object Task {
    description
    plannedStartTime
    estimatedDuration
    acceptableDeviation
}

object User {
    name
}

object Developer

object Manager

object Status

object TimeSpan {
    startTime
    endTime
}

object Reservation

object Resource

object Requirement {
    quantity
}

object ResourceType



Company "1" -right- "*" BranchOffice: consists of >
BranchOffice "1" -up- "*" Project: hosts >
BranchOffice "1" -up- "*" User: employs >
BranchOffice "1" -up- "*" Resource: manages >



Project "1" - - "*" Task: consists of >
Task "*" -left- "1" Manager: < plans
Task "*" -left- "*" Developer: < is assigned to/performs
User <|-up- Developer
User <|-up- Manager
Task "1" -down- "0..1" TimeSpan: was performed during >
Task "*" o-down- "1" Status: has a >
Task "*" - - "*" Task: depends on >
Task "0..1" - - "0..1" Task: is alternative for >
Task "1" -down- "*" Reservation: < owned by
Reservation "*" -right- "1" TimeSpan: valid during >
Resource "1" -up- "*" Reservation: < reserves
ResourceType "1" -right- "*" Resource: < is type of
ResourceType "*" - - "*" ResourceType: requires/conflicts with >
Task "*" -down- "*" ResourceType: requires resource of >
(Task, ResourceType) .. Requirement
@enduml

PlantUML version 1.2018.05(Sat May 05 20:00:17 UTC 2018)
(GPL source distribution)
Java Runtime: Java(TM) SE Runtime Environment
JVM: Java HotSpot(TM) 64-Bit Server VM
Java Version: 1.7.0_25-b15
Operating System: Linux
Default Encoding: UTF-8
Language: en
Country: US
--></g></svg>