<?xml version="1.0" encoding="UTF-8" standalone="no"?><svg xmlns="http://www.w3.org/2000/svg" xmlns:xlink="http://www.w3.org/1999/xlink" contentScriptType="application/ecmascript" contentStyleType="text/css" height="763px" preserveAspectRatio="none" style="width:1513px;height:763px;" version="1.1" viewBox="0 0 1513 763" width="1513px" zoomAndPan="magnify"><defs><filter height="300%" id="f18cq4ipnxvofe" width="300%" x="-1" y="-1"><feGaussianBlur result="blurOut" stdDeviation="2.0"/><feColorMatrix in="blurOut" result="blurOut2" type="matrix" values="0 0 0 0 0 0 0 0 0 0 0 0 0 0 0 0 0 0 .4 0"/><feOffset dx="4.0" dy="4.0" in="blurOut2" result="blurOut3"/><feBlend in="SourceGraphic" in2="blurOut3" mode="normal"/></filter></defs><g><text fill="#000000" font-family="sans-serif" font-size="14" font-weight="bold" lengthAdjust="spacingAndGlyphs" textLength="385" x="564.5" y="22.9951">"Use Case - Update Task Status - End execution"</text><rect fill="#FFFFFF" filter="url(#f18cq4ipnxvofe)" height="30" style="stroke: #A80036; stroke-width: 1.0;" width="10" x="481" y="674.7188"/><rect fill="#FFFFFF" filter="url(#f18cq4ipnxvofe)" height="29.1328" style="stroke: #A80036; stroke-width: 1.0;" width="10" x="614" y="128.8594"/><rect fill="#FFFFFF" filter="url(#f18cq4ipnxvofe)" height="517.5938" style="stroke: #A80036; stroke-width: 1.0;" width="10" x="883" y="187.125"/><rect fill="#FFFFFF" filter="url(#f18cq4ipnxvofe)" height="40.1328" style="stroke: #A80036; stroke-width: 1.0;" width="10" x="888" y="224.125"/><rect fill="#FFFFFF" filter="url(#f18cq4ipnxvofe)" height="40.1328" style="stroke: #A80036; stroke-width: 1.0;" width="10" x="888" y="366.6563"/><rect fill="#FFFFFF" filter="url(#f18cq4ipnxvofe)" height="30" style="stroke: #A80036; stroke-width: 1.0;" width="10" x="888" y="472.1875"/><rect fill="#FFFFFF" filter="url(#f18cq4ipnxvofe)" height="40.1328" style="stroke: #A80036; stroke-width: 1.0;" width="10" x="888" y="539.1875"/><rect fill="#FFFFFF" filter="url(#f18cq4ipnxvofe)" height="30" style="stroke: #A80036; stroke-width: 1.0;" width="10" x="888" y="615.5859"/><rect fill="#FFFFFF" filter="url(#f18cq4ipnxvofe)" height="30" style="stroke: #A80036; stroke-width: 1.0;" width="10" x="888" y="674.7188"/><rect fill="#FFFFFF" filter="url(#f18cq4ipnxvofe)" height="29.1328" style="stroke: #A80036; stroke-width: 1.0;" width="10" x="1087" y="300.5234"/><rect fill="#FFFFFF" filter="url(#f18cq4ipnxvofe)" height="261.6641" style="stroke: #A80036; stroke-width: 1.0;" width="10" x="1263" y="443.0547"/><line style="stroke: #A80036; stroke-width: 1.0; stroke-dasharray: 5.0,5.0;" x1="486" x2="486" y1="68.5938" y2="722.7188"/><line style="stroke: #A80036; stroke-width: 1.0; stroke-dasharray: 5.0,5.0;" x1="618.5" x2="618.5" y1="68.5938" y2="722.7188"/><line style="stroke: #A80036; stroke-width: 1.0; stroke-dasharray: 5.0,5.0;" x1="888" x2="888" y1="68.5938" y2="722.7188"/><line style="stroke: #A80036; stroke-width: 1.0; stroke-dasharray: 5.0,5.0;" x1="1092" x2="1092" y1="68.5938" y2="722.7188"/><line style="stroke: #A80036; stroke-width: 1.0; stroke-dasharray: 5.0,5.0;" x1="1268" x2="1268" y1="68.5938" y2="722.7188"/><line style="stroke: #A80036; stroke-width: 1.0; stroke-dasharray: 5.0,5.0;" x1="1432" x2="1432" y1="68.5938" y2="722.7188"/><rect fill="#FEFECE" filter="url(#f18cq4ipnxvofe)" height="30.2969" style="stroke: #A80036; stroke-width: 1.5;" width="86" x="441" y="33.2969"/><text fill="#000000" font-family="sans-serif" font-size="14" lengthAdjust="spacingAndGlyphs" textLength="72" x="448" y="53.292">:Controller</text><rect fill="#FEFECE" filter="url(#f18cq4ipnxvofe)" height="30.2969" style="stroke: #A80036; stroke-width: 1.5;" width="86" x="441" y="721.7188"/><text fill="#000000" font-family="sans-serif" font-size="14" lengthAdjust="spacingAndGlyphs" textLength="72" x="448" y="741.7139">:Controller</text><rect fill="#FEFECE" filter="url(#f18cq4ipnxvofe)" height="30.2969" style="stroke: #A80036; stroke-width: 1.5;" width="111" x="561.5" y="33.2969"/><text fill="#000000" font-family="sans-serif" font-size="14" lengthAdjust="spacingAndGlyphs" textLength="97" x="568.5" y="53.292">:UserManager</text><rect fill="#FEFECE" filter="url(#f18cq4ipnxvofe)" height="30.2969" style="stroke: #A80036; stroke-width: 1.5;" width="111" x="561.5" y="721.7188"/><text fill="#000000" font-family="sans-serif" font-size="14" lengthAdjust="spacingAndGlyphs" textLength="97" x="568.5" y="741.7139">:UserManager</text><rect fill="#FEFECE" filter="url(#f18cq4ipnxvofe)" height="30.2969" style="stroke: #A80036; stroke-width: 1.5;" width="52" x="860" y="33.2969"/><text fill="#000000" font-family="sans-serif" font-size="14" lengthAdjust="spacingAndGlyphs" textLength="38" x="867" y="53.292">:Task</text><rect fill="#FEFECE" filter="url(#f18cq4ipnxvofe)" height="30.2969" style="stroke: #A80036; stroke-width: 1.5;" width="52" x="860" y="721.7188"/><text fill="#000000" font-family="sans-serif" font-size="14" lengthAdjust="spacingAndGlyphs" textLength="38" x="867" y="741.7139">:Task</text><rect fill="#FEFECE" filter="url(#f18cq4ipnxvofe)" height="30.2969" style="stroke: #A80036; stroke-width: 1.5;" width="48" x="1066" y="33.2969"/><text fill="#000000" font-family="sans-serif" font-size="14" lengthAdjust="spacingAndGlyphs" textLength="34" x="1073" y="53.292">:Plan</text><rect fill="#FEFECE" filter="url(#f18cq4ipnxvofe)" height="30.2969" style="stroke: #A80036; stroke-width: 1.5;" width="48" x="1066" y="721.7188"/><text fill="#000000" font-family="sans-serif" font-size="14" lengthAdjust="spacingAndGlyphs" textLength="34" x="1073" y="741.7139">:Plan</text><rect fill="#FEFECE" filter="url(#f18cq4ipnxvofe)" height="30.2969" style="stroke: #A80036; stroke-width: 1.5;" width="156" x="1188" y="33.2969"/><text fill="#000000" font-family="sans-serif" font-size="14" lengthAdjust="spacingAndGlyphs" textLength="142" x="1195" y="53.292">:TaskStateExecuting</text><rect fill="#FEFECE" filter="url(#f18cq4ipnxvofe)" height="30.2969" style="stroke: #A80036; stroke-width: 1.5;" width="156" x="1188" y="721.7188"/><text fill="#000000" font-family="sans-serif" font-size="14" lengthAdjust="spacingAndGlyphs" textLength="142" x="1195" y="741.7139">:TaskStateExecuting</text><rect fill="#FEFECE" filter="url(#f18cq4ipnxvofe)" height="30.2969" style="stroke: #A80036; stroke-width: 1.5;" width="144" x="1358" y="33.2969"/><text fill="#000000" font-family="sans-serif" font-size="14" lengthAdjust="spacingAndGlyphs" textLength="130" x="1365" y="53.292">:TaskStatePlanned</text><rect fill="#FEFECE" filter="url(#f18cq4ipnxvofe)" height="30.2969" style="stroke: #A80036; stroke-width: 1.5;" width="144" x="1358" y="721.7188"/><text fill="#000000" font-family="sans-serif" font-size="14" lengthAdjust="spacingAndGlyphs" textLength="130" x="1365" y="741.7139">:TaskStatePlanned</text><rect fill="#FFFFFF" filter="url(#f18cq4ipnxvofe)" height="30" style="stroke: #A80036; stroke-width: 1.0;" width="10" x="481" y="674.7188"/><rect fill="#FFFFFF" filter="url(#f18cq4ipnxvofe)" height="29.1328" style="stroke: #A80036; stroke-width: 1.0;" width="10" x="614" y="128.8594"/><rect fill="#FFFFFF" filter="url(#f18cq4ipnxvofe)" height="517.5938" style="stroke: #A80036; stroke-width: 1.0;" width="10" x="883" y="187.125"/><rect fill="#FFFFFF" filter="url(#f18cq4ipnxvofe)" height="40.1328" style="stroke: #A80036; stroke-width: 1.0;" width="10" x="888" y="224.125"/><rect fill="#FFFFFF" filter="url(#f18cq4ipnxvofe)" height="40.1328" style="stroke: #A80036; stroke-width: 1.0;" width="10" x="888" y="366.6563"/><rect fill="#FFFFFF" filter="url(#f18cq4ipnxvofe)" height="30" style="stroke: #A80036; stroke-width: 1.0;" width="10" x="888" y="472.1875"/><rect fill="#FFFFFF" filter="url(#f18cq4ipnxvofe)" height="40.1328" style="stroke: #A80036; stroke-width: 1.0;" width="10" x="888" y="539.1875"/><rect fill="#FFFFFF" filter="url(#f18cq4ipnxvofe)" height="30" style="stroke: #A80036; stroke-width: 1.0;" width="10" x="888" y="615.5859"/><rect fill="#FFFFFF" filter="url(#f18cq4ipnxvofe)" height="30" style="stroke: #A80036; stroke-width: 1.0;" width="10" x="888" y="674.7188"/><rect fill="#FFFFFF" filter="url(#f18cq4ipnxvofe)" height="29.1328" style="stroke: #A80036; stroke-width: 1.0;" width="10" x="1087" y="300.5234"/><rect fill="#FFFFFF" filter="url(#f18cq4ipnxvofe)" height="261.6641" style="stroke: #A80036; stroke-width: 1.0;" width="10" x="1263" y="443.0547"/><polygon fill="#A80036" points="474,95.7266,484,99.7266,474,103.7266,478,99.7266" style="stroke: #A80036; stroke-width: 1.0;"/><line style="stroke: #A80036; stroke-width: 1.0;" x1="3" x2="480" y1="99.7266" y2="99.7266"/><text fill="#000000" font-family="sans-serif" font-size="13" lengthAdjust="spacingAndGlyphs" textLength="459" x="10" y="94.6606">endTaskExecution(TaskWrapper, LocalDateTime, LocalDateTime, String)</text><polygon fill="#A80036" points="602,124.8594,612,128.8594,602,132.8594,606,128.8594" style="stroke: #A80036; stroke-width: 1.0;"/><line style="stroke: #A80036; stroke-width: 1.0;" x1="486" x2="608" y1="128.8594" y2="128.8594"/><text fill="#000000" font-family="sans-serif" font-size="13" lengthAdjust="spacingAndGlyphs" textLength="109" x="493" y="123.7935">getCurrentUser()</text><polygon fill="#A80036" points="497,153.9922,487,157.9922,497,161.9922,493,157.9922" style="stroke: #A80036; stroke-width: 1.0;"/><line style="stroke: #A80036; stroke-width: 1.0; stroke-dasharray: 2.0,2.0;" x1="491" x2="618" y1="157.9922" y2="157.9922"/><text fill="#000000" font-family="sans-serif" font-size="13" lengthAdjust="spacingAndGlyphs" textLength="30" x="503" y="152.9263">User</text><polygon fill="#A80036" points="871,183.125,881,187.125,871,191.125,875,187.125" style="stroke: #A80036; stroke-width: 1.0;"/><line style="stroke: #A80036; stroke-width: 1.0;" x1="486" x2="877" y1="187.125" y2="187.125"/><text fill="#000000" font-family="sans-serif" font-size="13" lengthAdjust="spacingAndGlyphs" textLength="378" x="493" y="182.0591">endExecution(LocalDateTime, LocalDateTime, String, User)</text><line style="stroke: #A80036; stroke-width: 1.0;" x1="893" x2="940" y1="211.2578" y2="211.2578"/><line style="stroke: #A80036; stroke-width: 1.0;" x1="940" x2="940" y1="211.2578" y2="224.2578"/><line style="stroke: #A80036; stroke-width: 1.0;" x1="899" x2="940" y1="224.2578" y2="224.2578"/><polygon fill="#A80036" points="909,220.2578,899,224.2578,909,228.2578,905,224.2578" style="stroke: #A80036; stroke-width: 1.0;"/><text fill="#000000" font-family="sans-serif" font-size="13" lengthAdjust="spacingAndGlyphs" textLength="58" x="905" y="206.1919">getPlan()</text><line style="stroke: #A80036; stroke-width: 1.0; stroke-dasharray: 2.0,2.0;" x1="898" x2="940" y1="263.3906" y2="263.3906"/><line style="stroke: #A80036; stroke-width: 1.0; stroke-dasharray: 2.0,2.0;" x1="940" x2="940" y1="263.3906" y2="276.3906"/><line style="stroke: #A80036; stroke-width: 1.0; stroke-dasharray: 2.0,2.0;" x1="893" x2="940" y1="276.3906" y2="276.3906"/><polygon fill="#A80036" points="903,272.3906,893,276.3906,903,280.3906,899,276.3906" style="stroke: #A80036; stroke-width: 1.0;"/><text fill="#000000" font-family="sans-serif" font-size="13" lengthAdjust="spacingAndGlyphs" textLength="27" x="905" y="258.3247">Plan</text><polygon fill="#A80036" points="1075,296.5234,1085,300.5234,1075,304.5234,1079,300.5234" style="stroke: #A80036; stroke-width: 1.0;"/><line style="stroke: #A80036; stroke-width: 1.0;" x1="893" x2="1081" y1="300.5234" y2="300.5234"/><text fill="#000000" font-family="sans-serif" font-size="13" lengthAdjust="spacingAndGlyphs" textLength="175" x="900" y="295.4575">isDeveloperFromPlan(User)</text><polygon fill="#A80036" points="904,325.6563,894,329.6563,904,333.6563,900,329.6563" style="stroke: #A80036; stroke-width: 1.0;"/><line style="stroke: #A80036; stroke-width: 1.0; stroke-dasharray: 2.0,2.0;" x1="898" x2="1091" y1="329.6563" y2="329.6563"/><text fill="#000000" font-family="sans-serif" font-size="13" lengthAdjust="spacingAndGlyphs" textLength="51" x="910" y="324.5903">boolean</text><line style="stroke: #A80036; stroke-width: 1.0;" x1="893" x2="940" y1="353.7891" y2="353.7891"/><line style="stroke: #A80036; stroke-width: 1.0;" x1="940" x2="940" y1="353.7891" y2="366.7891"/><line style="stroke: #A80036; stroke-width: 1.0;" x1="899" x2="940" y1="366.7891" y2="366.7891"/><polygon fill="#A80036" points="909,362.7891,899,366.7891,909,370.7891,905,366.7891" style="stroke: #A80036; stroke-width: 1.0;"/><text fill="#000000" font-family="sans-serif" font-size="13" lengthAdjust="spacingAndGlyphs" textLength="66" x="905" y="348.7231">getState()</text><line style="stroke: #A80036; stroke-width: 1.0; stroke-dasharray: 2.0,2.0;" x1="898" x2="940" y1="405.9219" y2="405.9219"/><line style="stroke: #A80036; stroke-width: 1.0; stroke-dasharray: 2.0,2.0;" x1="940" x2="940" y1="405.9219" y2="418.9219"/><line style="stroke: #A80036; stroke-width: 1.0; stroke-dasharray: 2.0,2.0;" x1="893" x2="940" y1="418.9219" y2="418.9219"/><polygon fill="#A80036" points="903,414.9219,893,418.9219,903,422.9219,899,418.9219" style="stroke: #A80036; stroke-width: 1.0;"/><text fill="#000000" font-family="sans-serif" font-size="13" lengthAdjust="spacingAndGlyphs" textLength="64" x="905" y="400.856">TaskState</text><polygon fill="#A80036" points="1251,439.0547,1261,443.0547,1251,447.0547,1255,443.0547" style="stroke: #A80036; stroke-width: 1.0;"/><line style="stroke: #A80036; stroke-width: 1.0;" x1="893" x2="1257" y1="443.0547" y2="443.0547"/><text fill="#000000" font-family="sans-serif" font-size="13" lengthAdjust="spacingAndGlyphs" textLength="351" x="900" y="437.9888">endExecution(Task, ResourceManager, LocalDateTime)</text><polygon fill="#A80036" points="909,468.1875,899,472.1875,909,476.1875,905,472.1875" style="stroke: #A80036; stroke-width: 1.0;"/><line style="stroke: #A80036; stroke-width: 1.0;" x1="903" x2="1431" y1="472.1875" y2="472.1875"/><text fill="#000000" font-family="sans-serif" font-size="13" lengthAdjust="spacingAndGlyphs" textLength="158" x="915" y="467.1216">setTimeSpan(TimeSpan)</text><line style="stroke: #A80036; stroke-width: 1.0;" x1="893" x2="940" y1="526.3203" y2="526.3203"/><line style="stroke: #A80036; stroke-width: 1.0;" x1="940" x2="940" y1="526.3203" y2="539.3203"/><line style="stroke: #A80036; stroke-width: 1.0;" x1="899" x2="940" y1="539.3203" y2="539.3203"/><polygon fill="#A80036" points="909,535.3203,899,539.3203,909,543.3203,905,539.3203" style="stroke: #A80036; stroke-width: 1.0;"/><text fill="#000000" font-family="sans-serif" font-size="13" lengthAdjust="spacingAndGlyphs" textLength="58" x="905" y="521.2544">getPlan()</text><line style="stroke: #A80036; stroke-width: 1.0; stroke-dasharray: 2.0,2.0;" x1="898" x2="940" y1="578.4531" y2="578.4531"/><line style="stroke: #A80036; stroke-width: 1.0; stroke-dasharray: 2.0,2.0;" x1="940" x2="940" y1="578.4531" y2="591.4531"/><line style="stroke: #A80036; stroke-width: 1.0; stroke-dasharray: 2.0,2.0;" x1="893" x2="940" y1="591.4531" y2="591.4531"/><polygon fill="#A80036" points="903,587.4531,893,591.4531,903,595.4531,899,591.4531" style="stroke: #A80036; stroke-width: 1.0;"/><text fill="#000000" font-family="sans-serif" font-size="13" lengthAdjust="spacingAndGlyphs" textLength="27" x="905" y="573.3872">Plan</text><polygon fill="#A80036" points="1103,611.5859,1093,615.5859,1103,619.5859,1099,615.5859" style="stroke: #A80036; stroke-width: 1.0;"/><line style="stroke: #A80036; stroke-width: 1.0;" x1="1097" x2="1431" y1="615.5859" y2="615.5859"/><text fill="#000000" font-family="sans-serif" font-size="13" lengthAdjust="spacingAndGlyphs" textLength="107" x="1109" y="610.52">finish(TimeSpan)</text><polygon fill="#A80036" points="909,670.7188,899,674.7188,909,678.7188,905,674.7188" style="stroke: #A80036; stroke-width: 1.0;"/><line style="stroke: #A80036; stroke-width: 1.0;" x1="903" x2="1262" y1="674.7188" y2="674.7188"/><text fill="#000000" font-family="sans-serif" font-size="13" lengthAdjust="spacingAndGlyphs" textLength="129" x="915" y="669.6528">setState(TaskState)</text><!--
@startuml
title "Use Case - Update Task Status - End execution"

-> ":Controller": endTaskExecution(TaskWrapper, LocalDateTime, LocalDateTime, String)

":Controller" -> ":UserManager": getCurrentUser()
activate ":UserManager"
":Controller" <- - ":UserManager": User
deactivate ":UserManager"

":Controller" -> ":Task": endExecution(LocalDateTime, LocalDateTime, String, User)
activate ":Task"

":Task" -> ":Task": getPlan()
activate ":Task"
":Task" <- - ":Task": Plan
deactivate ":Task"

":Task" -> ":Plan": isDeveloperFromPlan(User)
activate ":Plan"
":Task" <- - ":Plan": boolean
deactivate ":Plan"

":Task" -> ":Task": getState()
activate ":Task"
":Task" <- - ":Task": TaskState
deactivate ":Task"

":Task" -> ":TaskStateExecuting": endExecution(Task, ResourceManager, LocalDateTime)
activate ":TaskStateExecuting"

":TaskStatePlanned" -> ":Task": setTimeSpan(TimeSpan)
activate ":Task"
deactivate ":Task"

":Task" -> ":Task": getPlan()
activate ":Task"
":Task" <- - ":Task": Plan
deactivate ":Task"

":TaskStatePlanned" -> ":Plan": finish(TimeSpan)
activate ":Task"
deactivate ":Task"

":TaskStateExecuting" -> ":Task": setState(TaskState)
activate ":Task"
deactivate ":Task"

deactivate ":TaskStateExecuting"

deactivate ":Task"

activate ":Controller"

deactivate ":Controller"
@enduml

PlantUML version 1.2018.03(Thu Apr 05 16:59:15 UTC 2018)
(GPL source distribution)
Java Runtime: Java(TM) SE Runtime Environment
JVM: Java HotSpot(TM) 64-Bit Server VM
Java Version: 1.7.0_25-b15
Operating System: Linux
Default Encoding: UTF-8
Language: en
Country: US
--></g></svg>